<?xml version="1.0" encoding="UTF-8"?>
<svg version="1.1" xmlns="http://www.w3.org/2000/svg" width="2000" height="2000">
<path d="M0 0 C1.78888407 0.0018723 3.57776867 0.00329235 5.36665344 0.00428772 C10.00409439 0.00804909 14.64150244 0.01782227 19.27893066 0.0289917 C24.03946488 0.03934559 28.80000457 0.04381483 33.56054688 0.04882812 C42.84897254 0.05945242 52.13737413 0.07644885 61.42578125 0.09765625 C61.75578125 0.75765625 62.08578125 1.41765625 62.42578125 2.09765625 C55.90235796 9.98641141 48.55474227 17.08037149 41.30078125 24.28515625 C40.02580713 25.55510312 38.75106579 26.82528374 37.4765625 28.09570312 C34.66749659 30.89503807 31.85624824 33.69215894 29.04293823 36.48722839 C26.8337409 38.68723307 24.62999937 40.8926622 22.42578125 43.09765625 C21.18626042 44.33722071 19.94671559 45.57676116 18.70715332 46.81628418 C18.00913101 47.51430649 17.3111087 48.2123288 16.5919342 48.9315033 C-56.85559082 122.37902832 -56.85559082 122.37902832 -58.81056213 124.33375549 C-59.90801025 125.43135553 -61.00517836 126.52923571 -62.10191345 127.62754822 C-64.03948603 129.56760939 -65.98466307 131.4972994 -67.94921875 133.41015625 C-70.79912304 136.32791541 -73.41277694 139.39180255 -76.0234375 142.5234375 C-76.53519531 143.04292969 -77.04695312 143.56242188 -77.57421875 144.09765625 C-78.23421875 144.09765625 -78.89421875 144.09765625 -79.57421875 144.09765625 C-79.57421875 144.75765625 -79.57421875 145.41765625 -79.57421875 146.09765625 C-80.96484375 147.4296875 -80.96484375 147.4296875 -82.82421875 148.91015625 C-85.84597623 151.40507425 -88.13296057 154.02639596 -90.57421875 157.09765625 C-92.57087473 158.76832758 -94.57072909 160.43518611 -96.57421875 162.09765625 C-97.57995653 163.42666689 -98.58217283 164.75839426 -99.57421875 166.09765625 C-100.23421875 166.09765625 -100.89421875 166.09765625 -101.57421875 166.09765625 C-101.57421875 166.75765625 -101.57421875 167.41765625 -101.57421875 168.09765625 C-103.05126087 169.34993109 -104.53249274 170.59932147 -106.06640625 171.78125 C-107.84184819 173.21529716 -107.84184819 173.21529716 -109.57421875 176.09765625 C-110.23421875 176.09765625 -110.89421875 176.09765625 -111.57421875 176.09765625 C-111.81303866 176.66165445 -112.05185858 177.22565266 -112.29791546 177.80674171 C-113.85337924 180.59873842 -115.72921231 182.49521782 -117.99507141 184.75228882 C-118.92456604 185.68308762 -119.85406067 186.61388641 -120.8117218 187.57289124 C-121.84485195 188.59734851 -122.87807341 189.62171371 -123.91137695 190.64599609 C-124.99757825 191.7299957 -126.08333179 192.81444414 -127.16867065 193.89930725 C-129.50607786 196.23378171 -131.84660649 198.56506473 -134.18959999 200.89393234 C-137.89693301 204.5789865 -141.59715358 208.27112715 -145.2964325 211.96426392 C-151.151512 217.80796051 -157.01124292 223.64696727 -162.87301558 229.4839493 C-173.36159279 239.92823717 -183.84466529 250.3780427 -194.32245892 260.8331486 C-197.99811665 264.5004167 -201.67656429 268.16485632 -205.35730517 271.82702231 C-207.65130981 274.11034914 -209.94325615 276.39573393 -212.23470688 278.68162346 C-213.29438607 279.73784547 -214.35493535 280.7931954 -215.41643715 281.84758568 C-220.36496833 286.76370493 -225.17058126 291.68185868 -229.57421875 297.09765625 C-231.57421875 298.76432292 -233.57421875 300.43098958 -235.57421875 302.09765625 C-236.39921875 303.08765625 -237.22421875 304.07765625 -238.07421875 305.09765625 C-240.66343305 308.20471341 -243.47358361 310.51379363 -246.57421875 313.09765625 C-247.39921875 314.08765625 -248.22421875 315.07765625 -249.07421875 316.09765625 C-251.66343305 319.20471341 -254.47358361 321.51379363 -257.57421875 324.09765625 C-258.39921875 325.08765625 -259.22421875 326.07765625 -260.07421875 327.09765625 C-262.66343305 330.20471341 -265.47358361 332.51379363 -268.57421875 335.09765625 C-270.31991365 337.04012023 -271.93087882 339.06510423 -273.57421875 341.09765625 C-275.76171875 343.47265625 -275.76171875 343.47265625 -277.57421875 345.09765625 C-278.23421875 345.09765625 -278.89421875 345.09765625 -279.57421875 345.09765625 C-280.23421875 346.41765625 -280.89421875 347.73765625 -281.57421875 349.09765625 C-282.23421875 349.09765625 -282.89421875 349.09765625 -283.57421875 349.09765625 C-283.83074219 349.65710938 -284.08726562 350.2165625 -284.3515625 350.79296875 C-285.73270057 353.39639194 -287.36478775 355.61724091 -289.13671875 357.97265625 C-293.93323743 364.49278782 -298.26512796 371.25143724 -302.57421875 378.09765625 C-303.10917969 378.90460938 -303.64414062 379.7115625 -304.1953125 380.54296875 C-311.86656088 392.47602179 -316.8194863 406.4959539 -320.57421875 420.09765625 C-320.96867188 421.38736328 -320.96867188 421.38736328 -321.37109375 422.703125 C-325.87459257 437.89094499 -327.12550634 453.09410352 -327.01171875 468.84765625 C-327.00934204 469.71896179 -327.00696533 470.59026733 -327.0045166 471.48797607 C-326.94680986 485.03882259 -326.04136686 497.9424439 -322.57421875 511.09765625 C-322.40873535 511.773125 -322.24325195 512.44859375 -322.07275391 513.14453125 C-319.80301535 522.39932661 -316.34700861 531.01600382 -312.40234375 539.66796875 C-310.67039277 543.47073068 -309.11509334 546.9058782 -308.57421875 551.09765625 C-307.91421875 551.09765625 -307.25421875 551.09765625 -306.57421875 551.09765625 C-306.03655884 552.20343018 -306.03655884 552.20343018 -305.48803711 553.33154297 C-301.97310564 560.47268463 -298.19490529 567.37808618 -294.13671875 574.22265625 C-292.90691996 576.31343039 -291.67777729 578.40459058 -290.44921875 580.49609375 C-289.49982422 582.11016113 -289.49982422 582.11016113 -288.53125 583.75683594 C-285.20387469 589.43695117 -281.92091665 595.14250232 -278.63671875 600.84765625 C-277.4403352 602.92591427 -276.2437283 605.00404373 -275.046875 607.08203125 C-274.4811377 608.06751953 -273.91540039 609.05300781 -273.33251953 610.06835938 C-272.0973024 612.19645909 -270.84401667 614.31412398 -269.57763672 616.42382812 C-268.93584473 617.49697266 -268.29405273 618.57011719 -267.6328125 619.67578125 C-267.04685303 620.64418945 -266.46089355 621.61259766 -265.85717773 622.61035156 C-264.57421875 625.09765625 -264.57421875 625.09765625 -264.57421875 628.09765625 C-263.91421875 628.09765625 -263.25421875 628.09765625 -262.57421875 628.09765625 C-261.06634498 630.69754177 -259.56776414 633.30205822 -258.07421875 635.91015625 C-257.64496094 636.64814453 -257.21570313 637.38613281 -256.7734375 638.14648438 C-256.36738281 638.85869141 -255.96132813 639.57089844 -255.54296875 640.3046875 C-254.97739258 641.28659058 -254.97739258 641.28659058 -254.40039062 642.28833008 C-253.57421875 644.09765625 -253.57421875 644.09765625 -253.57421875 647.09765625 C-252.91421875 647.09765625 -252.25421875 647.09765625 -251.57421875 647.09765625 C-251.21183105 647.74202637 -250.84944336 648.38639648 -250.47607422 649.05029297 C-248.80190512 652.02523234 -247.12557381 654.99894814 -245.44921875 657.97265625 C-244.87945313 658.98585938 -244.3096875 659.9990625 -243.72265625 661.04296875 C-239.70968781 668.15686735 -235.57301109 675.18381088 -231.31835938 682.15551758 C-228.57421875 686.76440472 -228.57421875 686.76440472 -228.57421875 690.09765625 C-227.91421875 690.09765625 -227.25421875 690.09765625 -226.57421875 690.09765625 C-226.13851562 690.92007813 -225.7028125 691.7425 -225.25390625 692.58984375 C-221.89681841 698.88256685 -218.47218091 705.05177316 -214.640625 711.07421875 C-213.57421875 713.09765625 -213.57421875 713.09765625 -213.57421875 716.09765625 C-212.91421875 716.09765625 -212.25421875 716.09765625 -211.57421875 716.09765625 C-210.06634498 718.69754177 -208.56776414 721.30205822 -207.07421875 723.91015625 C-206.64496094 724.64814453 -206.21570313 725.38613281 -205.7734375 726.14648438 C-205.36738281 726.85869141 -204.96132813 727.57089844 -204.54296875 728.3046875 C-203.97739258 729.28659058 -203.97739258 729.28659058 -203.40039062 730.28833008 C-202.57421875 732.09765625 -202.57421875 732.09765625 -202.57421875 735.09765625 C-201.91421875 735.09765625 -201.25421875 735.09765625 -200.57421875 735.09765625 C-199.11359025 737.74504541 -198.57421875 738.99213959 -198.57421875 742.09765625 C-197.91421875 742.09765625 -197.25421875 742.09765625 -196.57421875 742.09765625 C-195.73602717 743.72015566 -194.90380715 745.34574122 -194.07421875 746.97265625 C-193.61015625 747.87757813 -193.14609375 748.7825 -192.66796875 749.71484375 C-191.57421875 752.09765625 -191.57421875 752.09765625 -191.57421875 754.09765625 C-190.91421875 754.09765625 -190.25421875 754.09765625 -189.57421875 754.09765625 C-188.11359025 756.74504541 -187.57421875 757.99213959 -187.57421875 761.09765625 C-186.91421875 761.09765625 -186.25421875 761.09765625 -185.57421875 761.09765625 C-185.19910156 761.78730469 -184.82398438 762.47695313 -184.4375 763.1875 C-181.57388001 768.44588532 -178.70087822 773.69825644 -175.78125 778.92578125 C-174.97900842 780.36929685 -174.18466472 781.81723114 -173.3984375 783.26953125 C-170.49672439 788.60036576 -167.30175078 793.66753368 -163.9296875 798.71484375 C-162.57421875 801.09765625 -162.57421875 801.09765625 -162.57421875 804.09765625 C-161.91421875 804.09765625 -161.25421875 804.09765625 -160.57421875 804.09765625 C-159.11359025 806.74504541 -158.57421875 807.99213959 -158.57421875 811.09765625 C-157.91421875 811.09765625 -157.25421875 811.09765625 -156.57421875 811.09765625 C-156.20296875 811.88140625 -155.83171875 812.66515625 -155.44921875 813.47265625 C-153.49825768 817.42170306 -151.1306809 821.10676364 -148.78125 824.828125 C-147.57421875 827.09765625 -147.57421875 827.09765625 -147.57421875 830.09765625 C-146.91421875 830.09765625 -146.25421875 830.09765625 -145.57421875 830.09765625 C-144.97673828 831.32742188 -144.97673828 831.32742188 -144.3671875 832.58203125 C-143.83738281 833.6596875 -143.30757812 834.73734375 -142.76171875 835.84765625 C-141.97861328 837.44867187 -141.97861328 837.44867187 -141.1796875 839.08203125 C-139.80446265 841.66517866 -138.35841379 843.79749129 -136.57421875 846.09765625 C-135.77643849 847.43612479 -135.00624678 848.79135042 -134.26171875 850.16015625 C-133.82730469 850.95292969 -133.39289062 851.74570312 -132.9453125 852.5625 C-132.03796388 854.24019019 -131.13425836 855.91985628 -130.234375 857.6015625 C-127.11308593 863.40318291 -123.80822538 869.06805147 -120.38818359 874.69677734 C-116.21524216 881.61041455 -112.27979777 888.65696891 -108.35522461 895.71386719 C-105.71174353 900.43768689 -102.98916402 905.06612989 -100.05078125 909.61328125 C-97.16101808 914.09724508 -94.55346003 918.67253489 -92.03515625 923.37353516 C-89.6169452 927.88262589 -87.09179499 932.33101323 -84.57421875 936.78515625 C-83.75304565 938.24163574 -83.75304565 938.24163574 -82.9152832 939.72753906 C-79.8637643 945.1208411 -76.76922875 950.48507932 -73.6171875 955.8203125 C-72.97330078 956.91190674 -72.32941406 958.00350098 -71.66601562 959.12817383 C-70.41406604 961.24477116 -69.15641042 963.35800566 -67.89257812 965.4675293 C-67.32732422 966.42312744 -66.76207031 967.37872559 -66.1796875 968.36328125 C-65.67590576 969.20665039 -65.17212402 970.05001953 -64.65307617 970.91894531 C-63.57421875 973.09765625 -63.57421875 973.09765625 -63.57421875 976.09765625 C-62.91421875 976.09765625 -62.25421875 976.09765625 -61.57421875 976.09765625 C-61.06375 977.02155151 -61.06375 977.02155151 -60.54296875 977.96411133 C-52.93467008 991.70735961 -45.15823233 1005.32294094 -37.08203125 1018.79614258 C-33.52415514 1024.74423979 -30.08468505 1030.72865415 -26.81835938 1036.84228516 C-25.52209144 1039.26663803 -25.52209144 1039.26663803 -23.57421875 1042.09765625 C-23.57421875 1043.08765625 -23.57421875 1044.07765625 -23.57421875 1045.09765625 C-22.91421875 1045.09765625 -22.25421875 1045.09765625 -21.57421875 1045.09765625 C-20.11359025 1047.74504541 -19.57421875 1048.99213959 -19.57421875 1052.09765625 C-18.91421875 1052.09765625 -18.25421875 1052.09765625 -17.57421875 1052.09765625 C-17.20296875 1052.88140625 -16.83171875 1053.66515625 -16.44921875 1054.47265625 C-14.49825768 1058.42170306 -12.1306809 1062.10676364 -9.78125 1065.828125 C-8.57421875 1068.09765625 -8.57421875 1068.09765625 -8.57421875 1071.09765625 C-7.91421875 1071.09765625 -7.25421875 1071.09765625 -6.57421875 1071.09765625 C-5.97673828 1072.32742188 -5.97673828 1072.32742188 -5.3671875 1073.58203125 C-4.83738281 1074.6596875 -4.30757812 1075.73734375 -3.76171875 1076.84765625 C-2.97861328 1078.44867187 -2.97861328 1078.44867187 -2.1796875 1080.08203125 C-0.70404775 1083.05610816 -0.70404775 1083.05610816 1.125 1085.30078125 C2.42578125 1087.09765625 2.42578125 1087.09765625 2.42578125 1090.09765625 C3.08578125 1090.09765625 3.74578125 1090.09765625 4.42578125 1090.09765625 C4.82410156 1090.90589844 5.22242188 1091.71414063 5.6328125 1092.546875 C6.16261719 1093.61550781 6.69242188 1094.68414063 7.23828125 1095.78515625 C7.76035156 1096.84089844 8.28242187 1097.89664062 8.8203125 1098.984375 C11.02311299 1103.25598568 13.48660751 1107.22594504 16.23828125 1111.16015625 C18.61582553 1114.68831455 20.56842241 1118.27081455 22.42578125 1122.09765625 C24.62570945 1126.62927919 27.07850288 1130.71060615 29.9375 1134.84765625 C32.08743235 1138.09794768 33.88902894 1141.50748526 35.7265625 1144.94140625 C40.62153569 1154.03367829 45.72427743 1163.01186364 51.07421875 1171.84375 C52.51417766 1174.24506875 53.91909425 1176.66233642 55.30078125 1179.09765625 C55.71070313 1179.81953125 56.120625 1180.54140625 56.54296875 1181.28515625 C57.42578125 1183.09765625 57.42578125 1183.09765625 57.42578125 1185.09765625 C58.08578125 1185.09765625 58.74578125 1185.09765625 59.42578125 1185.09765625 C59.83183594 1185.92523437 60.23789063 1186.7528125 60.65625 1187.60546875 C62.60135664 1191.44415603 64.64774115 1195.21180429 66.73828125 1198.97265625 C67.3727417 1200.11504761 67.3727417 1200.11504761 68.02001953 1201.28051758 C72.99713031 1210.19126579 78.16209333 1218.99248976 83.32421875 1227.796875 C83.85885742 1228.71259277 84.39349609 1229.62831055 84.94433594 1230.57177734 C85.86267178 1232.13754904 86.78891474 1233.69874706 87.72753906 1235.25244141 C90.42578125 1239.77596507 90.42578125 1239.77596507 90.42578125 1243.09765625 C91.08578125 1243.09765625 91.74578125 1243.09765625 92.42578125 1243.09765625 C92.74627441 1243.66871094 93.06676758 1244.23976563 93.39697266 1244.828125 C100.86174634 1258.11526373 108.43478354 1271.33328065 116.13671875 1284.484375 C116.66749023 1285.39364746 117.19826172 1286.30291992 117.74511719 1287.23974609 C118.95008032 1289.28874355 120.16846185 1291.32987273 121.39550781 1293.36572266 C122.03713867 1294.43870605 122.67876953 1295.51168945 123.33984375 1296.6171875 C124.22470459 1298.08248901 124.22470459 1298.08248901 125.12744141 1299.57739258 C126.42578125 1302.09765625 126.42578125 1302.09765625 126.42578125 1305.09765625 C127.08578125 1305.09765625 127.74578125 1305.09765625 128.42578125 1305.09765625 C129.6171875 1306.8984375 129.6171875 1306.8984375 130.98828125 1309.41015625 C133.98146044 1314.61311465 137.54326259 1319.03053868 141.47265625 1323.5546875 C143.42578125 1326.09765625 143.42578125 1326.09765625 144.50390625 1328.859375 C144.808125 1329.59800781 145.11234375 1330.33664062 145.42578125 1331.09765625 C146.41578125 1331.42765625 147.40578125 1331.75765625 148.42578125 1332.09765625 C148.42578125 1332.75765625 148.42578125 1333.41765625 148.42578125 1334.09765625 C149.74578125 1334.75765625 151.06578125 1335.41765625 152.42578125 1336.09765625 C152.42578125 1336.75765625 152.42578125 1337.41765625 152.42578125 1338.09765625 C153.41578125 1338.42765625 154.40578125 1338.75765625 155.42578125 1339.09765625 C157.61328125 1341.03515625 157.61328125 1341.03515625 159.42578125 1343.09765625 C159.42578125 1343.75765625 159.42578125 1344.41765625 159.42578125 1345.09765625 C160.74578125 1345.75765625 162.06578125 1346.41765625 163.42578125 1347.09765625 C163.42578125 1347.75765625 163.42578125 1348.41765625 163.42578125 1349.09765625 C164.12316406 1349.3296875 164.82054687 1349.56171875 165.5390625 1349.80078125 C168.98485466 1351.34882319 171.70182135 1353.48993095 174.61328125 1355.84765625 C181.41487959 1361.21611599 188.27658885 1365.99866759 196.42578125 1369.09765625 C196.42578125 1369.75765625 196.42578125 1370.41765625 196.42578125 1371.09765625 C197.16441406 1371.21753906 197.90304687 1371.33742188 198.6640625 1371.4609375 C201.37317093 1372.08552685 203.2058993 1372.93018171 205.61328125 1374.28515625 C212.58275557 1377.9067562 220.0543908 1380.07668038 227.51318359 1382.45483398 C229.04893268 1382.9709978 230.55484371 1383.57553068 232.046875 1384.20703125 C235.06374619 1385.33650027 237.9867863 1385.73086847 241.17578125 1386.16015625 C247.3220199 1386.9938949 247.3220199 1386.9938949 248.42578125 1388.09765625 C271.88782102 1391.66325345 300.68449861 1392.89581683 323.39453125 1385.36328125 C329.2402509 1383.43785523 335.26348164 1382.11834079 341.23828125 1380.66015625 C349.91692712 1378.52290763 358.52658262 1376.27807107 367.07446289 1373.66699219 C371.46364226 1372.33792596 375.82272298 1371.2952791 380.34765625 1370.5546875 C382.52325868 1370.14198127 382.52325868 1370.14198127 384.828125 1369.0859375 C387.70354353 1367.99198128 390.17656492 1367.69398514 393.23828125 1367.47265625 C394.21410156 1367.39789062 395.18992187 1367.323125 396.1953125 1367.24609375 C396.93136719 1367.19710938 397.66742187 1367.148125 398.42578125 1367.09765625 C398.42578125 1366.43765625 398.42578125 1365.77765625 398.42578125 1365.09765625 C405.89882077 1363.20433774 413.37633614 1361.33950042 420.87890625 1359.56640625 C421.99080322 1359.3029541 423.1027002 1359.03950195 424.24829102 1358.76806641 C426.4667659 1358.24366742 428.68599178 1357.72243401 430.90600586 1357.20458984 C431.93733643 1356.96047363 432.96866699 1356.71635742 434.03125 1356.46484375 C435.41026489 1356.14169189 435.41026489 1356.14169189 436.81713867 1355.81201172 C439.45551301 1355.08951445 441.88919669 1354.11529937 444.42578125 1353.09765625 C446.05230966 1352.65716553 447.68860117 1352.25141707 449.33203125 1351.87890625 C450.24082031 1351.66878906 451.14960937 1351.45867187 452.0859375 1351.2421875 C453.97916667 1350.8125 455.87239583 1350.3828125 457.765625 1349.953125 C458.67441406 1349.74300781 459.58320312 1349.53289062 460.51953125 1349.31640625 C461.75219727 1349.03700195 461.75219727 1349.03700195 463.00976562 1348.75195312 C465.58024622 1348.05582459 467.96251301 1347.10397114 470.42578125 1346.09765625 C472.06294051 1345.72404146 473.70971573 1345.39023024 475.36328125 1345.09765625 C479.20309373 1344.41610475 482.73294574 1343.34867957 486.42578125 1342.09765625 C488.71238502 1341.45438001 491.00453959 1340.83063271 493.30078125 1340.22265625 C493.94426514 1340.05193604 494.58774902 1339.88121582 495.25073242 1339.70532227 C500.06848379 1338.43473847 504.90099734 1337.2288091 509.73828125 1336.03515625 C515.69305539 1334.5644891 521.5717127 1332.92774171 527.42578125 1331.09765625 C533.25396852 1329.30436786 539.14807548 1328.08135194 545.12109375 1326.87890625 C548.06919923 1326.1819546 550.63100646 1325.2357583 553.42578125 1324.09765625 C555.06294051 1323.72404146 556.70971573 1323.39023024 558.36328125 1323.09765625 C562.20309373 1322.41610475 565.73294574 1321.34867957 569.42578125 1320.09765625 C571.71238502 1319.45438001 574.00453959 1318.83063271 576.30078125 1318.22265625 C576.94426514 1318.05193604 577.58774902 1317.88121582 578.25073242 1317.70532227 C583.0684815 1316.43473908 587.90097103 1315.22869624 592.73828125 1314.03515625 C596.9154268 1313.00445126 601.06826351 1311.94510908 605.17578125 1310.66015625 C610.06394486 1309.14030706 615.01849902 1307.94062127 619.98828125 1306.72265625 C627.28213642 1304.93490663 634.48101293 1302.9464674 641.66723633 1300.76879883 C646.24859271 1299.39653865 650.80059107 1298.33657462 655.50390625 1297.4921875 C657.56177332 1297.12885568 657.56177332 1297.12885568 659.92578125 1296.09765625 C663.15741525 1294.80500265 666.40856492 1294.26711462 669.828125 1293.66015625 C672.78595884 1293.01966291 675.56034466 1292.06966437 678.42578125 1291.09765625 C680.62891479 1290.47479504 682.83781265 1289.87211745 685.05078125 1289.28515625 C685.69192871 1289.11483887 686.33307617 1288.94452148 686.99365234 1288.76904297 C691.50303255 1287.57988526 696.02569398 1286.4509404 700.55419922 1285.3371582 C709.28321113 1283.18862281 717.92895839 1280.84334861 726.56005859 1278.33081055 C733.38970395 1276.35694292 740.25922515 1274.61136158 747.16552734 1272.9284668 C753.39585879 1271.39535183 759.53210891 1269.62653423 765.67211914 1267.76806641 C770.22887295 1266.40416245 774.75591842 1265.33479905 779.43359375 1264.4921875 C782.18612391 1263.94707859 784.77195231 1263.00108738 787.42578125 1262.09765625 C789.63843007 1261.58364709 791.85586432 1261.11184229 794.08203125 1260.66015625 C796.50659541 1260.11597363 796.50659541 1260.11597363 799.12109375 1259.18359375 C803.30029284 1257.81028719 807.52996815 1256.7692797 811.80078125 1255.72265625 C812.67621582 1255.50569092 813.55165039 1255.28872559 814.45361328 1255.06518555 C817.90819932 1254.20921798 821.36407201 1253.35853709 824.8203125 1252.50927734 C826.29661156 1252.14625821 827.77269619 1251.7823656 829.24853516 1251.41748047 C831.17946169 1250.94014698 833.1111895 1250.46605819 835.04296875 1249.9921875 C837.13940142 1249.43781905 839.22370866 1248.83147575 841.28076172 1248.14526367 C846.36169525 1246.45280242 851.52077313 1245.04541999 856.67578125 1243.59765625 C858.29806641 1243.13552734 858.29806641 1243.13552734 859.953125 1242.6640625 C865.70364269 1241.04781326 871.41699887 1239.65183533 877.28564453 1238.54345703 C880.08688455 1237.95994525 882.72314532 1237.03181273 885.42578125 1236.09765625 C888.53811156 1235.25470292 891.6689378 1234.48947901 894.80078125 1233.72265625 C896.57820343 1233.285475 898.35554608 1232.84797027 900.1328125 1232.41015625 C901.01791504 1232.19230469 901.90301758 1231.97445313 902.81494141 1231.75 C905.27781268 1231.13462764 907.7333234 1230.49672886 910.1875 1229.84765625 C910.91598145 1229.6573584 911.64446289 1229.46706055 912.39501953 1229.27099609 C914.37660006 1228.75191167 916.35632918 1228.22577447 918.3359375 1227.69921875 C921.42578125 1227.09765625 921.42578125 1227.09765625 924.42578125 1228.09765625 C921.89032229 1237.16248298 919.18311478 1246.07736318 915.79833984 1254.86328125 C913.73031675 1260.2383077 911.81009545 1265.65569065 909.92578125 1271.09765625 C905.90928981 1282.64451802 901.90833472 1294.13947127 896.6953125 1305.2109375 C895.17010261 1308.67903014 893.89640837 1312.22295301 892.61328125 1315.78515625 C890.27656532 1322.22397049 887.46241604 1328.27536439 884.32592773 1334.36010742 C881.82425919 1339.22784456 879.63693679 1344.15890339 877.62890625 1349.25390625 C876.37310581 1352.22216184 874.96077379 1355.06963992 873.50488281 1357.94335938 C871.65899193 1361.62845919 869.92252114 1365.36480841 868.17578125 1369.09765625 C867.81226563 1369.87238281 867.44875 1370.64710937 867.07421875 1371.4453125 C866.19051023 1373.32900699 865.30801611 1375.21327112 864.42578125 1377.09765625 C863.76578125 1377.09765625 863.10578125 1377.09765625 862.42578125 1377.09765625 C862.2548999 1378.17744751 862.2548999 1378.17744751 862.08056641 1379.27905273 C861.39156466 1382.24494579 860.36466647 1384.50465263 858.94921875 1387.1953125 C858.44261719 1388.16275391 857.93601562 1389.13019531 857.4140625 1390.12695312 C856.88167969 1391.12791016 856.34929687 1392.12886719 855.80078125 1393.16015625 C855.29160156 1394.13404297 854.78242187 1395.10792969 854.2578125 1396.11132812 C850.51005785 1403.22642624 846.51349525 1410.17362591 842.42578125 1417.09765625 C841.18776996 1419.21424039 839.95079924 1421.33143349 838.71484375 1423.44921875 C836.85983883 1426.62527195 835.00480146 1429.8013034 833.1484375 1432.9765625 C832.55160156 1433.99878906 831.95476562 1435.02101563 831.33984375 1436.07421875 C830.80311035 1436.99283691 830.26637695 1437.91145508 829.71337891 1438.85791016 C828.91303291 1440.25009335 828.14393552 1441.66134771 827.42578125 1443.09765625 C826.76578125 1443.09765625 826.10578125 1443.09765625 825.42578125 1443.09765625 C825.32265625 1443.83113281 825.21953125 1444.56460937 825.11328125 1445.3203125 C824.35664865 1448.37693626 823.30421756 1450.02622627 821.42578125 1452.53515625 C818.39552608 1456.70019834 815.5589428 1460.93847342 812.80078125 1465.28515625 C810.48358277 1468.92750715 808.16420771 1472.55019826 805.61328125 1476.03515625 C804.05042289 1478.22315795 802.7214036 1480.26758443 801.42578125 1482.59765625 C799.34760709 1486.32316358 797.04233308 1489.72368153 794.42578125 1493.09765625 C793.76578125 1493.09765625 793.10578125 1493.09765625 792.42578125 1493.09765625 C792.19632813 1493.77957031 791.966875 1494.46148438 791.73046875 1495.1640625 C790.10052097 1498.82900496 787.92522992 1501.81961279 785.55078125 1505.03515625 C784.67746875 1506.231102 783.80506335 1507.42771069 782.93359375 1508.625 C782.51110352 1509.2010498 782.08861328 1509.77709961 781.65332031 1510.37060547 C780.45216408 1512.06053769 779.33967106 1513.7878798 778.23046875 1515.5390625 C777.63492187 1516.38339844 777.039375 1517.22773437 776.42578125 1518.09765625 C775.76578125 1518.09765625 775.10578125 1518.09765625 774.42578125 1518.09765625 C774.22082031 1518.76539063 774.01585937 1519.433125 773.8046875 1520.12109375 C771.92021119 1524.18900012 769.22931226 1527.30080862 766.36328125 1530.72265625 C765.48373779 1531.7887915 765.48373779 1531.7887915 764.58642578 1532.87646484 C762.8712891 1534.95446409 761.148954 1537.02632063 759.42578125 1539.09765625 C757.88188434 1540.97082027 756.33989103 1542.84555684 754.80078125 1544.72265625 C754.10597656 1545.56699219 753.41117188 1546.41132812 752.6953125 1547.28125 C750.93626169 1549.46416848 749.20988502 1551.66178747 747.5 1553.8828125 C747.00000488 1554.52976074 746.50000977 1555.17670898 745.98486328 1555.84326172 C745.00245056 1557.11799431 744.02536858 1558.39685665 743.05419922 1559.68017578 C741.89047411 1561.18908435 740.66327145 1562.64862927 739.42578125 1564.09765625 C738.76578125 1564.09765625 738.10578125 1564.09765625 737.42578125 1564.09765625 C737.0237146 1564.98300049 737.0237146 1564.98300049 736.61352539 1565.88623047 C735.41629131 1568.11532529 734.1632693 1569.65640407 732.421875 1571.48046875 C731.84630859 1572.09019531 731.27074219 1572.69992187 730.67773438 1573.328125 C730.07896484 1573.95332031 729.48019531 1574.57851562 728.86328125 1575.22265625 C727.67245798 1576.47333908 726.48356014 1577.72585887 725.296875 1578.98046875 C724.7702124 1579.53105957 724.2435498 1580.08165039 723.70092773 1580.64892578 C722.32340321 1582.08970114 722.32340321 1582.08970114 721.42578125 1584.09765625 C720.76578125 1584.09765625 720.10578125 1584.09765625 719.42578125 1584.09765625 C718.76578125 1585.74765625 718.10578125 1587.39765625 717.42578125 1589.09765625 C716.76578125 1589.09765625 716.10578125 1589.09765625 715.42578125 1589.09765625 C715.09578125 1590.08765625 714.76578125 1591.07765625 714.42578125 1592.09765625 C712.48828125 1594.28515625 712.48828125 1594.28515625 710.42578125 1596.09765625 C709.76578125 1596.09765625 709.10578125 1596.09765625 708.42578125 1596.09765625 C708.17594482 1596.67418945 707.9261084 1597.25072266 707.66870117 1597.84472656 C706.25220093 1600.41228976 704.63656158 1602.09755393 702.5390625 1604.14453125 C701.76498047 1604.90765625 700.99089844 1605.67078125 700.19335938 1606.45703125 C698.9780957 1607.64039063 698.9780957 1607.64039063 697.73828125 1608.84765625 C692.52337312 1613.9478109 687.46428088 1619.03647595 682.82495117 1624.67285156 C682.3632251 1625.14303711 681.90149902 1625.61322266 681.42578125 1626.09765625 C680.76578125 1626.09765625 680.10578125 1626.09765625 679.42578125 1626.09765625 C679.09578125 1627.08765625 678.76578125 1628.07765625 678.42578125 1629.09765625 C676.31640625 1630.96484375 676.31640625 1630.96484375 673.67578125 1632.97265625 C670.00174022 1635.83256319 666.63342714 1638.71180781 663.42578125 1642.09765625 C661.46686795 1644.15476069 659.48168349 1646.13312744 657.42578125 1648.09765625 C656.76578125 1648.09765625 656.10578125 1648.09765625 655.42578125 1648.09765625 C655.42578125 1648.75765625 655.42578125 1649.41765625 655.42578125 1650.09765625 C654.16796875 1651.40234375 654.16796875 1651.40234375 652.30078125 1652.97265625 C651.57246094 1653.59140625 650.84414062 1654.21015625 650.09375 1654.84765625 C649.21332031 1655.59015625 648.33289062 1656.33265625 647.42578125 1657.09765625 C646.33744775 1658.03388612 645.25028042 1658.97147271 644.1640625 1659.91015625 C637.90458891 1665.31384243 631.59877956 1670.64701126 625.171875 1675.8515625 C623.14623506 1677.50838037 621.14150788 1679.17987182 619.1484375 1680.875 C618.60074707 1681.33890137 618.05305664 1681.80280273 617.48876953 1682.28076172 C615.94279247 1683.59268278 614.40096807 1684.90949274 612.859375 1686.2265625 C610.42578125 1688.09765625 610.42578125 1688.09765625 608.42578125 1688.09765625 C608.42578125 1688.75765625 608.42578125 1689.41765625 608.42578125 1690.09765625 C606.39505982 1691.68082738 604.36199628 1693.14835674 602.23828125 1694.59765625 C596.5175037 1698.57508505 590.95998671 1702.70107694 585.51489258 1707.04882812 C581.63819224 1710.09765625 581.63819224 1710.09765625 579.42578125 1710.09765625 C579.42578125 1710.75765625 579.42578125 1711.41765625 579.42578125 1712.09765625 C577.71092251 1713.44306607 575.92303547 1714.69538972 574.11328125 1715.91015625 C572.9283553 1716.71219509 571.74346151 1717.51428144 570.55859375 1718.31640625 C569.90407227 1718.75597656 569.24955078 1719.19554687 568.57519531 1719.6484375 C565.37362895 1721.80705835 562.1926904 1723.99550902 559.0090332 1726.18041992 C542.56418752 1737.46484914 525.8131101 1748.17804356 508.81738281 1758.61132812 C507.24122384 1759.5908765 505.67504642 1760.5866991 504.12011719 1761.59960938 C503.06099121 1762.28700195 503.06099121 1762.28700195 501.98046875 1762.98828125 C501.05596924 1763.59978027 501.05596924 1763.59978027 500.11279297 1764.22363281 C498.42578125 1765.09765625 498.42578125 1765.09765625 495.42578125 1765.09765625 C495.42578125 1765.75765625 495.42578125 1766.41765625 495.42578125 1767.09765625 C494.75675781 1767.41476562 494.08773438 1767.731875 493.3984375 1768.05859375 C486.06286586 1771.62299232 479.07636851 1775.57965739 472.12719727 1779.84521484 C471.43037842 1780.26625488 470.73355957 1780.68729492 470.015625 1781.12109375 C469.39550537 1781.50185059 468.77538574 1781.88260742 468.13647461 1782.27490234 C466.42578125 1783.09765625 466.42578125 1783.09765625 463.42578125 1783.09765625 C463.42578125 1783.75765625 463.42578125 1784.41765625 463.42578125 1785.09765625 C450.79747987 1791.49649749 438.05431031 1797.64845792 425.27490234 1803.73925781 C423.53218453 1804.57014744 421.79015101 1805.40247667 420.04931641 1806.23730469 C412.60854126 1809.80487058 405.13063583 1813.03961273 397.39453125 1815.921875 C394.695572 1816.99080491 392.18107601 1818.187064 389.61328125 1819.53515625 C384.6455617 1822.11642229 379.50140272 1824.01479817 374.25219727 1825.93066406 C370.61737818 1827.26120199 367.06315614 1828.650623 363.55078125 1830.28515625 C359.78791802 1832.02296713 355.9776627 1833.20564798 351.98046875 1834.2890625 C348.68790818 1835.33120323 345.59289786 1836.72197166 342.42578125 1838.09765625 C326.98454665 1844.19419548 311.19373677 1848.9094758 295.27050781 1853.55859375 C289.90326883 1855.12699815 284.551326 1856.69758301 279.26953125 1858.53515625 C274.38542298 1860.16954663 269.44625132 1861.34115681 264.42578125 1862.47265625 C257.66216787 1864.03146478 250.99816316 1865.74698495 244.36328125 1867.78515625 C238.66429855 1869.53127563 233.05090322 1870.85148895 227.13671875 1871.640625 C224.31133408 1872.06505488 224.31133408 1872.06505488 221.1796875 1873.02734375 C216.81613191 1874.27147927 212.43925399 1875.16820663 207.98828125 1876.03515625 C207.11010742 1876.20772949 206.23193359 1876.38030273 205.32714844 1876.55810547 C203.53953191 1876.90830726 201.75161031 1877.25695552 199.96337891 1877.60400391 C197.68266924 1878.04768247 195.40370984 1878.49931642 193.125 1878.953125 C185.5737516 1880.4352231 178.03590191 1881.61785986 170.38769531 1882.45166016 C167.1216693 1882.57462082 167.1216693 1882.57462082 164.42578125 1884.09765625 C160.43471348 1884.90803205 156.39163431 1885.44206653 152.36328125 1886.03515625 C151.15857178 1886.21409424 149.9538623 1886.39303223 148.71264648 1886.57739258 C139.47655423 1887.90356661 130.249118 1888.83992558 120.94311523 1889.50170898 C120.01055908 1889.56817627 119.07800293 1889.63464355 118.1171875 1889.703125 C117.30451416 1889.75621826 116.49184082 1889.80931152 115.65454102 1889.86401367 C113.46693624 1890.03571485 113.46693624 1890.03571485 111.55981445 1890.59106445 C108.57824381 1891.29885064 105.64801838 1891.4169331 102.58984375 1891.59765625 C101.92182739 1891.63794449 101.25381104 1891.67823273 100.56555176 1891.71974182 C98.39416677 1891.84949968 96.22250138 1891.97364571 94.05078125 1892.09765625 C92.5584187 1892.18590899 91.06606847 1892.27437031 89.57373047 1892.36303711 C79.99954456 1892.92527237 70.42345782 1893.41766397 60.83837891 1893.75585938 C57.48740122 1893.88583991 54.62552603 1894.03107466 51.42578125 1895.09765625 C49.87320879 1895.18948383 48.31700372 1895.22556112 46.76171875 1895.22705078 C45.34379028 1895.23177902 45.34379028 1895.23177902 43.8972168 1895.23660278 C42.3644812 1895.23356644 42.3644812 1895.23356644 40.80078125 1895.23046875 C39.21487183 1895.23190384 39.21487183 1895.23190384 37.59692383 1895.23336792 C35.35416606 1895.23404912 33.11140633 1895.23219901 30.86865234 1895.22802734 C27.46707607 1895.22272067 24.06563442 1895.22795228 20.6640625 1895.234375 C18.48046846 1895.23371338 16.29687451 1895.23243048 14.11328125 1895.23046875 C13.10765137 1895.23249298 12.10202148 1895.23451721 11.06591797 1895.23660278 C5.37580245 1895.21812148 -0.20215086 1894.91293429 -5.86312866 1894.34689331 C-10.38062156 1893.93158928 -14.90532429 1893.77090023 -19.4375 1893.59765625 C-20.43194626 1893.55705078 -21.42639252 1893.51644531 -22.45097351 1893.47460938 C-25.5961238 1893.34636487 -28.74139777 1893.22163841 -31.88671875 1893.09765625 C-68.4732859 1891.64812268 -68.4732859 1891.64812268 -71.57421875 1890.09765625 C-73.13871651 1889.91149759 -74.70945618 1889.77646972 -76.28125 1889.66796875 C-77.24973877 1889.59650635 -78.21822754 1889.52504395 -79.21606445 1889.45141602 C-80.26238037 1889.37592529 -81.30869629 1889.30043457 -82.38671875 1889.22265625 C-93.87323784 1888.32890736 -105.19651946 1886.88542277 -116.57421875 1885.09765625 C-117.41388184 1884.96713867 -118.25354492 1884.83662109 -119.11865234 1884.70214844 C-123.16528753 1884.07261978 -127.21039078 1883.4344173 -131.25390625 1882.78515625 C-136.0030262 1882.02395869 -140.75988107 1881.31719289 -145.51953125 1880.625 C-147.92248536 1880.21016777 -150.26872623 1879.73065147 -152.64453125 1879.19140625 C-158.50886228 1877.86283575 -164.41619743 1876.77466761 -170.32421875 1875.66015625 C-183.1868543 1873.20349909 -195.818373 1870.32716606 -208.46704102 1866.94018555 C-214.50759507 1865.3367948 -220.55754235 1863.97803969 -226.69140625 1862.7734375 C-229.57421875 1862.09765625 -229.57421875 1862.09765625 -231.86328125 1861.171875 C-235.83331807 1859.59873361 -239.93851711 1858.64266509 -244.07421875 1857.59765625 C-249.04979482 1856.34042799 -253.82484835 1855.06465213 -258.57421875 1853.09765625 C-260.16957097 1852.68677062 -261.77413239 1852.30961459 -263.38671875 1851.97265625 C-264.17691406 1851.80507812 -264.96710937 1851.6375 -265.78125 1851.46484375 C-266.37292969 1851.34367187 -266.96460938 1851.2225 -267.57421875 1851.09765625 C-267.57421875 1850.43765625 -267.57421875 1849.77765625 -267.57421875 1849.09765625 C-268.65832031 1849.01257812 -269.74242187 1848.9275 -270.859375 1848.83984375 C-276.51488744 1848.13057156 -281.67808731 1846.16152683 -287.01171875 1844.22265625 C-288.98940647 1843.5164316 -290.9672688 1842.81069573 -292.9453125 1842.10546875 C-293.90139404 1841.76177246 -294.85747559 1841.41807617 -295.8425293 1841.06396484 C-298.27988957 1840.20177234 -300.72538195 1839.38230408 -303.18359375 1838.58203125 C-307.99874065 1836.99225135 -312.68825255 1835.12607441 -317.38671875 1833.22265625 C-318.70482544 1832.69212646 -318.70482544 1832.69212646 -320.04956055 1832.15087891 C-325.60400717 1829.91026642 -331.14027909 1827.62925549 -336.66015625 1825.3046875 C-339.45454081 1824.14722794 -342.26334347 1823.03111077 -345.07763672 1821.9230957 C-351.45235849 1819.40845224 -357.7007831 1816.72246516 -363.90625 1813.80859375 C-368.5635494 1811.62362247 -373.25756144 1809.52005693 -377.94921875 1807.41015625 C-378.79379639 1807.02947998 -379.63837402 1806.64880371 -380.50854492 1806.2565918 C-385.17803716 1804.15663883 -389.86135027 1802.0984023 -394.57421875 1800.09765625 C-394.57421875 1799.43765625 -394.57421875 1798.77765625 -394.57421875 1798.09765625 C-395.68410156 1797.91009766 -395.68410156 1797.91009766 -396.81640625 1797.71875 C-399.4277089 1797.13065209 -401.33582147 1796.38546001 -403.69921875 1795.16015625 C-404.56417969 1794.71414063 -405.42914062 1794.268125 -406.3203125 1793.80859375 C-407.39410156 1793.24398438 -408.46789062 1792.679375 -409.57421875 1792.09765625 C-411.02341636 1791.33980332 -412.47263695 1790.58199435 -413.921875 1789.82421875 C-418.02409595 1787.67485526 -422.11970113 1785.51318576 -426.21289062 1783.34667969 C-428.37877761 1782.20103475 -430.54657923 1781.05910504 -432.71484375 1779.91796875 C-433.9805908 1779.24892876 -435.24622296 1778.57967136 -436.51171875 1777.91015625 C-437.59324219 1777.33910156 -438.67476562 1776.76804687 -439.7890625 1776.1796875 C-444.05129047 1773.8729224 -448.22001033 1771.40587597 -452.40063477 1768.95532227 C-455.4518117 1767.16930755 -458.51134989 1765.39868472 -461.57421875 1763.6328125 C-480.63594224 1752.61433981 -480.63594224 1752.61433981 -489.0625 1746.8203125 C-491.69553208 1745.01445379 -494.3734812 1743.30037795 -497.07421875 1741.59765625 C-501.95861728 1738.5098181 -506.76423998 1735.31536448 -511.55859375 1732.08984375 C-515.51083702 1729.47890584 -519.54147812 1727.00172189 -523.58984375 1724.54296875 C-524.2446875 1724.06601563 -524.89953125 1723.5890625 -525.57421875 1723.09765625 C-525.57421875 1722.43765625 -525.57421875 1721.77765625 -525.57421875 1721.09765625 C-526.28964844 1720.83984375 -527.00507812 1720.58203125 -527.7421875 1720.31640625 C-530.74581986 1719.0238086 -533.20927247 1717.46988535 -535.88671875 1715.59765625 C-537.21123047 1714.685 -537.21123047 1714.685 -538.5625 1713.75390625 C-539.22636719 1713.20734375 -539.89023437 1712.66078125 -540.57421875 1712.09765625 C-540.57421875 1711.43765625 -540.57421875 1710.77765625 -540.57421875 1710.09765625 C-541.28964844 1709.83984375 -542.00507812 1709.58203125 -542.7421875 1709.31640625 C-545.74581986 1708.0238086 -548.20927247 1706.46988535 -550.88671875 1704.59765625 C-552.21123047 1703.685 -552.21123047 1703.685 -553.5625 1702.75390625 C-554.22636719 1702.20734375 -554.89023437 1701.66078125 -555.57421875 1701.09765625 C-555.57421875 1700.43765625 -555.57421875 1699.77765625 -555.57421875 1699.09765625 C-556.60289062 1698.77861328 -556.60289062 1698.77861328 -557.65234375 1698.453125 C-561.46984388 1696.6821724 -564.20578421 1694.19845365 -567.32421875 1691.41015625 C-568.57030473 1690.3188151 -569.81769893 1689.22896584 -571.06640625 1688.140625 C-571.66807617 1687.6151709 -572.26974609 1687.0897168 -572.88964844 1686.54833984 C-577.05890601 1682.95794441 -581.44411485 1679.64063908 -585.8984375 1676.4140625 C-586.63707031 1675.87652344 -587.37570312 1675.33898438 -588.13671875 1674.78515625 C-588.79800781 1674.31464844 -589.45929688 1673.84414062 -590.140625 1673.359375 C-590.61371094 1672.94300781 -591.08679688 1672.52664063 -591.57421875 1672.09765625 C-591.57421875 1671.43765625 -591.57421875 1670.77765625 -591.57421875 1670.09765625 C-592.13109375 1669.85015625 -592.68796875 1669.60265625 -593.26171875 1669.34765625 C-595.99832788 1667.86840807 -598.25072744 1666.16298186 -600.57421875 1664.09765625 C-600.57421875 1663.43765625 -600.57421875 1662.77765625 -600.57421875 1662.09765625 C-601.17234375 1661.80890625 -601.77046875 1661.52015625 -602.38671875 1661.22265625 C-604.57421875 1660.09765625 -604.57421875 1660.09765625 -607.57421875 1658.09765625 C-607.57421875 1657.43765625 -607.57421875 1656.77765625 -607.57421875 1656.09765625 C-608.13109375 1655.85015625 -608.68796875 1655.60265625 -609.26171875 1655.34765625 C-611.99832788 1653.86840807 -614.25072744 1652.16298186 -616.57421875 1650.09765625 C-616.57421875 1649.43765625 -616.57421875 1648.77765625 -616.57421875 1648.09765625 C-617.56421875 1648.09765625 -618.55421875 1648.09765625 -619.57421875 1648.09765625 C-620.8984375 1646.8125 -620.8984375 1646.8125 -622.26171875 1645.03515625 C-625.12712042 1641.50354869 -628.27230032 1638.60499567 -631.7421875 1635.67578125 C-633.44709559 1634.20716106 -635.08018864 1632.78133104 -636.57421875 1631.09765625 C-636.57421875 1630.43765625 -636.57421875 1629.77765625 -636.57421875 1629.09765625 C-637.38294434 1628.77571289 -637.38294434 1628.77571289 -638.20800781 1628.44726562 C-641.42491707 1626.61244574 -643.8456113 1624.11180007 -646.43359375 1621.50390625 C-646.98283508 1620.95657837 -647.53207642 1620.40925049 -648.09796143 1619.84533691 C-649.25347734 1618.69117845 -650.4064856 1617.53450458 -651.55712891 1616.37548828 C-653.32495375 1614.59691679 -655.10324005 1612.82930862 -656.8828125 1611.0625 C-658.00454846 1609.93944317 -659.12566426 1608.81576649 -660.24609375 1607.69140625 C-660.78039001 1607.16115845 -661.31468628 1606.63091064 -661.86517334 1606.08459473 C-665.57421875 1602.32759479 -665.57421875 1602.32759479 -665.57421875 1600.09765625 C-666.89421875 1599.43765625 -668.21421875 1598.77765625 -669.57421875 1598.09765625 C-669.57421875 1597.43765625 -669.57421875 1596.77765625 -669.57421875 1596.09765625 C-670.56421875 1595.76765625 -671.55421875 1595.43765625 -672.57421875 1595.09765625 C-674.36328125 1593.35546875 -674.36328125 1593.35546875 -676.19921875 1591.22265625 C-676.81023437 1590.52398438 -677.42125 1589.8253125 -678.05078125 1589.10546875 C-679.57421875 1587.09765625 -679.57421875 1587.09765625 -680.57421875 1584.09765625 C-681.23421875 1584.09765625 -681.89421875 1584.09765625 -682.57421875 1584.09765625 C-684.08984375 1582.59375 -684.08984375 1582.59375 -685.82421875 1580.53515625 C-686.43910156 1579.80941406 -687.05398438 1579.08367187 -687.6875 1578.3359375 C-688.31011719 1577.59730469 -688.93273437 1576.85867188 -689.57421875 1576.09765625 C-690.16589844 1575.43121094 -690.75757813 1574.76476563 -691.3671875 1574.078125 C-691.90988281 1573.46582031 -692.45257812 1572.85351562 -693.01171875 1572.22265625 C-693.50542969 1571.66835937 -693.99914062 1571.1140625 -694.5078125 1570.54296875 C-695.57421875 1569.09765625 -695.57421875 1569.09765625 -695.57421875 1567.09765625 C-696.56421875 1566.76765625 -697.55421875 1566.43765625 -698.57421875 1566.09765625 C-699.92831195 1564.11165288 -701.25879499 1562.10948082 -702.57421875 1560.09765625 C-703.33992187 1559.3396875 -704.105625 1558.58171875 -704.89453125 1557.80078125 C-708.24838546 1554.41759304 -710.99037215 1550.73089964 -713.82421875 1546.9140625 C-716.50845402 1543.34906253 -719.38517096 1540.23468042 -722.57421875 1537.09765625 C-723.71140621 1535.72859109 -724.82018788 1534.3349533 -725.88671875 1532.91015625 C-726.39847656 1532.23597656 -726.91023437 1531.56179688 -727.4375 1530.8671875 C-728.57421875 1529.09765625 -728.57421875 1529.09765625 -728.57421875 1527.09765625 C-729.23421875 1527.09765625 -729.89421875 1527.09765625 -730.57421875 1527.09765625 C-730.90421875 1525.77765625 -731.23421875 1524.45765625 -731.57421875 1523.09765625 C-732.23421875 1523.09765625 -732.89421875 1523.09765625 -733.57421875 1523.09765625 C-735.02734375 1521.359375 -735.02734375 1521.359375 -736.82421875 1518.78515625 C-737.52675781 1517.79386719 -738.22929688 1516.80257813 -738.953125 1515.78125 C-739.35805176 1515.20874512 -739.76297852 1514.63624023 -740.18017578 1514.04638672 C-742.99406877 1510.11285015 -745.88547954 1506.23569651 -748.76171875 1502.34765625 C-760.09813594 1487.0115075 -760.09813594 1487.0115075 -763.43359375 1481.015625 C-765.28745745 1477.8983405 -767.42441297 1474.98568673 -769.51953125 1472.02734375 C-787.37716228 1446.56494209 -787.37716228 1446.56494209 -790.57421875 1436.09765625 C-791.23421875 1436.09765625 -791.89421875 1436.09765625 -792.57421875 1436.09765625 C-794.78360325 1432.16074522 -796.99152878 1428.22301773 -799.19921875 1424.28515625 C-799.81667969 1423.18494141 -800.43414063 1422.08472656 -801.0703125 1420.95117188 C-804.00793834 1415.70982893 -806.92859389 1410.46146883 -809.79296875 1405.1796875 C-812.47724425 1400.23905797 -815.33328214 1395.43339614 -818.25390625 1390.62890625 C-819.57421875 1388.09765625 -819.57421875 1388.09765625 -819.57421875 1385.09765625 C-820.23421875 1385.09765625 -820.89421875 1385.09765625 -821.57421875 1385.09765625 C-822.90785094 1382.28529762 -824.241189 1379.47280044 -825.57421875 1376.66015625 C-825.97850098 1375.80719971 -826.3827832 1374.95424316 -826.79931641 1374.07543945 C-829.85443859 1367.62606818 -832.89638935 1361.17060581 -835.921875 1354.70727539 C-836.22738281 1354.05621826 -836.53289062 1353.40516113 -836.84765625 1352.734375 C-837.13608398 1352.11868652 -837.42451172 1351.50299805 -837.72167969 1350.86865234 C-838.54333121 1349.16181955 -839.42114152 1347.48237143 -840.30078125 1345.8046875 C-841.57421875 1343.09765625 -841.57421875 1343.09765625 -841.57421875 1340.09765625 C-842.23421875 1340.09765625 -842.89421875 1340.09765625 -843.57421875 1340.09765625 C-846.79385807 1332.34706756 -849.98868941 1324.58797004 -853.08984375 1316.7890625 C-853.52184082 1315.70294678 -853.95383789 1314.61683105 -854.39892578 1313.49780273 C-855.24602822 1311.3641416 -856.09086939 1309.22958088 -856.93310547 1307.09399414 C-858.89701456 1302.14780874 -860.9305484 1297.27125956 -863.18359375 1292.44921875 C-865.45711236 1287.51661404 -867.16469742 1282.55131236 -868.69921875 1277.34765625 C-870.67925878 1270.70059058 -870.67925878 1270.70059058 -873.25390625 1264.26953125 C-874.57421875 1261.09765625 -874.57421875 1261.09765625 -874.57421875 1257.09765625 C-875.23421875 1257.09765625 -875.89421875 1257.09765625 -876.57421875 1257.09765625 C-876.75597656 1256.40800781 -876.93773437 1255.71835938 -877.125 1255.0078125 C-878.51494094 1249.81157176 -880.0106189 1244.69935268 -881.7578125 1239.61328125 C-882.78633357 1236.44405843 -883.67648282 1233.24379419 -884.57421875 1230.03515625 C-885.82661052 1225.59226074 -887.18459839 1221.28426534 -888.86328125 1216.98828125 C-891.41753249 1210.19565707 -893.09935016 1203.12522942 -894.81445312 1196.08544922 C-895.87624098 1191.76875264 -897.01293529 1187.48024438 -898.2109375 1183.19921875 C-901.96523482 1169.73386068 -905.05431611 1156.31349404 -907.53125 1142.5546875 C-908.30746921 1138.31097284 -909.32270214 1134.23021518 -910.57421875 1130.09765625 C-912.63731066 1121.78339587 -913.96250891 1113.56718932 -914.875 1105.06494141 C-915.34024542 1100.81085359 -916.02871328 1096.76679219 -917.0703125 1092.625 C-917.9761304 1088.08186681 -918.39613137 1083.46431834 -918.87695312 1078.859375 C-919.24230241 1074.85134759 -919.24230241 1074.85134759 -920.57421875 1071.09765625 C-920.8442258 1069.10813061 -921.06324896 1067.11159581 -921.2578125 1065.11328125 C-921.37979004 1063.87916504 -921.50176758 1062.64504883 -921.62744141 1061.37353516 C-921.75579962 1060.03160091 -921.88388582 1058.68964063 -922.01171875 1057.34765625 C-922.14483002 1055.97312617 -922.27813223 1054.59861456 -922.41162109 1053.22412109 C-922.67874728 1050.46507526 -922.94310265 1047.70578212 -923.20556641 1044.94628906 C-923.52136799 1041.64940419 -923.84767925 1038.35387428 -924.1796875 1035.05859375 C-925.23118591 1024.3903858 -925.8960565 1013.75364775 -926.23291016 1003.03759766 C-926.26433105 1002.08804199 -926.29575195 1001.13848633 -926.328125 1000.16015625 C-926.35205322 999.32613281 -926.37598145 998.49210937 -926.40063477 997.6328125 C-926.52611947 995.06472511 -926.52611947 995.06472511 -927.07698059 992.44430542 C-927.64570349 988.61652996 -927.71427513 984.87490573 -927.70361328 981.01611328 C-927.7053656 980.22829468 -927.70711792 979.44047607 -927.70892334 978.62878418 C-927.71330605 976.03765628 -927.71041592 973.44659728 -927.70703125 970.85546875 C-927.70770545 969.04474881 -927.70867645 967.23402896 -927.70993042 965.42330933 C-927.71140266 961.63229509 -927.70926855 957.84130446 -927.70458984 954.05029297 C-927.69890102 949.20625993 -927.70216921 944.36228241 -927.70816231 939.51825142 C-927.71178767 935.77948595 -927.71062013 932.04073349 -927.70803452 928.30196762 C-927.70737029 926.51670195 -927.70817595 924.73143507 -927.71051407 922.94617081 C-927.71307218 920.44341181 -927.70915542 917.94074078 -927.70361328 915.43798828 C-927.70563751 914.7094162 -927.70766174 913.98084412 -927.70974731 913.23019409 C-927.69022763 908.43797291 -927.22235693 903.84635454 -926.57421875 899.09765625 C-926.41563944 896.57447224 -926.28506265 894.04940287 -926.1796875 891.5234375 C-926.11327505 890.05310829 -926.04610233 888.58281328 -925.97827148 887.11254883 C-925.94337616 886.34617096 -925.90848083 885.57979309 -925.87252808 884.79019165 C-925.19679742 870.27640534 -924.0963877 855.85335325 -922.51171875 841.41015625 C-922.3797963 840.19279282 -922.3797963 840.19279282 -922.24520874 838.95083618 C-920.77439097 825.49800069 -920.77439097 825.49800069 -919.57421875 823.09765625 C-919.31846869 821.34124972 -919.11012465 819.57782985 -918.92578125 817.8125 C-918.80912109 816.73266846 -918.69246094 815.65283691 -918.57226562 814.5402832 C-918.44916016 813.38359131 -918.32605469 812.22689941 -918.19921875 811.03515625 C-917.04415026 800.62460363 -915.59747966 790.37202804 -913.57421875 780.09765625 C-913.32671875 778.83050781 -913.07921875 777.56335938 -912.82421875 776.2578125 C-912.32809074 773.75391642 -911.82558496 771.2512748 -911.31640625 768.75 C-910.83260069 766.36916735 -910.35817626 763.98640321 -909.89453125 761.6015625 C-907.70591754 750.37569555 -905.15038138 739.23986682 -902.57421875 728.09765625 C-902.39213867 727.30472168 -902.21005859 726.51178711 -902.02246094 725.69482422 C-899.74231529 715.76910544 -897.25393199 705.92327146 -894.57421875 696.09765625 C-894.30609375 695.08703125 -894.03796875 694.07640625 -893.76171875 693.03515625 C-892.41091212 687.96963139 -890.90348776 683.00552453 -889.203125 678.046875 C-888.46468397 675.75816647 -887.95703537 673.47111929 -887.57421875 671.09765625 C-886.91421875 671.09765625 -886.25421875 671.09765625 -885.57421875 671.09765625 C-885.49171875 669.88078125 -885.40921875 668.66390625 -885.32421875 667.41015625 C-884.4024451 659.06152061 -881.43230373 651.02276085 -878.39404297 643.22753906 C-875.17381313 634.86146251 -872.25788453 626.379758 -869.32421875 617.91015625 C-868.96070313 616.86279297 -868.5971875 615.81542969 -868.22265625 614.73632812 C-867.33912171 612.1903536 -866.45631934 609.64412787 -865.57421875 607.09765625 C-864.91421875 607.09765625 -864.25421875 607.09765625 -863.57421875 607.09765625 C-863.51234375 606.16953125 -863.45046875 605.24140625 -863.38671875 604.28515625 C-862.75110301 599.82689375 -860.89233716 596.10550365 -858.97265625 592.06640625 C-856.07496768 585.91488861 -853.4661189 579.61147888 -851.13671875 573.22265625 C-848.88730632 567.076006 -846.17923842 561.10016111 -843.57421875 555.09765625 C-842.91421875 555.09765625 -842.25421875 555.09765625 -841.57421875 555.09765625 C-841.46078125 554.21464844 -841.34734375 553.33164062 -841.23046875 552.421875 C-840.57950234 549.12442015 -839.64395169 546.86212624 -838.07421875 543.91015625 C-835.35890773 538.67348499 -832.81619611 533.38148148 -830.32421875 528.03515625 C-826.04587573 518.91302624 -821.38357849 510.02048945 -816.64746094 501.12988281 C-814.5489842 497.15633406 -812.54627211 493.13517602 -810.57421875 489.09765625 C-809.91421875 489.09765625 -809.25421875 489.09765625 -808.57421875 489.09765625 C-808.47109375 488.37578125 -808.36796875 487.65390625 -808.26171875 486.91015625 C-807.31396139 483.03296706 -805.3714785 480.27497955 -803.1484375 476.9921875 C-802.62894531 476.22261719 -802.10945313 475.45304687 -801.57421875 474.66015625 C-801.07921875 473.93957031 -800.58421875 473.21898437 -800.07421875 472.4765625 C-798.36673222 469.76859558 -796.99095376 466.96764006 -795.57421875 464.09765625 C-791.78026311 457.30797821 -787.733852 450.68640698 -783.5234375 444.1484375 C-782.05027575 441.84274747 -780.59618626 439.52943579 -779.15625 437.203125 C-775.03002148 430.53773945 -770.8868285 423.92998563 -766.32421875 417.55078125 C-764.34749985 414.77984494 -762.43223567 411.97032439 -760.51171875 409.16015625 C-755.00947552 401.17051548 -749.2080642 393.40075113 -743.43115234 385.60888672 C-741.56146925 383.08041442 -739.70118934 380.54528996 -737.84375 378.0078125 C-722.81745062 357.48910033 -722.81745062 357.48910033 -719.57421875 354.09765625 C-718.91421875 354.09765625 -718.25421875 354.09765625 -717.57421875 354.09765625 C-717.31640625 353.37191406 -717.05859375 352.64617187 -716.79296875 351.8984375 C-715.52179376 348.97717958 -714.03405473 346.78892976 -712.07421875 344.28515625 C-711.46578125 343.49496094 -710.85734375 342.70476562 -710.23046875 341.890625 C-709.68390625 341.29894531 -709.13734375 340.70726562 -708.57421875 340.09765625 C-707.91421875 340.09765625 -707.25421875 340.09765625 -706.57421875 340.09765625 C-705.91421875 338.44765625 -705.25421875 336.79765625 -704.57421875 335.09765625 C-703.91421875 335.09765625 -703.25421875 335.09765625 -702.57421875 335.09765625 C-702.35765625 334.56140625 -702.14109375 334.02515625 -701.91796875 333.47265625 C-700.09434793 330.24951247 -697.61770911 327.75430533 -695.07421875 325.09765625 C-689.96017377 319.68136826 -685.18596112 314.08289387 -680.53515625 308.265625 C-679.88804687 307.55019531 -679.2409375 306.83476562 -678.57421875 306.09765625 C-677.91421875 306.09765625 -677.25421875 306.09765625 -676.57421875 306.09765625 C-676.23390625 305.29328125 -676.23390625 305.29328125 -675.88671875 304.47265625 C-673.06974753 299.37527975 -668.84120275 295.01866858 -664.57421875 291.09765625 C-663.91421875 291.09765625 -663.25421875 291.09765625 -662.57421875 291.09765625 C-662.37094971 290.56914062 -662.16768066 290.040625 -661.95825195 289.49609375 C-659.96656137 286.04462642 -657.25251302 283.51089539 -654.4296875 280.72265625 C-653.82288651 280.11631348 -653.21608551 279.5099707 -652.59089661 278.88525391 C-651.30799861 277.60537236 -650.02267567 276.32791751 -648.73510742 275.05273438 C-646.77403086 273.10985412 -644.82101486 271.15915172 -642.86914062 269.20703125 C-641.61895918 267.96176795 -640.3683228 266.71696119 -639.1171875 265.47265625 C-638.53680222 264.89338379 -637.95641693 264.31411133 -637.35844421 263.71728516 C-628.63834918 255.09765625 -628.63834918 255.09765625 -625.57421875 255.09765625 C-625.24421875 254.10765625 -624.91421875 253.11765625 -624.57421875 252.09765625 C-623.13381902 250.85367467 -621.68774089 249.61465219 -620.1953125 248.43359375 C-618.32435951 246.9404826 -618.32435951 246.9404826 -615.88671875 244.34765625 C-613.57421875 242.09765625 -613.57421875 242.09765625 -610.57421875 241.09765625 C-610.24421875 240.10765625 -609.91421875 239.11765625 -609.57421875 238.09765625 C-604.54916158 232.7834862 -598.2985331 228.58687008 -592.40625 224.30859375 C-589.5518147 222.08016564 -587.11078512 219.67788808 -584.57421875 217.09765625 C-574.99699029 208.56024116 -564.83386429 200.78833292 -554.57421875 193.09765625 C-553.85218262 192.55415527 -553.13014648 192.0106543 -552.38623047 191.45068359 C-550.30773912 189.889113 -548.22362432 188.33545803 -546.13671875 186.78515625 C-545.5039502 186.31078125 -544.87118164 185.83640625 -544.21923828 185.34765625 C-539.8066069 182.09765625 -539.8066069 182.09765625 -537.57421875 182.09765625 C-537.24421875 181.10765625 -536.91421875 180.11765625 -536.57421875 179.09765625 C-534.9296875 177.7734375 -534.9296875 177.7734375 -532.76171875 176.41015625 C-531.94316406 175.88550781 -531.12460937 175.36085937 -530.28125 174.8203125 C-528.94126953 173.96759766 -528.94126953 173.96759766 -527.57421875 173.09765625 C-525.69633882 171.85198697 -523.82148588 170.60174587 -521.94921875 169.34765625 C-518.6328125 167.13671875 -515.31640625 164.92578125 -512 162.71484375 C-511.38753418 162.30637207 -510.77506836 161.89790039 -510.14404297 161.47705078 C-508.8897607 160.64118797 -507.63487782 159.80622574 -506.37939453 158.97216797 C-503.03499473 156.74857549 -499.70430855 154.50744248 -496.390625 152.23828125 C-495.36932495 151.54387939 -495.36932495 151.54387939 -494.32739258 150.83544922 C-493.01740887 149.94424519 -491.71107926 149.04763999 -490.40893555 148.14501953 C-485.91158744 145.09765625 -485.91158744 145.09765625 -482.57421875 145.09765625 C-482.57421875 144.43765625 -482.57421875 143.77765625 -482.57421875 143.09765625 C-481.91502441 142.7428418 -481.25583008 142.38802734 -480.57666016 142.02246094 C-473.62348276 138.25783824 -466.76936642 134.3474421 -459.94921875 130.34765625 C-458.90668945 129.73857422 -457.86416016 129.12949219 -456.79003906 128.50195312 C-452.07050815 125.74248562 -447.35687784 122.97391119 -442.66015625 120.17578125 C-435.78620761 116.08421714 -428.93260451 112.14559544 -421.7265625 108.65625 C-417.81568181 106.72261754 -413.98126494 104.65914453 -410.13671875 102.59765625 C-404.19558142 99.42839608 -398.21148218 96.45524314 -392.0703125 93.6875 C-388.59739133 92.10819395 -385.15418743 90.47593155 -381.7121582 88.83081055 C-346.68594972 72.09765625 -346.68594972 72.09765625 -340.57421875 72.09765625 C-340.57421875 71.43765625 -340.57421875 70.77765625 -340.57421875 70.09765625 C-330.93282212 66.42153714 -321.25317623 62.8910779 -311.49121094 59.54663086 C-306.75646111 57.91219675 -302.17834958 56.07695236 -297.57421875 54.09765625 C-295.12511201 53.2375845 -292.66636587 52.40452198 -290.19921875 51.59765625 C-289.5429248 51.38189941 -288.88663086 51.16614258 -288.21044922 50.94384766 C-286.33235799 50.3264628 -284.45331477 49.7119761 -282.57421875 49.09765625 C-280.9487413 48.55742404 -279.32364586 48.01603856 -277.69921875 47.47265625 C-277.00054688 47.240625 -276.301875 47.00859375 -275.58203125 46.76953125 C-274.26221008 46.32787903 -272.94440997 45.88013193 -271.62890625 45.42578125 C-265.90524897 43.46711526 -260.11088648 41.76752459 -254.30249023 40.08129883 C-249.90865013 38.80090149 -245.53959968 37.46186916 -241.18139648 36.06518555 C-235.432524 34.22348705 -229.75522182 32.53533004 -223.78515625 31.5546875 C-221.47464044 31.12446461 -221.47464044 31.12446461 -218.9296875 30.19921875 C-214.51419355 28.74966195 -210.03535741 27.71472698 -205.51171875 26.66015625 C-204.58085449 26.44133789 -203.64999023 26.22251953 -202.69091797 25.99707031 C-200.83541333 25.5614273 -198.97962509 25.1269902 -197.12353516 24.69384766 C-194.93259013 24.18146614 -192.74326321 23.66300808 -190.5546875 23.140625 C-185.23037774 21.88237717 -179.99478423 20.85653542 -174.57421875 20.09765625 C-172.96369242 19.61449835 -171.35333703 19.13068802 -169.74609375 18.63671875 C-165.64823536 17.6196244 -161.44828219 17.13838709 -157.26953125 16.5625 C-154.66428051 16.37993253 -154.66428051 16.37993253 -153.57421875 15.09765625 C-151.24671102 14.74437383 -148.91160533 14.44073539 -146.57421875 14.16015625 C-142.40490962 13.64155151 -138.28010403 13.12191006 -134.19921875 12.09765625 C-129.21052867 10.885982 -124.13809104 10.40513094 -119.03955078 9.8828125 C-115.24823113 9.47821579 -111.57486803 8.91140072 -107.84765625 8.1015625 C-101.81898984 6.84904858 -95.77099073 6.45036595 -89.63671875 6.03515625 C-87.41903034 5.88102627 -85.20156586 5.72362919 -82.984375 5.5625 C-82.01636963 5.49667725 -81.04836426 5.43085449 -80.05102539 5.36303711 C-77.44403106 5.17279289 -77.44403106 5.17279289 -74.57421875 4.09765625 C-72.36281458 3.89028648 -70.14680475 3.73070407 -67.9296875 3.59765625 C-66.61291016 3.51515625 -65.29613281 3.43265625 -63.93945312 3.34765625 C-62.5468978 3.2639427 -61.15431937 3.1806128 -59.76171875 3.09765625 C-57.70357959 2.97410516 -55.64555273 2.84930687 -53.58772278 2.72070312 C-51.7125664 2.60361203 -49.83712357 2.49113536 -47.96166992 2.37890625 C-44.68087439 2.16099507 -44.68087439 2.16099507 -41.90322876 1.61485291 C-37.90780247 0.99412148 -33.95791107 0.74215012 -29.92260742 0.54125977 C-29.09167415 0.49907853 -28.26074087 0.4568973 -27.4046278 0.41343784 C-18.26914014 -0.01445686 -9.14345568 -0.02878656 0 0 Z " fill="#F8F2EB" transform="translate(998.57421875,50.90234375)"/>
<path d="M0 0 C0.960271 0.12213867 1.92054199 0.24427734 2.90991211 0.37011719 C8.00346202 1.06250547 12.75684376 2.07025306 17.6875 3.5625 C19.12029376 3.88071094 20.55539508 4.18864195 21.9921875 4.48828125 C27.04375841 5.58816836 31.91203842 7.11226328 36.8125 8.75 C37.72539795 9.05462158 38.6382959 9.35924316 39.57885742 9.6730957 C47.59235547 12.41265106 55.12663648 15.75378571 62.6875 19.5625 C64.02167969 20.21992187 64.02167969 20.21992187 65.3828125 20.890625 C67.15734778 21.76861806 68.92391583 22.66271216 70.6875 23.5625 C70.6875 24.2225 70.6875 24.8825 70.6875 25.5625 C71.39648438 25.65402344 72.10546875 25.74554687 72.8359375 25.83984375 C76.23931371 26.7023432 78.42326745 28.13524551 81.3125 30.125 C82.88837891 31.20974609 82.88837891 31.20974609 84.49609375 32.31640625 C85.54925781 33.05761719 86.60242187 33.79882812 87.6875 34.5625 C88.64785156 35.23152344 89.60820313 35.90054688 90.59765625 36.58984375 C95.96589359 40.40272681 100.97302826 44.43260144 105.8125 48.8984375 C107.78929743 50.72961782 107.78929743 50.72961782 110.6875 52.5625 C110.6875 53.2225 110.6875 53.8825 110.6875 54.5625 C112.0075 55.2225 113.3275 55.8825 114.6875 56.5625 C114.6875 57.2225 114.6875 57.8825 114.6875 58.5625 C116.0075 59.2225 117.3275 59.8825 118.6875 60.5625 C118.6875 61.2225 118.6875 61.8825 118.6875 62.5625 C119.6775 62.8925 120.6675 63.2225 121.6875 63.5625 C121.6875 64.2225 121.6875 64.8825 121.6875 65.5625 C122.6775 65.8925 123.6675 66.2225 124.6875 66.5625 C126.02197266 67.89770508 126.02197266 67.89770508 127.3515625 69.58203125 C127.83367187 70.19240234 128.31578125 70.80277344 128.8125 71.43164062 C129.3075 72.07294922 129.8025 72.71425781 130.3125 73.375 C130.81523438 74.00470703 131.31796875 74.63441406 131.8359375 75.28320312 C134.25310828 78.37939096 135.92015557 80.64711703 136.6875 84.5625 C137.3475 84.5625 138.0075 84.5625 138.6875 84.5625 C139.9765625 86.20703125 139.9765625 86.20703125 141.3125 88.375 C141.75851562 89.08269531 142.20453125 89.79039062 142.6640625 90.51953125 C143.6875 92.5625 143.6875 92.5625 143.6875 95.5625 C144.3475 95.5625 145.0075 95.5625 145.6875 95.5625 C158.6875 117.65927419 158.6875 117.65927419 158.6875 124.5625 C159.3475 124.5625 160.0075 124.5625 160.6875 124.5625 C162.81370249 129.92863009 164.46973041 135.27098019 165.9375 140.8515625 C166.5981264 143.23945167 167.35527159 145.54302665 168.1875 147.875 C179.12521389 179.94368995 179.59207101 220.29950919 169.6875 252.5625 C169.20716021 254.69022735 168.77302424 256.8217082 168.34765625 258.9609375 C166.52645136 266.13799347 163.81232746 273.00158685 160.9375 279.8125 C160.58969482 280.63733887 160.24188965 281.46217773 159.88354492 282.31201172 C156.88389223 289.31142842 153.44978683 295.93901726 149.6875 302.5625 C149.25824219 303.36816406 148.82898437 304.17382812 148.38671875 305.00390625 C145.74246581 309.95649726 142.71970734 314.51256113 139.44921875 319.07421875 C137.75313968 321.46978941 136.15345446 323.9088161 134.5625 326.375 C132.26121745 329.86067597 129.73053867 332.68394991 126.6875 335.5625 C126.130625 336.325625 125.57375 337.08875 125 337.875 C124.566875 338.431875 124.13375 338.98875 123.6875 339.5625 C123.0275 339.5625 122.3675 339.5625 121.6875 339.5625 C121.3471875 340.738125 121.3471875 340.738125 121 341.9375 C119.34368946 345.25012108 118.04711714 345.30264357 114.6875 346.5625 C113.52083333 348.47916667 113.52083333 348.47916667 112.6875 350.5625 C111.1875 352.3125 111.1875 352.3125 109.6875 353.5625 C109.0275 353.5625 108.3675 353.5625 107.6875 353.5625 C107.36845703 354.40941406 107.36845703 354.40941406 107.04296875 355.2734375 C102.64399248 362.70225622 91.85932976 368.24011853 84.75 373.0625 C84.13616455 373.48354004 83.5223291 373.90458008 82.88989258 374.33837891 C79.27241266 376.74608996 75.87059938 378.38740033 71.6875 379.5625 C71.6875 380.2225 71.6875 380.8825 71.6875 381.5625 C43.55392914 395.08553477 43.55392914 395.08553477 32.16015625 397.88671875 C29.64700394 398.52213585 29.64700394 398.52213585 27.16796875 399.578125 C24.75220411 400.53682215 22.48152467 401.11704877 19.9375 401.625 C17.02988786 402.04585608 17.02988786 402.04585608 14.6875 403.5625 C12.06170067 403.93845337 9.4476612 404.2691951 6.8125 404.5625 C1.17339133 405.16662758 1.17339133 405.16662758 -4.3125 406.5625 C-37.68237095 411.16322627 -74.01140726 406.21881397 -104.96484375 392.9921875 C-107.30116859 391.9944105 -109.64859527 391.02240646 -112.00390625 390.0703125 C-122.12307398 385.91182006 -131.26652729 380.61782305 -140.47021484 374.72070312 C-142.06218718 373.71986602 -143.69416288 372.78319209 -145.33203125 371.859375 C-145.98558594 371.43140625 -146.63914062 371.0034375 -147.3125 370.5625 C-147.3125 369.9025 -147.3125 369.2425 -147.3125 368.5625 C-148.0034375 368.33175781 -148.694375 368.10101562 -149.40625 367.86328125 C-152.93309461 366.28473386 -155.79835011 364.12425496 -158.8125 361.75 C-159.64587891 361.11094727 -159.64587891 361.11094727 -160.49609375 360.45898438 C-164.02514693 357.71462655 -167.19834655 354.7813772 -170.3125 351.5625 C-170.910625 351.005625 -171.50875 350.44875 -172.125 349.875 C-173.3125 348.5625 -173.3125 348.5625 -173.3125 346.5625 C-174.6325 345.9025 -175.9525 345.2425 -177.3125 344.5625 C-177.3125 343.9025 -177.3125 343.2425 -177.3125 342.5625 C-178.3025 342.2325 -179.2925 341.9025 -180.3125 341.5625 C-184.3125 337.10535714 -184.3125 337.10535714 -184.3125 334.5625 C-184.9725 334.5625 -185.6325 334.5625 -186.3125 334.5625 C-187.94389937 332.63662421 -189.44973225 330.71923283 -190.9375 328.6875 C-191.35773438 328.13191406 -191.77796875 327.57632812 -192.2109375 327.00390625 C-195.3125 322.82485288 -195.3125 322.82485288 -195.3125 320.5625 C-195.9725 320.5625 -196.6325 320.5625 -197.3125 320.5625 C-198.63105095 318.31585738 -199.94243972 316.06552694 -201.25 313.8125 C-201.80977539 312.86117187 -201.80977539 312.86117187 -202.38085938 311.890625 C-204.16786764 308.79958368 -205.56135273 306.04782332 -206.3125 302.5625 C-206.9725 302.5625 -207.6325 302.5625 -208.3125 302.5625 C-212.69045755 294.03368356 -216.81165355 285.49822696 -220.3125 276.5625 C-220.66054687 275.68335938 -221.00859375 274.80421875 -221.3671875 273.8984375 C-224.26740328 266.27694021 -226.35629792 258.46881674 -228.3125 250.5625 C-228.7146875 248.96535156 -228.7146875 248.96535156 -229.125 247.3359375 C-235.67846711 219.27890642 -235.49255039 190.85571003 -230.3125 162.5625 C-229.9825 162.2325 -229.6525 161.9025 -229.3125 161.5625 C-228.8188963 159.06474634 -228.36736848 156.57123601 -227.9375 154.0625 C-226.84118346 148.00719379 -225.56108167 142.30677587 -223.3125 136.5625 C-222.90257812 135.469375 -222.49265625 134.37625 -222.0703125 133.25 C-217.34026566 120.85809989 -211.60555264 108.92223981 -204.6015625 97.6484375 C-203.48612158 95.84345128 -202.4535452 93.98774954 -201.4375 92.125 C-195.93070821 82.46554555 -188.48284308 74.00384035 -181.3125 65.5625 C-180.68601562 64.799375 -180.05953125 64.03625 -179.4140625 63.25 C-178.09126882 61.64974228 -176.70910349 60.09876384 -175.3125 58.5625 C-174.6525 58.5625 -173.9925 58.5625 -173.3125 58.5625 C-173.3125 57.9025 -173.3125 57.2425 -173.3125 56.5625 C-171.703125 54.90625 -171.703125 54.90625 -169.5625 53.0625 C-168.51835938 52.14984375 -168.51835938 52.14984375 -167.453125 51.21875 C-165.46789208 49.68273037 -163.59377955 48.5901034 -161.3125 47.5625 C-161.3125 46.9025 -161.3125 46.2425 -161.3125 45.5625 C-159.09435976 43.8336554 -156.87643531 42.21583053 -154.5625 40.625 C-153.29664391 39.74121632 -152.03101313 38.85710983 -150.765625 37.97265625 C-150.16427734 37.55773926 -149.56292969 37.14282227 -148.94335938 36.71533203 C-147.60991613 35.77273936 -146.32092873 34.76753338 -145.046875 33.74609375 C-143.3125 32.5625 -143.3125 32.5625 -140.3125 32.5625 C-140.3125 31.9025 -140.3125 31.2425 -140.3125 30.5625 C-138.74291992 29.4050293 -138.74291992 29.4050293 -136.54296875 28.13671875 C-135.74197754 27.67217285 -134.94098633 27.20762695 -134.11572266 26.72900391 C-133.25253418 26.24093262 -132.3893457 25.75286133 -131.5 25.25 C-130.62649902 24.75161621 -129.75299805 24.25323242 -128.85302734 23.73974609 C-119.60290972 18.51455435 -110.193458 14.42300873 -100.2578125 10.67578125 C-98.44751096 9.99151608 -96.64547483 9.2842188 -94.859375 8.5390625 C-79.49731512 2.64870212 -62.59190431 0.28042709 -46.3125 -1.4375 C-45.18457031 -1.56253906 -44.05664062 -1.68757812 -42.89453125 -1.81640625 C-28.54061859 -3.14578386 -14.25315745 -1.81940649 0 0 Z " fill="#F8F2EB" transform="translate(1325.3125,591.4375)"/>
</svg>
