<?xml version="1.0" encoding="UTF-8"?>
<svg version="1.1" xmlns="http://www.w3.org/2000/svg" width="2000" height="2000">
<path d="M0 0 C1.00266529 0.00171204 2.00533058 0.00342407 3.03837967 0.00518799 C15.60898895 0.02822328 28.17949725 0.06873473 40.75 0.125 C40.09 1.775 39.43 3.425 38.75 5.125 C38.09 5.125 37.43 5.125 36.75 5.125 C36.42 6.115 36.09 7.105 35.75 8.125 C33.8125 10.3125 33.8125 10.3125 31.75 12.125 C31.09 12.125 30.43 12.125 29.75 12.125 C29.42 13.115 29.09 14.105 28.75 15.125 C26.8125 17.3125 26.8125 17.3125 24.75 19.125 C24.09 19.125 23.43 19.125 22.75 19.125 C22.42 20.115 22.09 21.105 21.75 22.125 C21.09 22.125 20.43 22.125 19.75 22.125 C19.42 23.115 19.09 24.105 18.75 25.125 C16.8125 27.3125 16.8125 27.3125 14.75 29.125 C14.09 29.125 13.43 29.125 12.75 29.125 C12.42 30.115 12.09 31.105 11.75 32.125 C9.8125 34.3125 9.8125 34.3125 7.75 36.125 C7.09 36.125 6.43 36.125 5.75 36.125 C5.42 37.115 5.09 38.105 4.75 39.125 C2.8125 41.3125 2.8125 41.3125 0.75 43.125 C0.09 43.125 -0.57 43.125 -1.25 43.125 C-1.58 44.115 -1.91 45.105 -2.25 46.125 C-3.90002828 47.47886936 -5.5674387 48.81178142 -7.25 50.125 C-7.91 51.115 -8.57 52.105 -9.25 53.125 C-9.91 53.125 -10.57 53.125 -11.25 53.125 C-11.58 54.115 -11.91 55.105 -12.25 56.125 C-14.1875 58.3125 -14.1875 58.3125 -16.25 60.125 C-16.91 60.125 -17.57 60.125 -18.25 60.125 C-18.58 61.115 -18.91 62.105 -19.25 63.125 C-21.1875 65.3125 -21.1875 65.3125 -23.25 67.125 C-23.91 67.125 -24.57 67.125 -25.25 67.125 C-25.58 68.115 -25.91 69.105 -26.25 70.125 C-27.90002828 71.47886936 -29.5674387 72.81178142 -31.25 74.125 C-31.91 75.115 -32.57 76.105 -33.25 77.125 C-33.91 77.125 -34.57 77.125 -35.25 77.125 C-35.58 78.115 -35.91 79.105 -36.25 80.125 C-38.1875 82.3125 -38.1875 82.3125 -40.25 84.125 C-40.91 84.125 -41.57 84.125 -42.25 84.125 C-42.58 85.115 -42.91 86.105 -43.25 87.125 C-45.1875 89.3125 -45.1875 89.3125 -47.25 91.125 C-47.91 91.125 -48.57 91.125 -49.25 91.125 C-49.58 92.115 -49.91 93.105 -50.25 94.125 C-52.1875 96.3125 -52.1875 96.3125 -54.25 98.125 C-54.91 98.125 -55.57 98.125 -56.25 98.125 C-56.58 99.115 -56.91 100.105 -57.25 101.125 C-57.91 101.125 -58.57 101.125 -59.25 101.125 C-59.58 102.115 -59.91 103.105 -60.25 104.125 C-62.1875 106.3125 -62.1875 106.3125 -64.25 108.125 C-64.91 108.125 -65.57 108.125 -66.25 108.125 C-66.58 109.115 -66.91 110.105 -67.25 111.125 C-69.1875 113.3125 -69.1875 113.3125 -71.25 115.125 C-71.91 115.125 -72.57 115.125 -73.25 115.125 C-73.58 116.115 -73.91 117.105 -74.25 118.125 C-76.1875 120.3125 -76.1875 120.3125 -78.25 122.125 C-78.91 122.125 -79.57 122.125 -80.25 122.125 C-80.58 123.115 -80.91 124.105 -81.25 125.125 C-82.90002828 126.47886936 -84.5674387 127.81178142 -86.25 129.125 C-86.91 130.115 -87.57 131.105 -88.25 132.125 C-88.91 132.125 -89.57 132.125 -90.25 132.125 C-90.58 133.445 -90.91 134.765 -91.25 136.125 C-91.91 136.125 -92.57 136.125 -93.25 136.125 C-93.25 136.785 -93.25 137.445 -93.25 138.125 C-93.889375 138.228125 -94.52875 138.33125 -95.1875 138.4375 C-95.868125 138.664375 -96.54875 138.89125 -97.25 139.125 C-97.58 140.115 -97.91 141.105 -98.25 142.125 C-98.91 142.455 -99.57 142.785 -100.25 143.125 C-100.97159424 144.76863134 -101.64351421 146.43550386 -102.25 148.125 C-103.24 148.125 -104.23 148.125 -105.25 148.125 C-105.25 148.785 -105.25 149.445 -105.25 150.125 C-105.91 150.125 -106.57 150.125 -107.25 150.125 C-107.58 151.115 -107.91 152.105 -108.25 153.125 C-108.91 153.125 -109.57 153.125 -110.25 153.125 C-110.518125 153.723125 -110.78625 154.32125 -111.0625 154.9375 C-112.24917406 157.12347854 -113.34599113 158.53832594 -115.25 160.125 C-115.91 160.125 -116.57 160.125 -117.25 160.125 C-117.476875 160.90875 -117.70375 161.6925 -117.9375 162.5 C-119.59973235 165.8244647 -120.91216144 165.78986458 -124.25 167.125 C-124.58 167.95 -124.91 168.775 -125.25 169.625 C-125.58 170.45 -125.91 171.275 -126.25 172.125 C-127.90204456 172.82711894 -129.56923769 173.49471413 -131.25 174.125 C-131.95394612 175.43903276 -132.61345658 176.7770257 -133.25 178.125 C-135.10978129 180.27454892 -137.04525748 182.32765555 -139.25 184.125 C-139.91 184.125 -140.57 184.125 -141.25 184.125 C-141.476875 184.90875 -141.70375 185.6925 -141.9375 186.5 C-143.59973235 189.8244647 -144.91216144 189.78986458 -148.25 191.125 C-148.58 191.95 -148.91 192.775 -149.25 193.625 C-149.58 194.45 -149.91 195.275 -150.25 196.125 C-151.90204456 196.82711894 -153.56923769 197.49471413 -155.25 198.125 C-156.41666667 200.04166667 -156.41666667 200.04166667 -157.25 202.125 C-158.75 203.875 -158.75 203.875 -160.25 205.125 C-160.91 205.125 -161.57 205.125 -162.25 205.125 C-162.58 206.115 -162.91 207.105 -163.25 208.125 C-163.91 208.125 -164.57 208.125 -165.25 208.125 C-165.476875 208.90875 -165.70375 209.6925 -165.9375 210.5 C-167.59973235 213.8244647 -168.91216144 213.78986458 -172.25 215.125 C-172.58 215.95 -172.91 216.775 -173.25 217.625 C-173.58 218.45 -173.91 219.275 -174.25 220.125 C-175.91666667 220.79166667 -177.58333333 221.45833333 -179.25 222.125 C-179.58 222.95 -179.91 223.775 -180.25 224.625 C-181.25 227.125 -181.25 227.125 -183.8125 228.25 C-184.616875 228.53875 -185.42125 228.8275 -186.25 229.125 C-186.58 230.115 -186.91 231.105 -187.25 232.125 C-187.91 232.125 -188.57 232.125 -189.25 232.125 C-189.518125 232.723125 -189.78625 233.32125 -190.0625 233.9375 C-191.24917406 236.12347854 -192.34599113 237.53832594 -194.25 239.125 C-194.91 239.125 -195.57 239.125 -196.25 239.125 C-196.476875 239.90875 -196.70375 240.6925 -196.9375 241.5 C-198.59973235 244.8244647 -199.91216144 244.78986458 -203.25 246.125 C-203.58 246.95 -203.91 247.775 -204.25 248.625 C-204.58 249.45 -204.91 250.275 -205.25 251.125 C-206.90204456 251.82711894 -208.56923769 252.49471413 -210.25 253.125 C-210.95394612 254.43903276 -211.61345658 255.7770257 -212.25 257.125 C-214.10978129 259.27454892 -216.04525748 261.32765555 -218.25 263.125 C-218.91 263.125 -219.57 263.125 -220.25 263.125 C-220.476875 263.90875 -220.70375 264.6925 -220.9375 265.5 C-222.59973235 268.8244647 -223.91216144 268.78986458 -227.25 270.125 C-227.58 270.95 -227.91 271.775 -228.25 272.625 C-228.58 273.45 -228.91 274.275 -229.25 275.125 C-230.90204456 275.82711894 -232.56923769 276.49471413 -234.25 277.125 C-235.41666667 279.04166667 -235.41666667 279.04166667 -236.25 281.125 C-237.75 282.875 -237.75 282.875 -239.25 284.125 C-239.91 284.125 -240.57 284.125 -241.25 284.125 C-241.58 285.115 -241.91 286.105 -242.25 287.125 C-242.91 287.125 -243.57 287.125 -244.25 287.125 C-244.476875 287.90875 -244.70375 288.6925 -244.9375 289.5 C-246.59973235 292.8244647 -247.91216144 292.78986458 -251.25 294.125 C-251.58 294.95 -251.91 295.775 -252.25 296.625 C-252.58 297.45 -252.91 298.275 -253.25 299.125 C-254.91666667 299.79166667 -256.58333333 300.45833333 -258.25 301.125 C-258.58 301.95 -258.91 302.775 -259.25 303.625 C-260.25 306.125 -260.25 306.125 -262.8125 307.25 C-263.616875 307.53875 -264.42125 307.8275 -265.25 308.125 C-265.58 309.115 -265.91 310.105 -266.25 311.125 C-266.91 311.125 -267.57 311.125 -268.25 311.125 C-268.518125 311.723125 -268.78625 312.32125 -269.0625 312.9375 C-270.24917406 315.12347854 -271.34599113 316.53832594 -273.25 318.125 C-273.91 318.125 -274.57 318.125 -275.25 318.125 C-275.476875 318.90875 -275.70375 319.6925 -275.9375 320.5 C-277.59973235 323.8244647 -278.91216144 323.78986458 -282.25 325.125 C-282.58 325.95 -282.91 326.775 -283.25 327.625 C-283.58 328.45 -283.91 329.275 -284.25 330.125 C-285.90204456 330.82711894 -287.56923769 331.49471413 -289.25 332.125 C-289.95394612 333.43903276 -290.61345658 334.7770257 -291.25 336.125 C-293.10978129 338.27454892 -295.04525748 340.32765555 -297.25 342.125 C-297.91 342.125 -298.57 342.125 -299.25 342.125 C-299.476875 342.90875 -299.70375 343.6925 -299.9375 344.5 C-301.59973235 347.8244647 -302.91216144 347.78986458 -306.25 349.125 C-307.46869929 351.62947516 -307.46869929 351.62947516 -308.25 354.125 C-309.24 354.62 -309.24 354.62 -310.25 355.125 C-310.58 356.115 -310.91 357.105 -311.25 358.125 C-313.22956942 359.81588222 -315.22945196 361.48330472 -317.25 363.125 C-317.58 363.785 -317.91 364.445 -318.25 365.125 C-318.91 365.125 -319.57 365.125 -320.25 365.125 C-320.58 366.445 -320.91 367.765 -321.25 369.125 C-321.91 369.125 -322.57 369.125 -323.25 369.125 C-323.91 371.105 -324.57 373.085 -325.25 375.125 C-325.91 375.125 -326.57 375.125 -327.25 375.125 C-327.58 376.445 -327.91 377.765 -328.25 379.125 C-328.91 379.125 -329.57 379.125 -330.25 379.125 C-330.394375 379.723125 -330.53875 380.32125 -330.6875 380.9375 C-331.1372439 382.68650404 -331.67892341 384.41177023 -332.25 386.125 C-333.24 386.62 -333.24 386.62 -334.25 387.125 C-334.58 388.115 -334.91 389.105 -335.25 390.125 C-335.91 390.125 -336.57 390.125 -337.25 390.125 C-337.91 393.095 -338.57 396.065 -339.25 399.125 C-339.91 399.125 -340.57 399.125 -341.25 399.125 C-341.58 400.775 -341.91 402.425 -342.25 404.125 C-342.91 404.125 -343.57 404.125 -344.25 404.125 C-344.58 406.105 -344.91 408.085 -345.25 410.125 C-345.91 410.125 -346.57 410.125 -347.25 410.125 C-347.31058594 410.72828125 -347.37117187 411.3315625 -347.43359375 411.953125 C-347.51738281 412.75234375 -347.60117187 413.5515625 -347.6875 414.375 C-347.76871094 415.16390625 -347.84992187 415.9528125 -347.93359375 416.765625 C-348.22634993 418.94864639 -348.67064419 421.0023182 -349.25 423.125 C-349.91 423.125 -350.57 423.125 -351.25 423.125 C-351.58 425.765 -351.91 428.405 -352.25 431.125 C-352.91 431.125 -353.57 431.125 -354.25 431.125 C-354.31058594 431.81464844 -354.37117187 432.50429688 -354.43359375 433.21484375 C-354.96678217 439.19475696 -355.56555093 445.16051528 -356.25 451.125 C-356.91 451.125 -357.57 451.125 -358.25 451.125 C-358.25 470.265 -358.25 489.405 -358.25 509.125 C-357.59 509.125 -356.93 509.125 -356.25 509.125 C-355.91131223 511.33251848 -355.57928311 513.54105911 -355.25 515.75 C-355.064375 516.97976563 -354.87875 518.20953125 -354.6875 519.4765625 C-354.29597484 522.7416027 -354.16919076 525.84212451 -354.25 529.125 C-353.59 529.125 -352.93 529.125 -352.25 529.125 C-351.92 531.765 -351.59 534.405 -351.25 537.125 C-350.59 537.125 -349.93 537.125 -349.25 537.125 C-348.59 540.755 -347.93 544.385 -347.25 548.125 C-346.59 548.125 -345.93 548.125 -345.25 548.125 C-344.92 550.435 -344.59 552.745 -344.25 555.125 C-343.59 555.125 -342.93 555.125 -342.25 555.125 C-341.92 557.105 -341.59 559.085 -341.25 561.125 C-340.59 561.125 -339.93 561.125 -339.25 561.125 C-338.59 563.765 -337.93 566.405 -337.25 569.125 C-336.59 569.125 -335.93 569.125 -335.25 569.125 C-334.92 570.775 -334.59 572.425 -334.25 574.125 C-333.59 574.125 -332.93 574.125 -332.25 574.125 C-331.59 576.435 -330.93 578.745 -330.25 581.125 C-329.59 581.125 -328.93 581.125 -328.25 581.125 C-327.92 582.775 -327.59 584.425 -327.25 586.125 C-326.59 586.125 -325.93 586.125 -325.25 586.125 C-324.59 588.435 -323.93 590.745 -323.25 593.125 C-322.59 593.125 -321.93 593.125 -321.25 593.125 C-320.92 595.105 -320.59 597.085 -320.25 599.125 C-319.59 599.125 -318.93 599.125 -318.25 599.125 C-317.41151196 600.58037568 -316.57936066 602.03940373 -315.75 603.5 C-315.2859375 604.31210937 -314.821875 605.12421875 -314.34375 605.9609375 C-313.25 608.125 -313.25 608.125 -313.25 610.125 C-312.59 610.125 -311.93 610.125 -311.25 610.125 C-310.92 612.105 -310.59 614.085 -310.25 616.125 C-309.26 616.455 -308.27 616.785 -307.25 617.125 C-306.92 619.105 -306.59 621.085 -306.25 623.125 C-305.59 623.125 -304.93 623.125 -304.25 623.125 C-303.92 624.115 -303.59 625.105 -303.25 626.125 C-302.59 626.455 -301.93 626.785 -301.25 627.125 C-300.58333333 629.125 -299.91666667 631.125 -299.25 633.125 C-298.59 633.455 -297.93 633.785 -297.25 634.125 C-296.625 637.1875 -296.625 637.1875 -296.25 640.125 C-295.59 640.125 -294.93 640.125 -294.25 640.125 C-293.40930585 641.72532137 -292.57768495 643.33041171 -291.75 644.9375 C-291.2859375 645.83082031 -290.821875 646.72414063 -290.34375 647.64453125 C-289.25 650.125 -289.25 650.125 -289.25 653.125 C-288.26 653.455 -287.27 653.785 -286.25 654.125 C-286.25 655.115 -286.25 656.105 -286.25 657.125 C-285.59 657.125 -284.93 657.125 -284.25 657.125 C-283.96125 658.094375 -283.6725 659.06375 -283.375 660.0625 C-282.60785318 663.23164203 -282.60785318 663.23164203 -280.25 664.125 C-279.625 667.1875 -279.625 667.1875 -279.25 670.125 C-278.26 670.455 -277.27 670.785 -276.25 671.125 C-275.92 673.105 -275.59 675.085 -275.25 677.125 C-274.59 677.125 -273.93 677.125 -273.25 677.125 C-272.92 678.115 -272.59 679.105 -272.25 680.125 C-271.59 680.455 -270.93 680.785 -270.25 681.125 C-269.6171875 682.97265625 -269.6171875 682.97265625 -269.125 685.1875 C-268.87363281 686.28771484 -268.87363281 686.28771484 -268.6171875 687.41015625 C-268.49601563 687.97605469 -268.37484375 688.54195312 -268.25 689.125 C-267.59 689.125 -266.93 689.125 -266.25 689.125 C-265.92 690.775 -265.59 692.425 -265.25 694.125 C-264.59 694.125 -263.93 694.125 -263.25 694.125 C-262.92 695.775 -262.59 697.425 -262.25 699.125 C-261.59 699.125 -260.93 699.125 -260.25 699.125 C-258.7893715 701.77238916 -258.25 703.01948334 -258.25 706.125 C-257.59 706.125 -256.93 706.125 -256.25 706.125 C-255.92 707.775 -255.59 709.425 -255.25 711.125 C-254.59 711.125 -253.93 711.125 -253.25 711.125 C-252.59 713.435 -251.93 715.745 -251.25 718.125 C-250.59 718.125 -249.93 718.125 -249.25 718.125 C-248.92 719.775 -248.59 721.425 -248.25 723.125 C-247.59 723.125 -246.93 723.125 -246.25 723.125 C-244.7893715 725.77238916 -244.25 727.01948334 -244.25 730.125 C-243.59 730.125 -242.93 730.125 -242.25 730.125 C-241.92 732.105 -241.59 734.085 -241.25 736.125 C-240.26 736.455 -239.27 736.785 -238.25 737.125 C-238.25 738.115 -238.25 739.105 -238.25 740.125 C-237.59 740.125 -236.93 740.125 -236.25 740.125 C-234.7893715 742.77238916 -234.25 744.01948334 -234.25 747.125 C-233.59 747.125 -232.93 747.125 -232.25 747.125 C-231.92 749.105 -231.59 751.085 -231.25 753.125 C-230.26 753.455 -229.27 753.785 -228.25 754.125 C-227.92 756.105 -227.59 758.085 -227.25 760.125 C-226.59 760.125 -225.93 760.125 -225.25 760.125 C-224.92 761.115 -224.59 762.105 -224.25 763.125 C-223.59 763.455 -222.93 763.785 -222.25 764.125 C-221.58333333 766.125 -220.91666667 768.125 -220.25 770.125 C-219.59 770.455 -218.93 770.785 -218.25 771.125 C-217.625 774.1875 -217.625 774.1875 -217.25 777.125 C-216.59 777.125 -215.93 777.125 -215.25 777.125 C-214.25 779.125 -213.25 781.125 -212.25 783.125 C-211.858125 783.846875 -211.46625 784.56875 -211.0625 785.3125 C-210.25 787.125 -210.25 787.125 -210.25 790.125 C-209.26 790.455 -208.27 790.785 -207.25 791.125 C-207.25 792.115 -207.25 793.105 -207.25 794.125 C-206.59 794.125 -205.93 794.125 -205.25 794.125 C-204.59 796.435 -203.93 798.745 -203.25 801.125 C-202.59 801.125 -201.93 801.125 -201.25 801.125 C-200.25 803.125 -199.25 805.125 -198.25 807.125 C-197.858125 807.846875 -197.46625 808.56875 -197.0625 809.3125 C-196.25 811.125 -196.25 811.125 -196.25 814.125 C-195.59 814.125 -194.93 814.125 -194.25 814.125 C-193.92 815.445 -193.59 816.765 -193.25 818.125 C-192.59 818.125 -191.93 818.125 -191.25 818.125 C-189.99335022 821.03100261 -189.25 822.92104584 -189.25 826.125 C-188.59 826.125 -187.93 826.125 -187.25 826.125 C-186.92 827.445 -186.59 828.765 -186.25 830.125 C-185.59 830.125 -184.93 830.125 -184.25 830.125 C-183.92 832.105 -183.59 834.085 -183.25 836.125 C-182.59 836.125 -181.93 836.125 -181.25 836.125 C-179.7893715 838.77238916 -179.25 840.01948334 -179.25 843.125 C-178.59 843.125 -177.93 843.125 -177.25 843.125 C-176.92 844.445 -176.59 845.765 -176.25 847.125 C-175.59 847.125 -174.93 847.125 -174.25 847.125 C-173.96125 848.094375 -173.6725 849.06375 -173.375 850.0625 C-172.60785318 853.23164203 -172.60785318 853.23164203 -170.25 854.125 C-169.625 857.1875 -169.625 857.1875 -169.25 860.125 C-168.59 860.125 -167.93 860.125 -167.25 860.125 C-165.7893715 862.77238916 -165.25 864.01948334 -165.25 867.125 C-164.59 867.125 -163.93 867.125 -163.25 867.125 C-162.92 868.115 -162.59 869.105 -162.25 870.125 C-161.59 870.455 -160.93 870.785 -160.25 871.125 C-159.625 874.1875 -159.625 874.1875 -159.25 877.125 C-158.59 877.125 -157.93 877.125 -157.25 877.125 C-155.7893715 879.77238916 -155.25 881.01948334 -155.25 884.125 C-154.59 884.125 -153.93 884.125 -153.25 884.125 C-152.92 886.105 -152.59 888.085 -152.25 890.125 C-151.26 890.455 -150.27 890.785 -149.25 891.125 C-148.92 893.105 -148.59 895.085 -148.25 897.125 C-147.59 897.125 -146.93 897.125 -146.25 897.125 C-145.92 898.115 -145.59 899.105 -145.25 900.125 C-144.59 900.455 -143.93 900.785 -143.25 901.125 C-142.58333333 903.125 -141.91666667 905.125 -141.25 907.125 C-140.59 907.455 -139.93 907.785 -139.25 908.125 C-138.625 911.1875 -138.625 911.1875 -138.25 914.125 C-137.59 914.125 -136.93 914.125 -136.25 914.125 C-135.92 915.115 -135.59 916.105 -135.25 917.125 C-134.59 917.455 -133.93 917.785 -133.25 918.125 C-132.6171875 919.97265625 -132.6171875 919.97265625 -132.125 922.1875 C-131.87363281 923.28771484 -131.87363281 923.28771484 -131.6171875 924.41015625 C-131.49601563 924.97605469 -131.37484375 925.54195312 -131.25 926.125 C-130.59 926.125 -129.93 926.125 -129.25 926.125 C-128.92 927.775 -128.59 929.425 -128.25 931.125 C-127.59 931.125 -126.93 931.125 -126.25 931.125 C-125.59 933.435 -124.93 935.745 -124.25 938.125 C-123.59 938.125 -122.93 938.125 -122.25 938.125 C-121.92 939.775 -121.59 941.425 -121.25 943.125 C-120.59 943.125 -119.93 943.125 -119.25 943.125 C-118.59 945.435 -117.93 947.745 -117.25 950.125 C-116.59 950.125 -115.93 950.125 -115.25 950.125 C-114.92 951.775 -114.59 953.425 -114.25 955.125 C-113.59 955.125 -112.93 955.125 -112.25 955.125 C-110.99335022 958.03100261 -110.25 959.92104584 -110.25 963.125 C-109.26 963.455 -108.27 963.785 -107.25 964.125 C-107.25 965.115 -107.25 966.105 -107.25 967.125 C-106.59 967.125 -105.93 967.125 -105.25 967.125 C-104.92 968.775 -104.59 970.425 -104.25 972.125 C-103.59 972.125 -102.93 972.125 -102.25 972.125 C-100.99335022 975.03100261 -100.25 976.92104584 -100.25 980.125 C-99.26 980.455 -98.27 980.785 -97.25 981.125 C-97.25 982.115 -97.25 983.105 -97.25 984.125 C-96.59 984.125 -95.93 984.125 -95.25 984.125 C-94.96125 985.094375 -94.6725 986.06375 -94.375 987.0625 C-93.60785318 990.23164203 -93.60785318 990.23164203 -91.25 991.125 C-90.625 994.1875 -90.625 994.1875 -90.25 997.125 C-89.59 997.125 -88.93 997.125 -88.25 997.125 C-86.7893715 999.77238916 -86.25 1001.01948334 -86.25 1004.125 C-85.59 1004.125 -84.93 1004.125 -84.25 1004.125 C-83.92 1005.115 -83.59 1006.105 -83.25 1007.125 C-82.59 1007.455 -81.93 1007.785 -81.25 1008.125 C-80.625 1011.1875 -80.625 1011.1875 -80.25 1014.125 C-79.59 1014.125 -78.93 1014.125 -78.25 1014.125 C-77.59 1016.435 -76.93 1018.745 -76.25 1021.125 C-75.59 1021.125 -74.93 1021.125 -74.25 1021.125 C-73.92 1023.105 -73.59 1025.085 -73.25 1027.125 C-72.26 1027.455 -71.27 1027.785 -70.25 1028.125 C-69.92 1030.105 -69.59 1032.085 -69.25 1034.125 C-68.59 1034.125 -67.93 1034.125 -67.25 1034.125 C-66.92 1035.445 -66.59 1036.765 -66.25 1038.125 C-65.59 1038.125 -64.93 1038.125 -64.25 1038.125 C-63.59 1040.435 -62.93 1042.745 -62.25 1045.125 C-61.59 1045.125 -60.93 1045.125 -60.25 1045.125 C-59.92 1047.105 -59.59 1049.085 -59.25 1051.125 C-58.59 1051.125 -57.93 1051.125 -57.25 1051.125 C-56.92 1052.445 -56.59 1053.765 -56.25 1055.125 C-55.59 1055.125 -54.93 1055.125 -54.25 1055.125 C-52.99335022 1058.03100261 -52.25 1059.92104584 -52.25 1063.125 C-51.59 1063.125 -50.93 1063.125 -50.25 1063.125 C-49.84007812 1063.88425781 -49.43015625 1064.64351562 -49.0078125 1065.42578125 C-48.46898437 1066.41964844 -47.93015625 1067.41351562 -47.375 1068.4375 C-46.57449219 1069.91669922 -46.57449219 1069.91669922 -45.7578125 1071.42578125 C-44.24277874 1074.22086458 -44.24277874 1074.22086458 -42.25 1077.125 C-42.25 1078.115 -42.25 1079.105 -42.25 1080.125 C-41.59 1080.125 -40.93 1080.125 -40.25 1080.125 C-38.7893715 1082.77238916 -38.25 1084.01948334 -38.25 1087.125 C-37.59 1087.125 -36.93 1087.125 -36.25 1087.125 C-35.92 1088.115 -35.59 1089.105 -35.25 1090.125 C-34.59 1090.455 -33.93 1090.785 -33.25 1091.125 C-32.65103907 1093.43210878 -32.29345035 1095.74188718 -31.91015625 1098.09375 C-31.69230469 1098.7640625 -31.47445312 1099.434375 -31.25 1100.125 C-30.26 1100.455 -29.27 1100.785 -28.25 1101.125 C-28.25 1102.115 -28.25 1103.105 -28.25 1104.125 C-27.59 1104.125 -26.93 1104.125 -26.25 1104.125 C-25.92 1105.115 -25.59 1106.105 -25.25 1107.125 C-24.59 1107.455 -23.93 1107.785 -23.25 1108.125 C-22.65103907 1110.43210878 -22.29345035 1112.74188718 -21.91015625 1115.09375 C-21.69230469 1115.7640625 -21.47445312 1116.434375 -21.25 1117.125 C-20.26 1117.455 -19.27 1117.785 -18.25 1118.125 C-18.25 1119.115 -18.25 1120.105 -18.25 1121.125 C-17.59 1121.125 -16.93 1121.125 -16.25 1121.125 C-15.96125 1122.094375 -15.6725 1123.06375 -15.375 1124.0625 C-14.60785318 1127.23164203 -14.60785318 1127.23164203 -12.25 1128.125 C-11.625 1131.1875 -11.625 1131.1875 -11.25 1134.125 C-10.59 1134.125 -9.93 1134.125 -9.25 1134.125 C-7.7893715 1136.77238916 -7.25 1138.01948334 -7.25 1141.125 C-6.59 1141.125 -5.93 1141.125 -5.25 1141.125 C-4.92 1142.115 -4.59 1143.105 -4.25 1144.125 C-3.59 1144.455 -2.93 1144.785 -2.25 1145.125 C-1.625 1148.1875 -1.625 1148.1875 -1.25 1151.125 C-0.59 1151.125 0.07 1151.125 0.75 1151.125 C2.2106285 1153.77238916 2.75 1155.01948334 2.75 1158.125 C3.41 1158.125 4.07 1158.125 4.75 1158.125 C5.08 1159.775 5.41 1161.425 5.75 1163.125 C6.41 1163.125 7.07 1163.125 7.75 1163.125 C8.41 1165.435 9.07 1167.745 9.75 1170.125 C10.41 1170.125 11.07 1170.125 11.75 1170.125 C12.08 1171.775 12.41 1173.425 12.75 1175.125 C13.41 1175.125 14.07 1175.125 14.75 1175.125 C15.41 1177.435 16.07 1179.745 16.75 1182.125 C17.41 1182.125 18.07 1182.125 18.75 1182.125 C19.08 1183.775 19.41 1185.425 19.75 1187.125 C20.41 1187.125 21.07 1187.125 21.75 1187.125 C22.08 1188.775 22.41 1190.425 22.75 1192.125 C23.41 1192.125 24.07 1192.125 24.75 1192.125 C26.00664978 1195.03100261 26.75 1196.92104584 26.75 1200.125 C27.74 1200.455 28.73 1200.785 29.75 1201.125 C29.75 1202.115 29.75 1203.105 29.75 1204.125 C30.41 1204.125 31.07 1204.125 31.75 1204.125 C32.41 1206.435 33.07 1208.745 33.75 1211.125 C34.41 1211.125 35.07 1211.125 35.75 1211.125 C36.08 1213.105 36.41 1215.085 36.75 1217.125 C37.74 1217.455 38.73 1217.785 39.75 1218.125 C40.08 1220.105 40.41 1222.085 40.75 1224.125 C41.41 1224.125 42.07 1224.125 42.75 1224.125 C43.08 1225.115 43.41 1226.105 43.75 1227.125 C44.41 1227.455 45.07 1227.785 45.75 1228.125 C46.34896093 1230.43210878 46.70654965 1232.74188718 47.08984375 1235.09375 C47.30769531 1235.7640625 47.52554688 1236.434375 47.75 1237.125 C48.74 1237.455 49.73 1237.785 50.75 1238.125 C50.75 1239.115 50.75 1240.105 50.75 1241.125 C51.41 1241.125 52.07 1241.125 52.75 1241.125 C53.08 1243.105 53.41 1245.085 53.75 1247.125 C54.74 1247.455 55.73 1247.785 56.75 1248.125 C57.08 1250.105 57.41 1252.085 57.75 1254.125 C58.74 1254.455 59.73 1254.785 60.75 1255.125 C60.75 1256.115 60.75 1257.105 60.75 1258.125 C61.41 1258.125 62.07 1258.125 62.75 1258.125 C63.03875 1259.094375 63.3275 1260.06375 63.625 1261.0625 C64.39214682 1264.23164203 64.39214682 1264.23164203 66.75 1265.125 C67.375 1268.1875 67.375 1268.1875 67.75 1271.125 C68.41 1271.125 69.07 1271.125 69.75 1271.125 C71.2106285 1273.77238916 71.75 1275.01948334 71.75 1278.125 C72.41 1278.125 73.07 1278.125 73.75 1278.125 C74.08 1279.445 74.41 1280.765 74.75 1282.125 C75.41 1282.125 76.07 1282.125 76.75 1282.125 C77.08 1284.105 77.41 1286.085 77.75 1288.125 C78.41 1288.125 79.07 1288.125 79.75 1288.125 C81.2106285 1290.77238916 81.75 1292.01948334 81.75 1295.125 C82.41 1295.125 83.07 1295.125 83.75 1295.125 C84.08 1296.775 84.41 1298.425 84.75 1300.125 C85.41 1300.125 86.07 1300.125 86.75 1300.125 C88.2106285 1302.77238916 88.75 1304.01948334 88.75 1307.125 C89.41 1307.125 90.07 1307.125 90.75 1307.125 C91.58819158 1308.74749941 92.4204116 1310.37308497 93.25 1312 C93.7140625 1312.90492187 94.178125 1313.80984375 94.65625 1314.7421875 C95.75 1317.125 95.75 1317.125 95.75 1319.125 C96.41 1319.125 97.07 1319.125 97.75 1319.125 C98.08 1320.775 98.41 1322.425 98.75 1324.125 C99.41 1324.125 100.07 1324.125 100.75 1324.125 C101.08773438 1324.83527344 101.42546875 1325.54554687 101.7734375 1326.27734375 C102.21945312 1327.19644531 102.66546875 1328.11554688 103.125 1329.0625 C103.78628906 1330.43728516 103.78628906 1330.43728516 104.4609375 1331.83984375 C105.54199162 1334.25403802 105.54199162 1334.25403802 107.75 1335.125 C108.375 1338.1875 108.375 1338.1875 108.75 1341.125 C109.41 1341.125 110.07 1341.125 110.75 1341.125 C111.41 1343.105 112.07 1345.085 112.75 1347.125 C113.41 1347.125 114.07 1347.125 114.75 1347.125 C115.08 1348.115 115.41 1349.105 115.75 1350.125 C116.74 1350.785 117.73 1351.445 118.75 1352.125 C118.935625 1353.3625 118.935625 1353.3625 119.125 1354.625 C119.434375 1355.8625 119.434375 1355.8625 119.75 1357.125 C121.41072849 1357.80632451 123.077767 1358.47242127 124.75 1359.125 C125.42441131 1360.7885479 126.0900321 1362.45566942 126.75 1364.125 C128.1970294 1365.53068543 128.1970294 1365.53068543 129.875 1366.8125 C130.82375 1367.575625 131.7725 1368.33875 132.75 1369.125 C132.75 1369.785 132.75 1370.445 132.75 1371.125 C133.74 1371.455 134.73 1371.785 135.75 1372.125 C137.9375 1374.0625 137.9375 1374.0625 139.75 1376.125 C139.75 1376.785 139.75 1377.445 139.75 1378.125 C140.74 1378.455 141.73 1378.785 142.75 1379.125 C143.08 1379.785 143.41 1380.445 143.75 1381.125 C144.554375 1381.393125 145.35875 1381.66125 146.1875 1381.9375 C148.75 1383.125 148.75 1383.125 149.75 1385.6875 C150.08 1386.491875 150.41 1387.29625 150.75 1388.125 C153.11195411 1388.73102665 153.11195411 1388.73102665 155.75 1389.125 C158.5625 1391.0625 158.5625 1391.0625 160.75 1393.125 C160.75 1393.785 160.75 1394.445 160.75 1395.125 C162.4 1395.455 164.05 1395.785 165.75 1396.125 C165.75 1396.785 165.75 1397.445 165.75 1398.125 C168.39 1398.785 171.03 1399.445 173.75 1400.125 C173.75 1400.785 173.75 1401.445 173.75 1402.125 C175.07 1402.455 176.39 1402.785 177.75 1403.125 C177.75 1403.785 177.75 1404.445 177.75 1405.125 C180.72 1405.785 183.69 1406.445 186.75 1407.125 C186.75 1407.785 186.75 1408.445 186.75 1409.125 C189.06 1409.455 191.37 1409.785 193.75 1410.125 C193.75 1410.785 193.75 1411.445 193.75 1412.125 C194.34167969 1412.24617188 194.93335938 1412.36734375 195.54296875 1412.4921875 C199.81619368 1413.39841791 203.69707434 1414.48192203 207.75 1416.125 C209.7424325 1416.50093066 211.7418674 1416.84479545 213.75 1417.125 C213.75 1417.785 213.75 1418.445 213.75 1419.125 C217.38 1419.455 221.01 1419.785 224.75 1420.125 C224.75 1420.785 224.75 1421.445 224.75 1422.125 C231.2988799 1422.65025146 237.83677717 1423.10584321 244.40234375 1423.34375 C245.37800293 1423.38056885 246.35366211 1423.4173877 247.35888672 1423.45532227 C249.30426371 1423.52591414 251.24992612 1423.58909083 253.19580078 1423.64428711 C257.76757755 1423.81380791 261.60545598 1423.96072437 265.75 1426.125 C265.75 1425.465 265.75 1424.805 265.75 1424.125 C277.63 1423.465 289.51 1422.805 301.75 1422.125 C301.75 1421.465 301.75 1420.805 301.75 1420.125 C306.04 1419.795 310.33 1419.465 314.75 1419.125 C314.75 1418.465 314.75 1417.805 314.75 1417.125 C318.05 1416.795 321.35 1416.465 324.75 1416.125 C324.75 1415.465 324.75 1414.805 324.75 1414.125 C326.47807318 1413.78604344 328.20751974 1413.45408475 329.9375 1413.125 C330.90042969 1412.939375 331.86335938 1412.75375 332.85546875 1412.5625 C335.5434206 1412.15622388 338.03771019 1412.04566428 340.75 1412.125 C340.75 1411.465 340.75 1410.805 340.75 1410.125 C344.38 1409.795 348.01 1409.465 351.75 1409.125 C351.75 1408.465 351.75 1407.805 351.75 1407.125 C353.31116819 1406.78548381 354.87401338 1406.45367456 356.4375 1406.125 C357.30761719 1405.939375 358.17773438 1405.75375 359.07421875 1405.5625 C361.68712964 1405.13527953 364.10813038 1405.04883799 366.75 1405.125 C366.75 1404.465 366.75 1403.805 366.75 1403.125 C370.71 1402.795 374.67 1402.465 378.75 1402.125 C378.75 1401.465 378.75 1400.805 378.75 1400.125 C383.82476794 1398.86194665 388.47796354 1397.85463916 393.75 1398.125 C393.75 1397.465 393.75 1396.805 393.75 1396.125 C397.38 1395.795 401.01 1395.465 404.75 1395.125 C404.75 1394.465 404.75 1393.805 404.75 1393.125 C405.40226562 1393.00382812 406.05453125 1392.88265625 406.7265625 1392.7578125 C412.31123966 1391.69051758 412.31123966 1391.69051758 417.75 1390.0625 C422.01698267 1388.72906792 426.30688817 1388.45867243 430.75 1388.125 C430.75 1387.465 430.75 1386.805 430.75 1386.125 C434.38 1385.795 438.01 1385.465 441.75 1385.125 C441.75 1384.465 441.75 1383.805 441.75 1383.125 C447.13027025 1381.93411014 452.20291384 1380.8330481 457.75 1381.125 C457.75 1380.465 457.75 1379.805 457.75 1379.125 C461.38 1378.795 465.01 1378.465 468.75 1378.125 C468.75 1377.465 468.75 1376.805 468.75 1376.125 C470.4991497 1375.78723316 472.24936145 1375.45496329 474 1375.125 C474.97453125 1374.939375 475.9490625 1374.75375 476.953125 1374.5625 C479.75 1374.125 479.75 1374.125 483.75 1374.125 C483.75 1373.465 483.75 1372.805 483.75 1372.125 C487.71 1371.795 491.67 1371.465 495.75 1371.125 C495.75 1370.465 495.75 1369.805 495.75 1369.125 C497.31116819 1368.78548381 498.87401338 1368.45367456 500.4375 1368.125 C501.30761719 1367.939375 502.17773438 1367.75375 503.07421875 1367.5625 C505.68712964 1367.13527953 508.10813038 1367.04883799 510.75 1367.125 C510.75 1366.465 510.75 1365.805 510.75 1365.125 C514.05 1364.795 517.35 1364.465 520.75 1364.125 C520.75 1363.465 520.75 1362.805 520.75 1362.125 C521.47445313 1362.00382812 522.19890625 1361.88265625 522.9453125 1361.7578125 C528.95916733 1360.73439367 528.95916733 1360.73439367 534.8125 1359.0625 C539.05133643 1357.70967986 543.32858345 1357.45704314 547.75 1357.125 C547.75 1356.465 547.75 1355.805 547.75 1355.125 C551.38 1354.795 555.01 1354.465 558.75 1354.125 C558.75 1353.465 558.75 1352.805 558.75 1352.125 C564.13027025 1350.93411014 569.20291384 1349.8330481 574.75 1350.125 C574.75 1349.465 574.75 1348.805 574.75 1348.125 C578.38 1347.795 582.01 1347.465 585.75 1347.125 C585.75 1346.465 585.75 1345.805 585.75 1345.125 C587.26980469 1344.83496094 587.26980469 1344.83496094 588.8203125 1344.5390625 C590.17191568 1344.27625077 591.52347592 1344.01321817 592.875 1343.75 C593.54015625 1343.62367187 594.2053125 1343.49734375 594.890625 1343.3671875 C598.01087633 1342.75537351 600.97929478 1342.04709503 603.9921875 1341.0234375 C606.75 1340.125 606.75 1340.125 610.75 1340.125 C610.75 1339.465 610.75 1338.805 610.75 1338.125 C614.71 1337.795 618.67 1337.465 622.75 1337.125 C622.75 1336.465 622.75 1335.805 622.75 1335.125 C624.31116819 1334.78548381 625.87401338 1334.45367456 627.4375 1334.125 C628.30761719 1333.939375 629.17773438 1333.75375 630.07421875 1333.5625 C632.68712964 1333.13527953 635.10813038 1333.04883799 637.75 1333.125 C637.75 1332.465 637.75 1331.805 637.75 1331.125 C638.47445313 1331.00382812 639.19890625 1330.88265625 639.9453125 1330.7578125 C645.95916733 1329.73439367 645.95916733 1329.73439367 651.8125 1328.0625 C656.05133643 1326.70967986 660.32858345 1326.45704314 664.75 1326.125 C664.75 1325.465 664.75 1324.805 664.75 1324.125 C668.38 1323.795 672.01 1323.465 675.75 1323.125 C675.75 1322.465 675.75 1321.805 675.75 1321.125 C681.13027025 1319.93411014 686.20291384 1318.8330481 691.75 1319.125 C691.75 1318.465 691.75 1317.805 691.75 1317.125 C695.38 1316.795 699.01 1316.465 702.75 1316.125 C702.75 1315.465 702.75 1314.805 702.75 1314.125 C703.40226562 1314.00382812 704.05453125 1313.88265625 704.7265625 1313.7578125 C708.51428719 1313.0315526 712.16352542 1312.32847077 715.8125 1311.0625 C719.74471648 1309.80753729 723.65051541 1309.4711787 727.75 1309.125 C727.75 1308.465 727.75 1307.805 727.75 1307.125 C731.71 1306.795 735.67 1306.465 739.75 1306.125 C739.75 1305.465 739.75 1304.805 739.75 1304.125 C741.31116819 1303.78548381 742.87401338 1303.45367456 744.4375 1303.125 C745.30761719 1302.939375 746.17773438 1302.75375 747.07421875 1302.5625 C749.68712964 1302.13527953 752.10813038 1302.04883799 754.75 1302.125 C754.75 1301.465 754.75 1300.805 754.75 1300.125 C758.71 1299.795 762.67 1299.465 766.75 1299.125 C766.75 1298.465 766.75 1297.805 766.75 1297.125 C771.82476794 1295.86194665 776.47796354 1294.85463916 781.75 1295.125 C781.75 1294.465 781.75 1293.805 781.75 1293.125 C785.38 1292.795 789.01 1292.465 792.75 1292.125 C792.75 1291.465 792.75 1290.805 792.75 1290.125 C798.13027025 1288.93411014 803.20291384 1287.8330481 808.75 1288.125 C808.75 1287.465 808.75 1286.805 808.75 1286.125 C812.05 1285.795 815.35 1285.465 818.75 1285.125 C818.75 1284.465 818.75 1283.805 818.75 1283.125 C822.38 1282.795 826.01 1282.465 829.75 1282.125 C829.75 1281.465 829.75 1280.805 829.75 1280.125 C831.47807318 1279.78604344 833.20751974 1279.45408475 834.9375 1279.125 C835.90042969 1278.939375 836.86335938 1278.75375 837.85546875 1278.5625 C840.5434206 1278.15622388 843.03771019 1278.04566428 845.75 1278.125 C845.75 1277.465 845.75 1276.805 845.75 1276.125 C849.38 1275.795 853.01 1275.465 856.75 1275.125 C856.75 1274.465 856.75 1273.805 856.75 1273.125 C858.31116819 1272.78548381 859.87401338 1272.45367456 861.4375 1272.125 C862.30761719 1271.939375 863.17773438 1271.75375 864.07421875 1271.5625 C866.68712964 1271.13527953 869.10813038 1271.04883799 871.75 1271.125 C871.75 1270.465 871.75 1269.805 871.75 1269.125 C875.71 1268.795 879.67 1268.465 883.75 1268.125 C883.75 1267.465 883.75 1266.805 883.75 1266.125 C885.31116819 1265.78548381 886.87401338 1265.45367456 888.4375 1265.125 C889.30761719 1264.939375 890.17773438 1264.75375 891.07421875 1264.5625 C893.68712964 1264.13527953 896.10813038 1264.04883799 898.75 1264.125 C898.75 1263.465 898.75 1262.805 898.75 1262.125 C902.05 1261.795 905.35 1261.465 908.75 1261.125 C908.75 1260.465 908.75 1259.805 908.75 1259.125 C909.49765625 1258.99222656 910.2453125 1258.85945313 911.015625 1258.72265625 C912.00046875 1258.54605469 912.9853125 1258.36945313 914 1258.1875 C915.46179687 1257.92646484 915.46179687 1257.92646484 916.953125 1257.66015625 C919.24721795 1257.22120271 921.49291971 1256.72151408 923.75 1256.125 C924.08 1257.115 924.41 1258.105 924.75 1259.125 C924.09 1259.125 923.43 1259.125 922.75 1259.125 C922.42 1262.425 922.09 1265.725 921.75 1269.125 C921.09 1269.125 920.43 1269.125 919.75 1269.125 C919.42 1272.095 919.09 1275.065 918.75 1278.125 C918.09 1278.125 917.43 1278.125 916.75 1278.125 C916.09 1281.755 915.43 1285.385 914.75 1289.125 C914.09 1289.125 913.43 1289.125 912.75 1289.125 C912.42 1291.765 912.09 1294.405 911.75 1297.125 C911.09 1297.125 910.43 1297.125 909.75 1297.125 C909.605625 1298.176875 909.46125 1299.22875 909.3125 1300.3125 C908.87473034 1303.27960549 908.37195134 1306.19294366 907.75 1309.125 C907.09 1309.125 906.43 1309.125 905.75 1309.125 C905.42 1311.765 905.09 1314.405 904.75 1317.125 C904.09 1317.125 903.43 1317.125 902.75 1317.125 C902.09 1320.425 901.43 1323.725 900.75 1327.125 C900.09 1327.125 899.43 1327.125 898.75 1327.125 C898.42 1329.435 898.09 1331.745 897.75 1334.125 C897.09 1334.125 896.43 1334.125 895.75 1334.125 C895.42 1336.435 895.09 1338.745 894.75 1341.125 C894.09 1341.125 893.43 1341.125 892.75 1341.125 C892.605625 1342.218125 892.46125 1343.31125 892.3125 1344.4375 C891.75 1348.125 891.75 1348.125 890.75 1351.125 C890.09 1351.125 889.43 1351.125 888.75 1351.125 C888.42 1353.435 888.09 1355.745 887.75 1358.125 C887.09 1358.125 886.43 1358.125 885.75 1358.125 C885.09 1361.425 884.43 1364.725 883.75 1368.125 C883.09 1368.125 882.43 1368.125 881.75 1368.125 C881.42 1370.105 881.09 1372.085 880.75 1374.125 C880.09 1374.125 879.43 1374.125 878.75 1374.125 C878.09 1377.095 877.43 1380.065 876.75 1383.125 C876.09 1383.125 875.43 1383.125 874.75 1383.125 C874.42 1385.105 874.09 1387.085 873.75 1389.125 C873.09 1389.125 872.43 1389.125 871.75 1389.125 C871.6675 1389.95 871.585 1390.775 871.5 1391.625 C870.58552731 1395.89253921 868.82776822 1399.31736894 866.75 1403.125 C866.09 1403.125 865.43 1403.125 864.75 1403.125 C864.42 1405.105 864.09 1407.085 863.75 1409.125 C863.09 1409.125 862.43 1409.125 861.75 1409.125 C861.605625 1409.888125 861.46125 1410.65125 861.3125 1411.4375 C860.75 1414.125 860.75 1414.125 859.75 1417.125 C859.09 1417.125 858.43 1417.125 857.75 1417.125 C857.42 1419.105 857.09 1421.085 856.75 1423.125 C856.09 1423.125 855.43 1423.125 854.75 1423.125 C854.605625 1423.7025 854.46125 1424.28 854.3125 1424.875 C853.79166667 1426.95833333 853.27083333 1429.04166667 852.75 1431.125 C852.09 1431.125 851.43 1431.125 850.75 1431.125 C850.42 1432.775 850.09 1434.425 849.75 1436.125 C849.09 1436.125 848.43 1436.125 847.75 1436.125 C847.09 1438.765 846.43 1441.405 845.75 1444.125 C845.09 1444.125 844.43 1444.125 843.75 1444.125 C843.42 1445.445 843.09 1446.765 842.75 1448.125 C842.09 1448.125 841.43 1448.125 840.75 1448.125 C840.42 1450.105 840.09 1452.085 839.75 1454.125 C839.09 1454.125 838.43 1454.125 837.75 1454.125 C837.605625 1454.723125 837.46125 1455.32125 837.3125 1455.9375 C836.8627561 1457.68650404 836.32107659 1459.41177023 835.75 1461.125 C835.09 1461.455 834.43 1461.785 833.75 1462.125 C833.42 1463.115 833.09 1464.105 832.75 1465.125 C832.09 1465.125 831.43 1465.125 830.75 1465.125 C830.42 1467.105 830.09 1469.085 829.75 1471.125 C828.76 1471.455 827.77 1471.785 826.75 1472.125 C826.564375 1473.5790625 826.564375 1473.5790625 826.375 1475.0625 C826.065625 1476.5784375 826.065625 1476.5784375 825.75 1478.125 C825.09 1478.455 824.43 1478.785 823.75 1479.125 C823.42 1480.115 823.09 1481.105 822.75 1482.125 C821.75 1485.125 821.75 1485.125 819.75 1486.125 C819.42 1487.115 819.09 1488.105 818.75 1489.125 C818.09 1489.125 817.43 1489.125 816.75 1489.125 C816.42 1490.445 816.09 1491.765 815.75 1493.125 C815.09 1493.125 814.43 1493.125 813.75 1493.125 C813.3478125 1494.7646875 813.3478125 1494.7646875 812.9375 1496.4375 C811.38494968 1501.25857731 811.38494968 1501.25857731 808.75 1503.125 C808.09 1503.125 807.43 1503.125 806.75 1503.125 C806.42 1505.105 806.09 1507.085 805.75 1509.125 C804.76 1509.455 803.77 1509.785 802.75 1510.125 C802.42 1511.775 802.09 1513.425 801.75 1515.125 C801.09 1515.125 800.43 1515.125 799.75 1515.125 C799.46125 1516.259375 799.1725 1517.39375 798.875 1518.5625 C798.50375 1519.738125 798.1325 1520.91375 797.75 1522.125 C797.09 1522.455 796.43 1522.785 795.75 1523.125 C795.42 1524.115 795.09 1525.105 794.75 1526.125 C793.77351983 1527.14797922 792.76868662 1528.14404252 791.75 1529.125 C791.069375 1530.011875 790.38875 1530.89875 789.6875 1531.8125 C788.7284375 1532.9571875 788.7284375 1532.9571875 787.75 1534.125 C787.09 1534.125 786.43 1534.125 785.75 1534.125 C785.42 1535.775 785.09 1537.425 784.75 1539.125 C784.09 1539.125 783.43 1539.125 782.75 1539.125 C782.09 1540.775 781.43 1542.425 780.75 1544.125 C780.09 1544.125 779.43 1544.125 778.75 1544.125 C778.42 1545.445 778.09 1546.765 777.75 1548.125 C777.09 1548.125 776.43 1548.125 775.75 1548.125 C775.42 1549.775 775.09 1551.425 774.75 1553.125 C773.76 1553.455 772.77 1553.785 771.75 1554.125 C771.01676204 1556.14008358 771.01676204 1556.14008358 770.75 1558.125 C770.09 1558.125 769.43 1558.125 768.75 1558.125 C768.46125 1559.094375 768.1725 1560.06375 767.875 1561.0625 C766.75 1564.125 766.75 1564.125 764.75 1565.125 C764.42 1566.115 764.09 1567.105 763.75 1568.125 C763.09 1568.125 762.43 1568.125 761.75 1568.125 C761.42 1569.115 761.09 1570.105 760.75 1571.125 C759.75 1572.125 758.75 1573.125 757.75 1574.125 C757.42 1575.115 757.09 1576.105 756.75 1577.125 C755.945625 1577.764375 755.14125 1578.40375 754.3125 1579.0625 C751.85694869 1581.03891935 750.87960279 1582.24964744 749.75 1585.125 C749.09 1585.125 748.43 1585.125 747.75 1585.125 C747.42 1586.115 747.09 1587.105 746.75 1588.125 C746.09 1588.455 745.43 1588.785 744.75 1589.125 C744.481875 1589.929375 744.21375 1590.73375 743.9375 1591.5625 C742.75 1594.125 742.75 1594.125 740.1875 1595.125 C739.383125 1595.455 738.57875 1595.785 737.75 1596.125 C737.605625 1596.888125 737.46125 1597.65125 737.3125 1598.4375 C736.48150645 1602.40780252 733.84564672 1603.67427968 730.75 1606.125 C730.42 1607.115 730.09 1608.105 729.75 1609.125 C729.09 1609.125 728.43 1609.125 727.75 1609.125 C727.09 1610.445 726.43 1611.765 725.75 1613.125 C725.09 1613.125 724.43 1613.125 723.75 1613.125 C723.42 1614.115 723.09 1615.105 722.75 1616.125 C722.09 1616.125 721.43 1616.125 720.75 1616.125 C720.440625 1617.4553125 720.440625 1617.4553125 720.125 1618.8125 C718.42296376 1622.91286004 716.21938848 1624.41887699 712.75 1627.125 C711.39843325 1628.77691491 710.06037934 1630.44022656 708.75 1632.125 C708.09 1632.455 707.43 1632.785 706.75 1633.125 C706.42 1634.115 706.09 1635.105 705.75 1636.125 C703.8125 1638.3125 703.8125 1638.3125 701.75 1640.125 C701.09 1640.125 700.43 1640.125 699.75 1640.125 C699.42 1641.115 699.09 1642.105 698.75 1643.125 C696.8125 1645.3125 696.8125 1645.3125 694.75 1647.125 C694.09 1647.125 693.43 1647.125 692.75 1647.125 C692.42 1648.115 692.09 1649.105 691.75 1650.125 C689.8125 1652.3125 689.8125 1652.3125 687.75 1654.125 C687.09 1654.125 686.43 1654.125 685.75 1654.125 C685.42 1655.115 685.09 1656.105 684.75 1657.125 C684.09 1657.125 683.43 1657.125 682.75 1657.125 C682.42 1658.115 682.09 1659.105 681.75 1660.125 C679.8125 1662.3125 679.8125 1662.3125 677.75 1664.125 C677.09 1664.125 676.43 1664.125 675.75 1664.125 C675.42 1665.115 675.09 1666.105 674.75 1667.125 C672.8125 1669.3125 672.8125 1669.3125 670.75 1671.125 C670.09 1671.125 669.43 1671.125 668.75 1671.125 C668.42 1672.115 668.09 1673.105 667.75 1674.125 C665.6875 1674.8125 665.6875 1674.8125 663.75 1675.125 C663.75 1675.785 663.75 1676.445 663.75 1677.125 C662.17578125 1678.640625 662.17578125 1678.640625 660.0625 1680.375 C657.44210526 1682.59261321 655.08423833 1684.75736964 652.9375 1687.4375 C650.75 1690.125 650.75 1690.125 647.75 1692.125 C646.76 1692.125 645.77 1692.125 644.75 1692.125 C644.42 1693.115 644.09 1694.105 643.75 1695.125 C643.09 1695.125 642.43 1695.125 641.75 1695.125 C641.09 1696.445 640.43 1697.765 639.75 1699.125 C639.09 1699.125 638.43 1699.125 637.75 1699.125 C637.42 1700.115 637.09 1701.105 636.75 1702.125 C635.76 1702.125 634.77 1702.125 633.75 1702.125 C633.42 1703.115 633.09 1704.105 632.75 1705.125 C631.10360035 1706.48327971 629.43704193 1707.81754251 627.75 1709.125 C627.42 1709.785 627.09 1710.445 626.75 1711.125 C623.84949171 1713.00641079 620.86343005 1714.62594109 617.75 1716.125 C617.75 1716.785 617.75 1717.445 617.75 1718.125 C617.110625 1718.228125 616.47125 1718.33125 615.8125 1718.4375 C615.131875 1718.664375 614.45125 1718.89125 613.75 1719.125 C613.42 1720.115 613.09 1721.105 612.75 1722.125 C610.6875 1722.8125 610.6875 1722.8125 608.75 1723.125 C608.75 1723.785 608.75 1724.445 608.75 1725.125 C603.27380952 1730.125 603.27380952 1730.125 600.75 1730.125 C600.75 1730.785 600.75 1731.445 600.75 1732.125 C600.110625 1732.228125 599.47125 1732.33125 598.8125 1732.4375 C598.131875 1732.664375 597.45125 1732.89125 596.75 1733.125 C596.42 1734.115 596.09 1735.105 595.75 1736.125 C594.76 1736.125 593.77 1736.125 592.75 1736.125 C592.42 1737.115 592.09 1738.105 591.75 1739.125 C590.574375 1739.24875 590.574375 1739.24875 589.375 1739.375 C588.075625 1739.74625 588.075625 1739.74625 586.75 1740.125 C586.04848848 1741.4403341 585.38474075 1742.77617592 584.75 1744.125 C583.10857037 1745.1659066 581.44287785 1746.17004326 579.75 1747.125 C579.42 1747.785 579.09 1748.445 578.75 1749.125 C577.76 1749.455 576.77 1749.785 575.75 1750.125 C575.255 1750.62 574.76 1751.115 574.25 1751.625 C572.75 1753.125 572.75 1753.125 569.75 1754.125 C569.09 1755.115 568.43 1756.105 567.75 1757.125 C567.09 1757.125 566.43 1757.125 565.75 1757.125 C565.75 1757.785 565.75 1758.445 565.75 1759.125 C563.10261084 1760.5856285 561.85551666 1761.125 558.75 1761.125 C558.42 1762.115 558.09 1763.105 557.75 1764.125 C556.76 1764.125 555.77 1764.125 554.75 1764.125 C554.42 1765.115 554.09 1766.105 553.75 1767.125 C552.76 1767.125 551.77 1767.125 550.75 1767.125 C550.75 1767.785 550.75 1768.445 550.75 1769.125 C549.96625 1769.393125 549.1825 1769.66125 548.375 1769.9375 C545.46885077 1770.97314432 545.46885077 1770.97314432 543.75 1774.125 C542.76 1774.125 541.77 1774.125 540.75 1774.125 C540.75 1774.785 540.75 1775.445 540.75 1776.125 C538.77 1776.785 536.79 1777.445 534.75 1778.125 C534.75 1778.785 534.75 1779.445 534.75 1780.125 C533.76 1780.455 532.77 1780.785 531.75 1781.125 C531.42 1781.785 531.09 1782.445 530.75 1783.125 C528.12418862 1784.70048683 526.87900213 1785.125 523.75 1785.125 C523.75 1785.785 523.75 1786.445 523.75 1787.125 C522.43 1787.455 521.11 1787.785 519.75 1788.125 C519.75 1788.785 519.75 1789.445 519.75 1790.125 C518.1 1790.455 516.45 1790.785 514.75 1791.125 C514.75 1791.785 514.75 1792.445 514.75 1793.125 C512.44 1793.785 510.13 1794.445 507.75 1795.125 C507.75 1795.785 507.75 1796.445 507.75 1797.125 C506.43 1797.455 505.11 1797.785 503.75 1798.125 C503.75 1798.785 503.75 1799.445 503.75 1800.125 C501.44 1800.785 499.13 1801.445 496.75 1802.125 C496.75 1802.785 496.75 1803.445 496.75 1804.125 C494.77 1804.455 492.79 1804.785 490.75 1805.125 C490.42 1806.115 490.09 1807.105 489.75 1808.125 C487.77 1808.455 485.79 1808.785 483.75 1809.125 C483.42 1810.115 483.09 1811.105 482.75 1812.125 C481.76 1812.125 480.77 1812.125 479.75 1812.125 C479.75 1812.785 479.75 1813.445 479.75 1814.125 C477.75 1815.125 475.75 1816.125 473.75 1817.125 C473.028125 1817.516875 472.30625 1817.90875 471.5625 1818.3125 C469.75 1819.125 469.75 1819.125 466.75 1819.125 C466.75 1819.785 466.75 1820.445 466.75 1821.125 C465.1 1821.455 463.45 1821.785 461.75 1822.125 C461.75 1822.785 461.75 1823.445 461.75 1824.125 C459.10261084 1825.5856285 457.85551666 1826.125 454.75 1826.125 C454.75 1826.785 454.75 1827.445 454.75 1828.125 C452.77 1828.455 450.79 1828.785 448.75 1829.125 C448.75 1829.785 448.75 1830.445 448.75 1831.125 C446.10261084 1832.5856285 444.85551666 1833.125 441.75 1833.125 C441.75 1833.785 441.75 1834.445 441.75 1835.125 C439.77 1835.455 437.79 1835.785 435.75 1836.125 C435.75 1836.785 435.75 1837.445 435.75 1838.125 C432.84399739 1839.38164978 430.95395416 1840.125 427.75 1840.125 C427.75 1840.785 427.75 1841.445 427.75 1842.125 C425.77 1842.455 423.79 1842.785 421.75 1843.125 C421.75 1843.785 421.75 1844.445 421.75 1845.125 C420.7909375 1845.310625 420.7909375 1845.310625 419.8125 1845.5 C418.7915625 1845.809375 418.7915625 1845.809375 417.75 1846.125 C417.42 1846.785 417.09 1847.445 416.75 1848.125 C414.46484375 1848.7578125 414.46484375 1848.7578125 411.6875 1849.25 C410.76839844 1849.41757813 409.84929687 1849.58515625 408.90234375 1849.7578125 C408.19207031 1849.87898438 407.48179688 1850.00015625 406.75 1850.125 C406.75 1850.785 406.75 1851.445 406.75 1852.125 C404.77 1852.455 402.79 1852.785 400.75 1853.125 C400.75 1853.785 400.75 1854.445 400.75 1855.125 C397.45 1855.785 394.15 1856.445 390.75 1857.125 C390.75 1857.785 390.75 1858.445 390.75 1859.125 C388.44 1859.455 386.13 1859.785 383.75 1860.125 C383.75 1860.785 383.75 1861.445 383.75 1862.125 C380.24223216 1863.72855101 377.60645121 1864.34536864 373.75 1864.125 C373.75 1864.785 373.75 1865.445 373.75 1866.125 C372.1 1866.455 370.45 1866.785 368.75 1867.125 C368.75 1867.785 368.75 1868.445 368.75 1869.125 C367.739375 1869.393125 366.72875 1869.66125 365.6875 1869.9375 C362.98816234 1870.69549583 360.71868554 1871.58731338 358.125 1872.75 C354.96569454 1874.03712445 353.09546705 1874.42913337 349.75 1874.125 C349.75 1874.785 349.75 1875.445 349.75 1876.125 C347.44 1876.455 345.13 1876.785 342.75 1877.125 C342.75 1877.785 342.75 1878.445 342.75 1879.125 C339.12 1879.785 335.49 1880.445 331.75 1881.125 C331.75 1881.785 331.75 1882.445 331.75 1883.125 C329.11 1883.455 326.47 1883.785 323.75 1884.125 C323.75 1884.785 323.75 1885.445 323.75 1886.125 C319.6303623 1887.41743536 316.08168317 1888.38752625 311.75 1888.125 C311.75 1888.785 311.75 1889.445 311.75 1890.125 C309.11 1890.455 306.47 1890.785 303.75 1891.125 C303.75 1891.785 303.75 1892.445 303.75 1893.125 C300.78 1893.455 297.81 1893.785 294.75 1894.125 C294.75 1894.785 294.75 1895.445 294.75 1896.125 C293.1676994 1896.46320166 291.58410625 1896.79535939 290 1897.125 C289.11828125 1897.310625 288.2365625 1897.49625 287.328125 1897.6875 C284.75 1898.125 284.75 1898.125 280.75 1898.125 C280.75 1898.785 280.75 1899.445 280.75 1900.125 C278.11 1900.455 275.47 1900.785 272.75 1901.125 C272.75 1901.785 272.75 1902.445 272.75 1903.125 C271.1676994 1903.46320166 269.58410625 1903.79535939 268 1904.125 C267.11828125 1904.310625 266.2365625 1904.49625 265.328125 1904.6875 C262.75 1905.125 262.75 1905.125 258.75 1905.125 C258.75 1905.785 258.75 1906.445 258.75 1907.125 C254.79 1907.455 250.83 1907.785 246.75 1908.125 C246.75 1908.785 246.75 1909.445 246.75 1910.125 C235.22835991 1912.42112756 235.22835991 1912.42112756 229.75 1912.125 C229.75 1912.785 229.75 1913.445 229.75 1914.125 C226.12 1914.455 222.49 1914.785 218.75 1915.125 C218.75 1915.785 218.75 1916.445 218.75 1917.125 C205.1167426 1919.42112756 205.1167426 1919.42112756 198.75 1919.125 C198.75 1919.785 198.75 1920.445 198.75 1921.125 C194.6972484 1922.10748524 190.91138263 1922.20659574 186.75 1922.125 C186.75 1922.785 186.75 1923.445 186.75 1924.125 C182.13 1924.455 177.51 1924.785 172.75 1925.125 C172.75 1925.785 172.75 1926.445 172.75 1927.125 C163.71301675 1928.2991788 154.88338455 1929.41494872 145.75 1929.125 C145.75 1929.785 145.75 1930.445 145.75 1931.125 C140.14 1931.455 134.53 1931.785 128.75 1932.125 C128.75 1932.785 128.75 1933.445 128.75 1934.125 C116.40077713 1935.32513125 104.17068542 1936.51247372 91.75 1936.125 C91.75 1936.785 91.75 1937.445 91.75 1938.125 C79.74494383 1939.27224086 67.79750524 1939.2313689 55.75 1939.125 C55.75 1939.785 55.75 1940.445 55.75 1941.125 C37.81020678 1942.07484774 19.89481747 1942.28773659 1.93427658 1942.25357056 C-0.21324039 1942.24995668 -2.36075061 1942.24837248 -4.50827026 1942.24731445 C-25.10004472 1942.23469833 -45.67655787 1942.07032742 -66.25 1941.125 C-66.25 1940.465 -66.25 1939.805 -66.25 1939.125 C-67.31476562 1939.13660156 -68.37953125 1939.14820313 -69.4765625 1939.16015625 C-78.79366745 1939.22916386 -87.96246986 1938.9492499 -97.25 1938.125 C-97.25 1937.465 -97.25 1936.805 -97.25 1936.125 C-98.08917969 1936.14820313 -98.92835938 1936.17140625 -99.79296875 1936.1953125 C-111.04066665 1936.36408825 -122.07506009 1935.33921107 -133.25 1934.125 C-133.25 1933.465 -133.25 1932.805 -133.25 1932.125 C-134.00023437 1932.13660156 -134.75046875 1932.14820313 -135.5234375 1932.16015625 C-142.17337417 1932.2187829 -148.65004873 1931.94269308 -155.25 1931.125 C-155.25 1930.465 -155.25 1929.805 -155.25 1929.125 C-156.31476562 1929.08761719 -157.37953125 1929.05023437 -158.4765625 1929.01171875 C-166.98108723 1928.64919528 -174.90076927 1927.78636655 -183.19921875 1925.82421875 C-186.88088267 1924.98040589 -190.49533799 1924.5004662 -194.25 1924.125 C-194.25 1923.465 -194.25 1922.805 -194.25 1922.125 C-198.87 1921.795 -203.49 1921.465 -208.25 1921.125 C-208.25 1920.465 -208.25 1919.805 -208.25 1919.125 C-209.42755859 1919.03412109 -209.42755859 1919.03412109 -210.62890625 1918.94140625 C-216.20361148 1918.49679786 -221.72640616 1918.00375357 -227.25 1917.125 C-227.25 1916.465 -227.25 1915.805 -227.25 1915.125 C-230.88 1914.795 -234.51 1914.465 -238.25 1914.125 C-238.25 1913.465 -238.25 1912.805 -238.25 1912.125 C-238.97445312 1912.06441406 -239.69890625 1912.00382812 -240.4453125 1911.94140625 C-245.42116533 1911.51016567 -250.33680391 1911.05452359 -255.25 1910.125 C-255.25 1909.465 -255.25 1908.805 -255.25 1908.125 C-258.55 1907.795 -261.85 1907.465 -265.25 1907.125 C-265.25 1906.465 -265.25 1905.805 -265.25 1905.125 C-266.24580078 1905.03412109 -266.24580078 1905.03412109 -267.26171875 1904.94140625 C-276.03207381 1904.10918278 -276.03207381 1904.10918278 -280.25 1903.125 C-280.25 1902.465 -280.25 1901.805 -280.25 1901.125 C-283.55 1900.795 -286.85 1900.465 -290.25 1900.125 C-290.25 1899.465 -290.25 1898.805 -290.25 1898.125 C-291.0853125 1898.06892578 -291.0853125 1898.06892578 -291.9375 1898.01171875 C-297.55933419 1897.52740533 -302.02961689 1896.24854567 -307.25 1894.125 C-308.5781172 1893.77145567 -309.91047939 1893.43252791 -311.25 1893.125 C-311.25 1892.465 -311.25 1891.805 -311.25 1891.125 C-314.22 1890.795 -317.19 1890.465 -320.25 1890.125 C-320.25 1889.465 -320.25 1888.805 -320.25 1888.125 C-321.4875 1887.980625 -322.725 1887.83625 -324 1887.6875 C-326.81504499 1887.33811498 -329.5201497 1886.92120634 -332.25 1886.125 C-332.25 1885.465 -332.25 1884.805 -332.25 1884.125 C-334.56 1883.795 -336.87 1883.465 -339.25 1883.125 C-339.25 1882.465 -339.25 1881.805 -339.25 1881.125 C-340.17232422 1881.03412109 -340.17232422 1881.03412109 -341.11328125 1880.94140625 C-342.32564453 1880.81572266 -342.32564453 1880.81572266 -343.5625 1880.6875 C-344.36300781 1880.60628906 -345.16351562 1880.52507812 -345.98828125 1880.44140625 C-348.25 1880.125 -348.25 1880.125 -351.25 1879.125 C-351.25 1878.465 -351.25 1877.805 -351.25 1877.125 C-353.56 1876.795 -355.87 1876.465 -358.25 1876.125 C-358.25 1875.465 -358.25 1874.805 -358.25 1874.125 C-358.806875 1874.01542969 -359.36375 1873.90585938 -359.9375 1873.79296875 C-365.28341031 1872.68224752 -370.18063816 1871.15274474 -375.25 1869.125 C-375.25 1868.465 -375.25 1867.805 -375.25 1867.125 C-377.56 1866.795 -379.87 1866.465 -382.25 1866.125 C-382.25 1865.465 -382.25 1864.805 -382.25 1864.125 C-383.343125 1863.980625 -384.43625 1863.83625 -385.5625 1863.6875 C-389.25 1863.125 -389.25 1863.125 -392.25 1862.125 C-392.25 1861.465 -392.25 1860.805 -392.25 1860.125 C-394.56 1859.795 -396.87 1859.465 -399.25 1859.125 C-399.25 1858.465 -399.25 1857.805 -399.25 1857.125 C-400.013125 1856.980625 -400.77625 1856.83625 -401.5625 1856.6875 C-404.25 1856.125 -404.25 1856.125 -407.25 1855.125 C-407.25 1854.465 -407.25 1853.805 -407.25 1853.125 C-409.56 1852.795 -411.87 1852.465 -414.25 1852.125 C-414.25 1851.465 -414.25 1850.805 -414.25 1850.125 C-417.22 1849.465 -420.19 1848.805 -423.25 1848.125 C-423.25 1847.465 -423.25 1846.805 -423.25 1846.125 C-424.9 1845.795 -426.55 1845.465 -428.25 1845.125 C-428.25 1844.465 -428.25 1843.805 -428.25 1843.125 C-430.56 1842.795 -432.87 1842.465 -435.25 1842.125 C-435.25 1841.465 -435.25 1840.805 -435.25 1840.125 C-436.03375 1839.980625 -436.8175 1839.83625 -437.625 1839.6875 C-440.25 1839.125 -440.25 1839.125 -442.25 1838.125 C-442.25 1837.465 -442.25 1836.805 -442.25 1836.125 C-444.23 1835.795 -446.21 1835.465 -448.25 1835.125 C-448.25 1834.465 -448.25 1833.805 -448.25 1833.125 C-449.075 1833.0425 -449.9 1832.96 -450.75 1832.875 C-455.01753921 1831.96052731 -458.44236894 1830.20276822 -462.25 1828.125 C-462.25 1827.465 -462.25 1826.805 -462.25 1826.125 C-462.848125 1825.980625 -463.44625 1825.83625 -464.0625 1825.6875 C-465.81150404 1825.2377561 -467.53677023 1824.69607659 -469.25 1824.125 C-469.25 1823.465 -469.25 1822.805 -469.25 1822.125 C-471.23 1821.795 -473.21 1821.465 -475.25 1821.125 C-475.25 1820.465 -475.25 1819.805 -475.25 1819.125 C-476.013125 1818.980625 -476.77625 1818.83625 -477.5625 1818.6875 C-480.25 1818.125 -480.25 1818.125 -483.25 1817.125 C-483.25 1816.465 -483.25 1815.805 -483.25 1815.125 C-484.9 1814.795 -486.55 1814.465 -488.25 1814.125 C-488.25 1813.465 -488.25 1812.805 -488.25 1812.125 C-489.57 1811.795 -490.89 1811.465 -492.25 1811.125 C-492.25 1810.465 -492.25 1809.805 -492.25 1809.125 C-493.03375 1808.980625 -493.8175 1808.83625 -494.625 1808.6875 C-497.25 1808.125 -497.25 1808.125 -499.25 1807.125 C-499.25 1806.465 -499.25 1805.805 -499.25 1805.125 C-500.9 1804.795 -502.55 1804.465 -504.25 1804.125 C-504.25 1803.465 -504.25 1802.805 -504.25 1802.125 C-505.8278125 1801.7228125 -505.8278125 1801.7228125 -507.4375 1801.3125 C-510.84072912 1800.25247781 -513.38158918 1799.21111696 -516.25 1797.125 C-516.25 1796.465 -516.25 1795.805 -516.25 1795.125 C-516.848125 1794.980625 -517.44625 1794.83625 -518.0625 1794.6875 C-519.81150404 1794.2377561 -521.53677023 1793.69607659 -523.25 1793.125 C-523.58 1792.465 -523.91 1791.805 -524.25 1791.125 C-525.24 1790.795 -526.23 1790.465 -527.25 1790.125 C-527.25 1789.465 -527.25 1788.805 -527.25 1788.125 C-528.57 1787.795 -529.89 1787.465 -531.25 1787.125 C-531.25 1786.465 -531.25 1785.805 -531.25 1785.125 C-532.03375 1784.980625 -532.8175 1784.83625 -533.625 1784.6875 C-536.25 1784.125 -536.25 1784.125 -538.25 1783.125 C-538.25 1782.465 -538.25 1781.805 -538.25 1781.125 C-539.054375 1781.00125 -539.85875 1780.8775 -540.6875 1780.75 C-541.9559375 1780.440625 -541.9559375 1780.440625 -543.25 1780.125 C-543.58 1779.465 -543.91 1778.805 -544.25 1778.125 C-546.26669827 1776.99149466 -546.26669827 1776.99149466 -548.25 1776.125 C-548.25 1775.465 -548.25 1774.805 -548.25 1774.125 C-549.57 1773.795 -550.89 1773.465 -552.25 1773.125 C-552.25 1772.465 -552.25 1771.805 -552.25 1771.125 C-552.930625 1771.0425 -553.61125 1770.96 -554.3125 1770.875 C-559.17187089 1769.63430956 -564.12389527 1767.1705473 -567.25 1763.125 C-567.25 1762.465 -567.25 1761.805 -567.25 1761.125 C-568.9 1760.465 -570.55 1759.805 -572.25 1759.125 C-572.25 1758.465 -572.25 1757.805 -572.25 1757.125 C-573.57 1756.795 -574.89 1756.465 -576.25 1756.125 C-576.25 1755.465 -576.25 1754.805 -576.25 1754.125 C-578.23 1753.465 -580.21 1752.805 -582.25 1752.125 C-582.25 1751.465 -582.25 1750.805 -582.25 1750.125 C-583.57 1749.795 -584.89 1749.465 -586.25 1749.125 C-586.25 1748.465 -586.25 1747.805 -586.25 1747.125 C-587.219375 1746.83625 -588.18875 1746.5475 -589.1875 1746.25 C-592.25 1745.125 -592.25 1745.125 -593.25 1743.125 C-594.24 1742.795 -595.23 1742.465 -596.25 1742.125 C-596.25 1741.465 -596.25 1740.805 -596.25 1740.125 C-597.57 1739.465 -598.89 1738.805 -600.25 1738.125 C-600.25 1737.465 -600.25 1736.805 -600.25 1736.125 C-601.054375 1736.00125 -601.85875 1735.8775 -602.6875 1735.75 C-603.9559375 1735.440625 -603.9559375 1735.440625 -605.25 1735.125 C-605.58 1734.465 -605.91 1733.805 -606.25 1733.125 C-607.24 1732.795 -608.23 1732.465 -609.25 1732.125 C-611.4375 1730.1875 -611.4375 1730.1875 -613.25 1728.125 C-613.25 1727.465 -613.25 1726.805 -613.25 1726.125 C-614.57 1725.795 -615.89 1725.465 -617.25 1725.125 C-617.25 1724.465 -617.25 1723.805 -617.25 1723.125 C-618.054375 1722.83625 -618.85875 1722.5475 -619.6875 1722.25 C-622.25 1721.125 -622.25 1721.125 -623.25 1719.125 C-624.24 1718.795 -625.23 1718.465 -626.25 1718.125 C-628.4375 1716.1875 -628.4375 1716.1875 -630.25 1714.125 C-630.25 1713.465 -630.25 1712.805 -630.25 1712.125 C-631.57 1711.795 -632.89 1711.465 -634.25 1711.125 C-634.25 1710.465 -634.25 1709.805 -634.25 1709.125 C-635.24 1708.795 -636.23 1708.465 -637.25 1708.125 C-637.25 1707.465 -637.25 1706.805 -637.25 1706.125 C-638.57 1705.465 -639.89 1704.805 -641.25 1704.125 C-641.25 1703.465 -641.25 1702.805 -641.25 1702.125 C-641.971875 1702.08375 -642.69375 1702.0425 -643.4375 1702 C-647.39196163 1700.76972305 -648.78398317 1698.36975899 -651.25 1695.125 C-653.38188271 1692.73729137 -655.32472597 1691.43632974 -658.25 1690.125 C-658.25 1689.465 -658.25 1688.805 -658.25 1688.125 C-659.24 1687.795 -660.23 1687.465 -661.25 1687.125 C-662.58333333 1685.45833333 -663.91666667 1683.79166667 -665.25 1682.125 C-666.24 1681.795 -667.23 1681.465 -668.25 1681.125 C-668.25 1680.135 -668.25 1679.145 -668.25 1678.125 C-669.24 1677.795 -670.23 1677.465 -671.25 1677.125 C-671.25 1676.465 -671.25 1675.805 -671.25 1675.125 C-671.86875 1674.980625 -672.4875 1674.83625 -673.125 1674.6875 C-675.25 1674.125 -675.25 1674.125 -677.25 1673.125 C-677.25 1672.135 -677.25 1671.145 -677.25 1670.125 C-677.91 1670.125 -678.57 1670.125 -679.25 1670.125 C-679.25 1669.465 -679.25 1668.805 -679.25 1668.125 C-680.03375 1667.898125 -680.8175 1667.67125 -681.625 1667.4375 C-684.93762108 1665.78118946 -684.99014357 1664.48461714 -686.25 1661.125 C-687.56403276 1660.42105388 -688.9020257 1659.76154342 -690.25 1659.125 C-692.39954892 1657.26521871 -694.45265555 1655.32974252 -696.25 1653.125 C-696.25 1652.465 -696.25 1651.805 -696.25 1651.125 C-697.03375 1650.898125 -697.8175 1650.67125 -698.625 1650.4375 C-701.9494647 1648.77526765 -701.91486458 1647.46283856 -703.25 1644.125 C-704.075 1643.795 -704.9 1643.465 -705.75 1643.125 C-708.25 1642.125 -708.25 1642.125 -709.375 1639.625 C-709.808125 1638.3875 -709.808125 1638.3875 -710.25 1637.125 C-711.24 1636.465 -712.23 1635.805 -713.25 1635.125 C-713.25 1634.465 -713.25 1633.805 -713.25 1633.125 C-714.24 1632.795 -715.23 1632.465 -716.25 1632.125 C-716.25 1631.465 -716.25 1630.805 -716.25 1630.125 C-717.24 1629.795 -718.23 1629.465 -719.25 1629.125 C-721.4375 1627.25 -721.4375 1627.25 -723.25 1625.125 C-723.25 1624.135 -723.25 1623.145 -723.25 1622.125 C-723.91 1622.125 -724.57 1622.125 -725.25 1622.125 C-726.45338161 1620.68762752 -727.65158019 1619.24531797 -728.8125 1617.7734375 C-730.25924689 1616.11439624 -731.74701841 1614.88566399 -733.5 1613.5625 C-736.25 1611.125 -736.25 1611.125 -737.125 1608.3125 C-737.16625 1607.590625 -737.2075 1606.86875 -737.25 1606.125 C-738.24 1605.795 -739.23 1605.465 -740.25 1605.125 C-742.4375 1603.25 -742.4375 1603.25 -744.25 1601.125 C-744.25 1600.135 -744.25 1599.145 -744.25 1598.125 C-744.91 1598.125 -745.57 1598.125 -746.25 1598.125 C-748.845403 1596.00148846 -750.12723904 1594.86156574 -750.6875 1591.5 C-750.873125 1590.71625 -751.05875 1589.9325 -751.25 1589.125 C-753.67383077 1587.95546584 -753.67383077 1587.95546584 -756.25 1587.125 C-758.25 1584.125 -758.25 1584.125 -758.25 1581.125 C-759.24 1580.795 -760.23 1580.465 -761.25 1580.125 C-761.25 1579.465 -761.25 1578.805 -761.25 1578.125 C-762.24 1577.795 -763.23 1577.465 -764.25 1577.125 C-764.311875 1576.34125 -764.37375 1575.5575 -764.4375 1574.75 C-764.8396875 1573.450625 -764.8396875 1573.450625 -765.25 1572.125 C-766.075 1571.795 -766.9 1571.465 -767.75 1571.125 C-768.575 1570.795 -769.4 1570.465 -770.25 1570.125 C-771.0625 1567.5 -771.0625 1567.5 -771.25 1565.125 C-772.24 1564.795 -773.23 1564.465 -774.25 1564.125 C-774.58 1563.135 -774.91 1562.145 -775.25 1561.125 C-776.22648017 1560.10202078 -777.23131338 1559.10595748 -778.25 1558.125 C-782.25 1553.43928571 -782.25 1553.43928571 -782.25 1551.125 C-782.91 1551.125 -783.57 1551.125 -784.25 1551.125 C-784.58 1550.135 -784.91 1549.145 -785.25 1548.125 C-785.91 1547.795 -786.57 1547.465 -787.25 1547.125 C-787.559375 1546.135 -787.86875 1545.145 -788.1875 1544.125 C-788.538125 1543.135 -788.88875 1542.145 -789.25 1541.125 C-790.24 1540.795 -791.23 1540.465 -792.25 1540.125 C-792.25 1539.135 -792.25 1538.145 -792.25 1537.125 C-793.24 1536.795 -794.23 1536.465 -795.25 1536.125 C-795.58 1535.135 -795.91 1534.145 -796.25 1533.125 C-796.765625 1532.63 -797.28125 1532.135 -797.8125 1531.625 C-799.25 1530.125 -799.25 1530.125 -799.25 1527.125 C-799.91 1527.125 -800.57 1527.125 -801.25 1527.125 C-801.58 1526.135 -801.91 1525.145 -802.25 1524.125 C-803.24 1523.465 -804.23 1522.805 -805.25 1522.125 C-805.9375 1519.5 -805.9375 1519.5 -806.25 1517.125 C-806.91 1517.125 -807.57 1517.125 -808.25 1517.125 C-808.58 1515.805 -808.91 1514.485 -809.25 1513.125 C-809.91 1513.125 -810.57 1513.125 -811.25 1513.125 C-812.7106285 1510.47761084 -813.25 1509.23051666 -813.25 1506.125 C-814.24 1505.795 -815.23 1505.465 -816.25 1505.125 C-816.25 1504.135 -816.25 1503.145 -816.25 1502.125 C-817.24 1501.795 -818.23 1501.465 -819.25 1501.125 C-819.58 1499.475 -819.91 1497.825 -820.25 1496.125 C-820.91 1496.125 -821.57 1496.125 -822.25 1496.125 C-822.58 1494.475 -822.91 1492.825 -823.25 1491.125 C-823.91 1491.125 -824.57 1491.125 -825.25 1491.125 C-825.58 1489.475 -825.91 1487.825 -826.25 1486.125 C-826.91 1486.125 -827.57 1486.125 -828.25 1486.125 C-829.7106285 1483.47761084 -830.25 1482.23051666 -830.25 1479.125 C-830.91 1479.125 -831.57 1479.125 -832.25 1479.125 C-832.58 1477.805 -832.91 1476.485 -833.25 1475.125 C-833.91 1475.125 -834.57 1475.125 -835.25 1475.125 C-836.7106285 1472.47761084 -837.25 1471.23051666 -837.25 1468.125 C-837.91 1468.125 -838.57 1468.125 -839.25 1468.125 C-839.58 1466.145 -839.91 1464.165 -840.25 1462.125 C-841.24 1461.795 -842.23 1461.465 -843.25 1461.125 C-843.58 1459.145 -843.91 1457.165 -844.25 1455.125 C-844.91 1455.125 -845.57 1455.125 -846.25 1455.125 C-846.58 1453.805 -846.91 1452.485 -847.25 1451.125 C-847.91 1451.125 -848.57 1451.125 -849.25 1451.125 C-849.745 1448.155 -849.745 1448.155 -850.25 1445.125 C-850.91 1445.125 -851.57 1445.125 -852.25 1445.125 C-852.91 1442.815 -853.57 1440.505 -854.25 1438.125 C-854.91 1438.125 -855.57 1438.125 -856.25 1438.125 C-856.58 1436.475 -856.91 1434.825 -857.25 1433.125 C-857.91 1433.125 -858.57 1433.125 -859.25 1433.125 C-859.53875 1432.155625 -859.8275 1431.18625 -860.125 1430.1875 C-860.89214682 1427.01835797 -860.89214682 1427.01835797 -863.25 1426.125 C-863.875 1423.0625 -863.875 1423.0625 -864.25 1420.125 C-864.91 1420.125 -865.57 1420.125 -866.25 1420.125 C-866.91 1417.485 -867.57 1414.845 -868.25 1412.125 C-868.91 1412.125 -869.57 1412.125 -870.25 1412.125 C-870.745 1409.155 -870.745 1409.155 -871.25 1406.125 C-871.91 1406.125 -872.57 1406.125 -873.25 1406.125 C-873.745 1403.155 -873.745 1403.155 -874.25 1400.125 C-874.91 1400.125 -875.57 1400.125 -876.25 1400.125 C-877.50664978 1397.21899739 -878.25 1395.32895416 -878.25 1392.125 C-878.91 1392.125 -879.57 1392.125 -880.25 1392.125 C-880.745 1389.155 -880.745 1389.155 -881.25 1386.125 C-881.91 1386.125 -882.57 1386.125 -883.25 1386.125 C-884.85355101 1382.61723216 -885.47036864 1379.98145121 -885.25 1376.125 C-885.91 1376.125 -886.57 1376.125 -887.25 1376.125 C-887.58 1374.475 -887.91 1372.825 -888.25 1371.125 C-888.91 1371.125 -889.57 1371.125 -890.25 1371.125 C-891.56626692 1367.50526598 -892.25 1365.02932869 -892.25 1361.125 C-892.91 1361.125 -893.57 1361.125 -894.25 1361.125 C-894.58 1358.815 -894.91 1356.505 -895.25 1354.125 C-895.91 1354.125 -896.57 1354.125 -897.25 1354.125 C-898.56626692 1350.50526598 -899.25 1348.02932869 -899.25 1344.125 C-899.91 1344.125 -900.57 1344.125 -901.25 1344.125 C-901.745 1341.155 -901.745 1341.155 -902.25 1338.125 C-902.91 1338.125 -903.57 1338.125 -904.25 1338.125 C-904.58 1335.815 -904.91 1333.505 -905.25 1331.125 C-905.91 1331.125 -906.57 1331.125 -907.25 1331.125 C-908.44287411 1327.24815913 -909.25 1324.20878077 -909.25 1320.125 C-909.91 1320.125 -910.57 1320.125 -911.25 1320.125 C-911.745 1315.67 -911.745 1315.67 -912.25 1311.125 C-912.91 1311.125 -913.57 1311.125 -914.25 1311.125 C-915.44287411 1307.24815913 -916.25 1304.20878077 -916.25 1300.125 C-916.91 1300.125 -917.57 1300.125 -918.25 1300.125 C-918.58 1297.815 -918.91 1295.505 -919.25 1293.125 C-919.91 1293.125 -920.57 1293.125 -921.25 1293.125 C-921.91 1289.495 -922.57 1285.865 -923.25 1282.125 C-923.91 1282.125 -924.57 1282.125 -925.25 1282.125 C-925.58 1278.825 -925.91 1275.525 -926.25 1272.125 C-926.91 1272.125 -927.57 1272.125 -928.25 1272.125 C-930.83459767 1264.45535667 -932.88379732 1257.23638929 -933.25 1249.125 C-933.91 1249.125 -934.57 1249.125 -935.25 1249.125 C-935.58 1246.485 -935.91 1243.845 -936.25 1241.125 C-936.91 1241.125 -937.57 1241.125 -938.25 1241.125 C-939.44088986 1235.74472975 -940.5419519 1230.67208616 -940.25 1225.125 C-940.91 1225.125 -941.57 1225.125 -942.25 1225.125 C-942.58 1221.495 -942.91 1217.865 -943.25 1214.125 C-943.91 1214.125 -944.57 1214.125 -945.25 1214.125 C-945.58776684 1212.3758503 -945.92003671 1210.62563855 -946.25 1208.875 C-946.435625 1207.90046875 -946.62125 1206.9259375 -946.8125 1205.921875 C-947.25 1203.125 -947.25 1203.125 -947.25 1199.125 C-947.91 1199.125 -948.57 1199.125 -949.25 1199.125 C-949.58 1194.835 -949.91 1190.545 -950.25 1186.125 C-950.91 1186.125 -951.57 1186.125 -952.25 1186.125 C-952.37117187 1185.19558594 -952.49234375 1184.26617188 -952.6171875 1183.30859375 C-953.58126035 1175.85660129 -953.58126035 1175.85660129 -955.3125 1168.5625 C-956.78108054 1163.17770468 -956.93248904 1157.68144173 -957.25 1152.125 C-957.91 1152.125 -958.57 1152.125 -959.25 1152.125 C-959.38277344 1151.05378906 -959.51554688 1149.98257812 -959.65234375 1148.87890625 C-959.8305056 1147.48174231 -960.00890319 1146.08460841 -960.1875 1144.6875 C-960.31801758 1143.62692383 -960.31801758 1143.62692383 -960.45117188 1142.54492188 C-960.63216191 1139.03682032 -960.63216191 1139.03682032 -962.25 1136.125 C-962.65891672 1133.31033964 -963.00944304 1130.51396997 -963.3125 1127.6875 C-963.40192871 1126.8723291 -963.49135742 1126.0571582 -963.58349609 1125.21728516 C-964.18158317 1119.48818061 -964.43590887 1113.88817501 -964.25 1108.125 C-964.91 1108.125 -965.57 1108.125 -966.25 1108.125 C-967.35087193 1101.10694143 -967.34733092 1094.21934233 -967.25 1087.125 C-967.91 1087.125 -968.57 1087.125 -969.25 1087.125 C-971.63776806 1057.77958453 -971.63776806 1057.77958453 -971.25 1046.125 C-971.91 1046.125 -972.57 1046.125 -973.25 1046.125 C-974.01531414 1029.78975113 -974.40106821 1013.49673542 -974.3828125 997.14453125 C-974.38348961 994.94610076 -974.38446298 992.74767035 -974.38571167 990.54924011 C-974.38716862 985.98895541 -974.3850991 981.42869056 -974.38037109 976.8684082 C-974.37466479 971.09026674 -974.37797147 965.31217166 -974.38394356 959.53403187 C-974.3875952 955.00981816 -974.38638987 950.48561505 -974.38381577 945.96140099 C-974.38315969 943.83323854 -974.38392736 941.70507506 -974.38629532 939.57691383 C-974.39862394 925.39792797 -974.01093489 911.28386688 -973.25 897.125 C-972.59 897.125 -971.93 897.125 -971.25 897.125 C-971.27320313 896.29484375 -971.29640625 895.4646875 -971.3203125 894.609375 C-971.52355253 880.73098443 -970.34588286 866.95177732 -969.25 853.125 C-968.59 853.125 -967.93 853.125 -967.25 853.125 C-967.26160156 852.51914062 -967.27320313 851.91328125 -967.28515625 851.2890625 C-967.35109961 845.16575052 -966.97431433 839.20406669 -966.25 833.125 C-965.59 833.125 -964.93 833.125 -964.25 833.125 C-964.27320313 832.52816406 -964.29640625 831.93132813 -964.3203125 831.31640625 C-964.50427929 822.47285978 -963.39866579 813.87332069 -962.25 805.125 C-961.59 805.125 -960.93 805.125 -960.25 805.125 C-959.92 800.175 -959.59 795.225 -959.25 790.125 C-958.59 790.125 -957.93 790.125 -957.25 790.125 C-957.29125 789.073125 -957.3325 788.02125 -957.375 786.9375 C-957.3857857 780.94065263 -956.43072352 774.99414394 -955.25 769.125 C-954.92 768.795 -954.59 768.465 -954.25 768.125 C-953.85430892 766.11188551 -953.50747809 764.08902792 -953.1875 762.0625 C-952.92259766 760.40541016 -952.92259766 760.40541016 -952.65234375 758.71484375 C-952.51957031 757.86019531 -952.38679687 757.00554688 -952.25 756.125 C-951.59 756.125 -950.93 756.125 -950.25 756.125 C-949.92 752.165 -949.59 748.205 -949.25 744.125 C-948.59 744.125 -947.93 744.125 -947.25 744.125 C-947.18941406 743.32835937 -947.12882813 742.53171875 -947.06640625 741.7109375 C-946.23418278 731.18651142 -946.23418278 731.18651142 -945.25 726.125 C-944.59 726.125 -943.93 726.125 -943.25 726.125 C-942.92 722.495 -942.59 718.865 -942.25 715.125 C-941.59 715.125 -940.93 715.125 -940.25 715.125 C-940.15912109 714.23748047 -940.15912109 714.23748047 -940.06640625 713.33203125 C-939.62987629 709.21521792 -939.16328654 705.16955467 -938.25 701.125 C-937.59 701.125 -936.93 701.125 -936.25 701.125 C-935.92 697.825 -935.59 694.525 -935.25 691.125 C-934.59 691.125 -933.93 691.125 -933.25 691.125 C-933.15912109 690.23748047 -933.15912109 690.23748047 -933.06640625 689.33203125 C-932.62987629 685.21521792 -932.16328654 681.16955467 -931.25 677.125 C-930.59 677.125 -929.93 677.125 -929.25 677.125 C-928.92 674.155 -928.59 671.185 -928.25 668.125 C-927.59 668.125 -926.93 668.125 -926.25 668.125 C-925.92 665.485 -925.59 662.845 -925.25 660.125 C-924.59 660.125 -923.93 660.125 -923.25 660.125 C-923.21261719 659.55652344 -923.17523437 658.98804688 -923.13671875 658.40234375 C-922.67714771 653.00463678 -921.55082705 649.01425748 -919.25 644.125 C-918.87691369 642.80223944 -918.51953585 641.47267923 -918.25 640.125 C-917.59 640.125 -916.93 640.125 -916.25 640.125 C-916.105625 638.908125 -915.96125 637.69125 -915.8125 636.4375 C-915.42219047 633.29829623 -914.92648144 630.2174866 -914.25 627.125 C-913.59 627.125 -912.93 627.125 -912.25 627.125 C-911.92 624.815 -911.59 622.505 -911.25 620.125 C-910.59 620.125 -909.93 620.125 -909.25 620.125 C-909.12882813 619.51011719 -909.00765625 618.89523437 -908.8828125 618.26171875 C-908.71523438 617.45347656 -908.54765625 616.64523437 -908.375 615.8125 C-908.21257812 615.01199219 -908.05015625 614.21148438 -907.8828125 613.38671875 C-907.25 611.125 -907.25 611.125 -905.25 608.125 C-904.86500109 606.46950469 -904.52206865 604.8027567 -904.25 603.125 C-903.59 603.125 -902.93 603.125 -902.25 603.125 C-901.92 600.815 -901.59 598.505 -901.25 596.125 C-900.59 596.125 -899.93 596.125 -899.25 596.125 C-898.59 592.825 -897.93 589.525 -897.25 586.125 C-896.59 586.125 -895.93 586.125 -895.25 586.125 C-894.92 583.815 -894.59 581.505 -894.25 579.125 C-893.59 579.125 -892.93 579.125 -892.25 579.125 C-891.59 576.485 -890.93 573.845 -890.25 571.125 C-889.59 571.125 -888.93 571.125 -888.25 571.125 C-887.92 569.145 -887.59 567.165 -887.25 565.125 C-886.59 565.125 -885.93 565.125 -885.25 565.125 C-885.105625 564.031875 -884.96125 562.93875 -884.8125 561.8125 C-884.25 558.125 -884.25 558.125 -883.25 555.125 C-882.59 555.125 -881.93 555.125 -881.25 555.125 C-880.755 552.65 -880.755 552.65 -880.25 550.125 C-879.59 550.125 -878.93 550.125 -878.25 550.125 C-878.14042969 549.53332031 -878.03085937 548.94164062 -877.91796875 548.33203125 C-877.00281262 543.77113118 -876.16149857 539.88568565 -873.25 536.125 C-872.59 536.125 -871.93 536.125 -871.25 536.125 C-870.92 534.145 -870.59 532.165 -870.25 530.125 C-869.59 530.125 -868.93 530.125 -868.25 530.125 C-868.105625 529.17625 -867.96125 528.2275 -867.8125 527.25 C-867.25 524.125 -867.25 524.125 -866.25 522.125 C-865.59 522.125 -864.93 522.125 -864.25 522.125 C-863.92 520.145 -863.59 518.165 -863.25 516.125 C-862.59 516.125 -861.93 516.125 -861.25 516.125 C-861.12882812 515.48691406 -861.00765625 514.84882812 -860.8828125 514.19140625 C-860.71523438 513.36511719 -860.54765625 512.53882813 -860.375 511.6875 C-860.21257812 510.86378906 -860.05015625 510.04007813 -859.8828125 509.19140625 C-859.67398438 508.50949219 -859.46515625 507.82757812 -859.25 507.125 C-858.59 506.795 -857.93 506.465 -857.25 506.125 C-856.59786708 504.10036745 -856.59786708 504.10036745 -856.25 502.125 C-855.59 502.125 -854.93 502.125 -854.25 502.125 C-853.59 499.815 -852.93 497.505 -852.25 495.125 C-851.59 495.125 -850.93 495.125 -850.25 495.125 C-849.92 493.475 -849.59 491.825 -849.25 490.125 C-848.59 490.125 -847.93 490.125 -847.25 490.125 C-846.92 488.475 -846.59 486.825 -846.25 485.125 C-845.59 485.125 -844.93 485.125 -844.25 485.125 C-843.59 482.815 -842.93 480.505 -842.25 478.125 C-841.59 478.125 -840.93 478.125 -840.25 478.125 C-839.92 476.805 -839.59 475.485 -839.25 474.125 C-838.59 474.125 -837.93 474.125 -837.25 474.125 C-837.0953125 472.76375 -837.0953125 472.76375 -836.9375 471.375 C-836.23322506 468.04570026 -835.37094572 466.68780941 -833.25 464.125 C-832.92 463.135 -832.59 462.145 -832.25 461.125 C-831.59 461.125 -830.93 461.125 -830.25 461.125 C-829.59 459.145 -828.93 457.165 -828.25 455.125 C-827.59 455.125 -826.93 455.125 -826.25 455.125 C-825.92 453.805 -825.59 452.485 -825.25 451.125 C-824.59 451.125 -823.93 451.125 -823.25 451.125 C-823.12625 450.155625 -823.0025 449.18625 -822.875 448.1875 C-822.66875 447.176875 -822.4625 446.16625 -822.25 445.125 C-821.59 444.795 -820.93 444.465 -820.25 444.125 C-819.11649466 442.10830173 -819.11649466 442.10830173 -818.25 440.125 C-817.59 440.125 -816.93 440.125 -816.25 440.125 C-815.92 438.475 -815.59 436.825 -815.25 435.125 C-814.59 435.125 -813.93 435.125 -813.25 435.125 C-812.816875 433.4234375 -812.816875 433.4234375 -812.375 431.6875 C-812.00375 430.511875 -811.6325 429.33625 -811.25 428.125 C-810.59 427.795 -809.93 427.465 -809.25 427.125 C-808.92 426.135 -808.59 425.145 -808.25 424.125 C-807.59 423.795 -806.93 423.465 -806.25 423.125 C-805.940625 422.17625 -805.63125 421.2275 -805.3125 420.25 C-804.30364493 417.28277921 -803.7112478 415.97093585 -801.25 414.125 C-800.59 414.125 -799.93 414.125 -799.25 414.125 C-799.146875 413.485625 -799.04375 412.84625 -798.9375 412.1875 C-798.710625 411.506875 -798.48375 410.82625 -798.25 410.125 C-797.26 409.795 -796.27 409.465 -795.25 409.125 C-795.064375 407.9184375 -795.064375 407.9184375 -794.875 406.6875 C-794.66875 405.841875 -794.4625 404.99625 -794.25 404.125 C-793.59 403.795 -792.93 403.465 -792.25 403.125 C-791.92 402.135 -791.59 401.145 -791.25 400.125 C-790.59 399.795 -789.93 399.465 -789.25 399.125 C-788.11649466 397.10830173 -788.11649466 397.10830173 -787.25 395.125 C-786.59 395.125 -785.93 395.125 -785.25 395.125 C-785.0953125 393.9803125 -785.0953125 393.9803125 -784.9375 392.8125 C-784.19348803 389.90408957 -783.45194413 389.05170112 -781.25 387.125 C-780.92 386.465 -780.59 385.805 -780.25 385.125 C-779.59 385.125 -778.93 385.125 -778.25 385.125 C-778.1675 384.3825 -778.085 383.64 -778 382.875 C-777.10190201 379.58197405 -775.86583926 378.26523212 -773.25 376.125 C-772.59 376.125 -771.93 376.125 -771.25 376.125 C-771.146875 375.526875 -771.04375 374.92875 -770.9375 374.3125 C-770.15175967 371.81241714 -769.28081147 370.74964918 -767.25 369.125 C-766.59 369.125 -765.93 369.125 -765.25 369.125 C-765.146875 368.485625 -765.04375 367.84625 -764.9375 367.1875 C-764.710625 366.506875 -764.48375 365.82625 -764.25 365.125 C-763.26 364.795 -762.27 364.465 -761.25 364.125 C-761.20875 363.403125 -761.1675 362.68125 -761.125 361.9375 C-759.90572281 358.01839473 -757.41148648 356.62784346 -754.25 354.125 C-753.92 353.135 -753.59 352.145 -753.25 351.125 C-752.59 351.125 -751.93 351.125 -751.25 351.125 C-751.04375 350.238125 -750.8375 349.35125 -750.625 348.4375 C-748.84926967 344.15960421 -746.99964433 342.78099807 -743.25 340.125 C-742.59 340.125 -741.93 340.125 -741.25 340.125 C-740.59 338.145 -739.93 336.165 -739.25 334.125 C-738.59 334.125 -737.93 334.125 -737.25 334.125 C-736.92 333.135 -736.59 332.145 -736.25 331.125 C-734.3125 328.9375 -734.3125 328.9375 -732.25 327.125 C-731.59 327.125 -730.93 327.125 -730.25 327.125 C-729.92 326.135 -729.59 325.145 -729.25 324.125 C-728.59 324.125 -727.93 324.125 -727.25 324.125 C-727.1675 323.5475 -727.085 322.97 -727 322.375 C-726.03202213 319.4710664 -724.56305716 318.08759396 -722.25 316.125 C-721.59 316.125 -720.93 316.125 -720.25 316.125 C-720.04375 315.444375 -719.8375 314.76375 -719.625 314.0625 C-716.64351613 307.69296627 -711.58414159 303.55120259 -706.25 299.125 C-704.57932867 297.12834402 -702.91247014 295.12848966 -701.25 293.125 C-699.58333333 291.79166667 -697.91666667 290.45833333 -696.25 289.125 C-695.425 288.135 -694.6 287.145 -693.75 286.125 C-691.41481763 283.32278116 -689.08099035 281.38979228 -686.25 279.125 C-685.445625 278.155625 -684.64125 277.18625 -683.8125 276.1875 C-681.19572291 273.06013226 -678.37563033 270.72969194 -675.25 268.125 C-674.37654565 267.0571567 -673.52192273 265.973613 -672.6875 264.875 C-670.25 262.125 -670.25 262.125 -667.4375 261.25 C-666.3546875 261.188125 -666.3546875 261.188125 -665.25 261.125 C-664.92 260.135 -664.59 259.145 -664.25 258.125 C-663.59 258.125 -662.93 258.125 -662.25 258.125 C-661.981875 257.526875 -661.71375 256.92875 -661.4375 256.3125 C-660.25082594 254.12652146 -659.15400887 252.71167406 -657.25 251.125 C-656.59 251.125 -655.93 251.125 -655.25 251.125 C-654.981875 250.34125 -654.71375 249.5575 -654.4375 248.75 C-653.25 246.125 -653.25 246.125 -650.25 244.125 C-649.26 244.125 -648.27 244.125 -647.25 244.125 C-646.92 243.135 -646.59 242.145 -646.25 241.125 C-645.59 241.125 -644.93 241.125 -644.25 241.125 C-643.92 240.135 -643.59 239.145 -643.25 238.125 C-641.24878825 235.75993157 -640.28200339 235.1356678 -637.25 234.125 C-636.074375 232.9184375 -636.074375 232.9184375 -634.875 231.6875 C-632.284822 229.1589929 -630.53582835 228.40282214 -627.25 227.125 C-626.92 226.135 -626.59 225.145 -626.25 224.125 C-625.59 224.125 -624.93 224.125 -624.25 224.125 C-623.59 222.805 -622.93 221.485 -622.25 220.125 C-621.26 220.125 -620.27 220.125 -619.25 220.125 C-619.25 219.465 -619.25 218.805 -619.25 218.125 C-613.89285714 213.125 -613.89285714 213.125 -610.25 213.125 C-609.92 212.135 -609.59 211.145 -609.25 210.125 C-608.59 210.125 -607.93 210.125 -607.25 210.125 C-606.92 209.135 -606.59 208.145 -606.25 207.125 C-605.26 206.795 -604.27 206.465 -603.25 206.125 C-602.734375 205.609375 -602.21875 205.09375 -601.6875 204.5625 C-601.213125 204.088125 -600.73875 203.61375 -600.25 203.125 C-599.59 203.125 -598.93 203.125 -598.25 203.125 C-598.25 202.465 -598.25 201.805 -598.25 201.125 C-595.86839705 197.9495294 -592.96845952 197.19922164 -589.25 196.125 C-589.25 195.465 -589.25 194.805 -589.25 194.125 C-588.26 193.795 -587.27 193.465 -586.25 193.125 C-585.5384375 192.3825 -585.5384375 192.3825 -584.8125 191.625 C-583.25 190.125 -583.25 190.125 -581.125 189.625 C-580.50625 189.46 -579.8875 189.295 -579.25 189.125 C-578.92 188.135 -578.59 187.145 -578.25 186.125 C-577.26 186.125 -576.27 186.125 -575.25 186.125 C-574.92 185.135 -574.59 184.145 -574.25 183.125 C-572.6 182.795 -570.95 182.465 -569.25 182.125 C-568.92 181.135 -568.59 180.145 -568.25 179.125 C-567.26 179.125 -566.27 179.125 -565.25 179.125 C-564.92 178.135 -564.59 177.145 -564.25 176.125 C-563.59 176.125 -562.93 176.125 -562.25 176.125 C-562.25 175.465 -562.25 174.805 -562.25 174.125 C-559.60261084 172.6643715 -558.35551666 172.125 -555.25 172.125 C-554.92 171.135 -554.59 170.145 -554.25 169.125 C-553.26 169.125 -552.27 169.125 -551.25 169.125 C-550.92 168.135 -550.59 167.145 -550.25 166.125 C-548.6 165.795 -546.95 165.465 -545.25 165.125 C-545.25 164.465 -545.25 163.805 -545.25 163.125 C-543.93 162.795 -542.61 162.465 -541.25 162.125 C-541.25 161.465 -541.25 160.805 -541.25 160.125 C-538.60261084 158.6643715 -537.35551666 158.125 -534.25 158.125 C-533.92 157.135 -533.59 156.145 -533.25 155.125 C-532.26 155.125 -531.27 155.125 -530.25 155.125 C-530.25 154.465 -530.25 153.805 -530.25 153.125 C-528.79462432 152.28651196 -527.33559627 151.45436066 -525.875 150.625 C-525.06289063 150.1609375 -524.25078125 149.696875 -523.4140625 149.21875 C-521.25 148.125 -521.25 148.125 -519.25 148.125 C-519.25 147.465 -519.25 146.805 -519.25 146.125 C-517.6 145.795 -515.95 145.465 -514.25 145.125 C-514.25 144.465 -514.25 143.805 -514.25 143.125 C-511.60261084 141.6643715 -510.35551666 141.125 -507.25 141.125 C-507.25 140.465 -507.25 139.805 -507.25 139.125 C-505.6 138.795 -503.95 138.465 -502.25 138.125 C-502.25 137.465 -502.25 136.805 -502.25 136.125 C-498.785 135.135 -498.785 135.135 -495.25 134.125 C-495.25 133.465 -495.25 132.805 -495.25 132.125 C-493.6 131.795 -491.95 131.465 -490.25 131.125 C-490.25 130.465 -490.25 129.805 -490.25 129.125 C-486.785 128.135 -486.785 128.135 -483.25 127.125 C-483.25 126.465 -483.25 125.805 -483.25 125.125 C-481.6 124.795 -479.95 124.465 -478.25 124.125 C-478.25 123.465 -478.25 122.805 -478.25 122.125 C-476.27 121.795 -474.29 121.465 -472.25 121.125 C-471.92 120.135 -471.59 119.145 -471.25 118.125 C-469.27 117.795 -467.29 117.465 -465.25 117.125 C-465.25 116.465 -465.25 115.805 -465.25 115.125 C-462.28 114.63 -462.28 114.63 -459.25 114.125 C-458.92 113.135 -458.59 112.145 -458.25 111.125 C-455.28 110.63 -455.28 110.63 -452.25 110.125 C-452.25 109.465 -452.25 108.805 -452.25 108.125 C-450.6 107.795 -448.95 107.465 -447.25 107.125 C-447.25 106.465 -447.25 105.805 -447.25 105.125 C-442.795 104.135 -442.795 104.135 -438.25 103.125 C-438.25 102.465 -438.25 101.805 -438.25 101.125 C-436.6 100.795 -434.95 100.465 -433.25 100.125 C-433.25 99.465 -433.25 98.805 -433.25 98.125 C-430.28 97.63 -430.28 97.63 -427.25 97.125 C-427.25 96.465 -427.25 95.805 -427.25 95.125 C-422.795 94.135 -422.795 94.135 -418.25 93.125 C-418.25 92.465 -418.25 91.805 -418.25 91.125 C-415.94 90.795 -413.63 90.465 -411.25 90.125 C-411.25 89.465 -411.25 88.805 -411.25 88.125 C-408.34399739 86.86835022 -406.45395416 86.125 -403.25 86.125 C-403.25 85.465 -403.25 84.805 -403.25 84.125 C-400.94 83.795 -398.63 83.465 -396.25 83.125 C-396.25 82.465 -396.25 81.805 -396.25 81.125 C-392.63026598 79.80873308 -390.15432869 79.125 -386.25 79.125 C-386.25 78.465 -386.25 77.805 -386.25 77.125 C-383.28 76.63 -383.28 76.63 -380.25 76.125 C-380.25 75.465 -380.25 74.805 -380.25 74.125 C-377.94 73.795 -375.63 73.465 -373.25 73.125 C-373.25 72.465 -373.25 71.805 -373.25 71.125 C-369.95 70.465 -366.65 69.805 -363.25 69.125 C-363.25 68.465 -363.25 67.805 -363.25 67.125 C-360.94 66.795 -358.63 66.465 -356.25 66.125 C-356.25 65.465 -356.25 64.805 -356.25 64.125 C-352.37315913 62.93212589 -349.33378077 62.125 -345.25 62.125 C-345.25 61.465 -345.25 60.805 -345.25 60.125 C-342.61 59.795 -339.97 59.465 -337.25 59.125 C-337.25 58.465 -337.25 57.805 -337.25 57.125 C-333.1303623 55.83256464 -329.58168317 54.86247375 -325.25 55.125 C-325.25 54.465 -325.25 53.805 -325.25 53.125 C-322.94 52.795 -320.63 52.465 -318.25 52.125 C-318.25 51.465 -318.25 50.805 -318.25 50.125 C-316.6676994 49.78679834 -315.08410625 49.45464061 -313.5 49.125 C-312.61828125 48.939375 -311.7365625 48.75375 -310.828125 48.5625 C-308.25 48.125 -308.25 48.125 -304.25 48.125 C-304.25 47.465 -304.25 46.805 -304.25 46.125 C-301.61 45.795 -298.97 45.465 -296.25 45.125 C-296.25 44.465 -296.25 43.805 -296.25 43.125 C-292.95 42.795 -289.65 42.465 -286.25 42.125 C-286.25 41.465 -286.25 40.805 -286.25 40.125 C-284.83461283 39.78627487 -283.41762037 39.45425376 -282 39.125 C-281.21109375 38.939375 -280.4221875 38.75375 -279.609375 38.5625 C-277.25 38.125 -277.25 38.125 -273.25 38.125 C-273.25 37.465 -273.25 36.805 -273.25 36.125 C-269.62 35.795 -265.99 35.465 -262.25 35.125 C-262.25 34.465 -262.25 33.805 -262.25 33.125 C-256.86972975 31.93411014 -251.79708616 30.8330481 -246.25 31.125 C-246.25 30.465 -246.25 29.805 -246.25 29.125 C-240.805 28.63 -240.805 28.63 -235.25 28.125 C-235.25 27.465 -235.25 26.805 -235.25 26.125 C-229.18184478 24.89600654 -223.45104812 23.84939786 -217.25 24.125 C-217.25 23.465 -217.25 22.805 -217.25 22.125 C-212.63 21.795 -208.01 21.465 -203.25 21.125 C-203.25 20.465 -203.25 19.805 -203.25 19.125 C-198.96 18.795 -194.67 18.465 -190.25 18.125 C-190.25 17.465 -190.25 16.805 -190.25 16.125 C-187.75072231 15.78529235 -185.25080405 15.45311968 -182.75 15.125 C-182.05390625 15.02960937 -181.3578125 14.93421875 -180.640625 14.8359375 C-175.80299871 14.2088378 -171.12818804 14.03710472 -166.25 14.125 C-166.25 13.465 -166.25 12.805 -166.25 12.125 C-157.835 11.63 -157.835 11.63 -149.25 11.125 C-149.25 10.465 -149.25 9.805 -149.25 9.125 C-127.71808511 6.74202128 -127.71808511 6.74202128 -117.25 7.125 C-117.25 6.465 -117.25 5.805 -117.25 5.125 C-108.22582223 4.43462574 -99.30638678 3.97321698 -90.25 4.125 C-90.25 3.465 -90.25 2.805 -90.25 2.125 C-60.17466236 0.04798155 -30.13173404 -0.05181169 0 0 Z " fill="#000000" transform="translate(1028.25,25.875)"/>
<path d="M0 0 C6.93 0 13.86 0 21 0 C21 0.66 21 1.32 21 2 C22.43666016 1.96519531 22.43666016 1.96519531 23.90234375 1.9296875 C34.08758771 1.76440971 43.91610648 2.60223258 54 4 C54 4.66 54 5.32 54 6 C60.93 6.495 60.93 6.495 68 7 C68 7.66 68 8.32 68 9 C69.2375 9.144375 70.475 9.28875 71.75 9.4375 C74.56504499 9.78688502 77.2701497 10.20379366 80 11 C80 11.66 80 12.32 80 13 C82.31 13.33 84.62 13.66 87 14 C87 14.66 87 15.32 87 16 C88.6396875 16.2165625 88.6396875 16.2165625 90.3125 16.4375 C94 17 94 17 97 18 C97 18.66 97 19.32 97 20 C99.31 20.33 101.62 20.66 104 21 C104 21.66 104 22.32 104 23 C105.4540625 23.185625 105.4540625 23.185625 106.9375 23.375 C107.948125 23.58125 108.95875 23.7875 110 24 C110.33 24.66 110.66 25.32 111 26 C112.97888961 26.72693904 114.97954558 27.39816251 117 28 C117 28.66 117 29.32 117 30 C118.4540625 30.185625 118.4540625 30.185625 119.9375 30.375 C120.948125 30.58125 121.95875 30.7875 123 31 C123.33 31.66 123.66 32.32 124 33 C126.01669827 34.13350534 126.01669827 34.13350534 128 35 C128 35.66 128 36.32 128 37 C129.65 37.33 131.3 37.66 133 38 C133 38.66 133 39.32 133 40 C134.11375 40.226875 135.2275 40.45375 136.375 40.6875 C140 42 140 42 141.25 44.5625 C141.4975 45.366875 141.745 46.17125 142 47 C142.99 47.33 143.98 47.66 145 48 C145 48.66 145 49.32 145 50 C145.9075 50.226875 146.815 50.45375 147.75 50.6875 C151.55554217 52.22435357 152.58219882 53.75107966 155 57 C155.969375 57.804375 156.93875 58.60875 157.9375 59.4375 C161.06486774 62.05427709 163.39530806 64.87436967 166 68 C167.0678433 68.87345435 168.151387 69.72807727 169.25 70.5625 C172 73 172 73 172.875 75.8125 C172.936875 76.8953125 172.936875 76.8953125 173 78 C173.99 78.33 174.98 78.66 176 79 C176 79.66 176 80.32 176 81 C176.66 81 177.32 81 178 81 C178.103125 81.639375 178.20625 82.27875 178.3125 82.9375 C178.6528125 83.9584375 178.6528125 83.9584375 179 85 C179.99 85.33 180.98 85.66 182 86 C182.6875 88.0625 182.6875 88.0625 183 90 C183.66 90 184.32 90 185 90 C185.33 91.65 185.66 93.3 186 95 C186.66 95 187.32 95 188 95 C188.66 97.31 189.32 99.62 190 102 C190.66 102 191.32 102 192 102 C192.33 102.99 192.66 103.98 193 105 C193.66 105.33 194.32 105.66 195 106 C195.6328125 107.84765625 195.6328125 107.84765625 196.125 110.0625 C196.29257813 110.79597656 196.46015625 111.52945313 196.6328125 112.28515625 C196.75398438 112.85105469 196.87515625 113.41695312 197 114 C197.66 114 198.32 114 199 114 C199.33 115.98 199.66 117.96 200 120 C200.66 120 201.32 120 202 120 C202.33 121.98 202.66 123.96 203 126 C203.66 126 204.32 126 205 126 C206.19287411 129.87684087 207 132.91621923 207 137 C207.66 137 208.32 137 209 137 C209.33 139.31 209.66 141.62 210 144 C210.66 144 211.32 144 212 144 C212.33820166 145.5823006 212.67035939 147.16589375 213 148.75 C213.185625 149.63171875 213.37125 150.5134375 213.5625 151.421875 C214 154 214 154 214 158 C214.66 158 215.32 158 216 158 C216.33 162.62 216.66 167.24 217 172 C217.66 172 218.32 172 219 172 C221.91539576 198.03031933 221.91539576 223.96968067 219 250 C218.34 250 217.68 250 217 250 C216.95101563 250.80824219 216.90203125 251.61648438 216.8515625 252.44921875 C216.77679687 253.51785156 216.70203125 254.58648438 216.625 255.6875 C216.55539062 256.74324219 216.48578125 257.79898437 216.4140625 258.88671875 C216.00798914 261.93993068 215.19244198 264.18150077 214 267 C213.58340865 268.7615128 213.20714882 270.53313133 212.875 272.3125 C212.70742187 273.19550781 212.53984375 274.07851563 212.3671875 274.98828125 C212.24601562 275.65214844 212.12484375 276.31601562 212 277 C211.34 277 210.68 277 210 277 C209.67 279.64 209.34 282.28 209 285 C208.34 285 207.68 285 207 285 C206.34 288.3 205.68 291.6 205 295 C204.34 295 203.68 295 203 295 C202.67 296.98 202.34 298.96 202 301 C201.34 301 200.68 301 200 301 C199.67 302.65 199.34 304.3 199 306 C198.34 306 197.68 306 197 306 C196.34 308.97 195.68 311.94 195 315 C194.34 315 193.68 315 193 315 C192.67 316.32 192.34 317.64 192 319 C191.34 319 190.68 319 190 319 C189.67 320.98 189.34 322.96 189 325 C188.01 325.33 187.02 325.66 186 326 C185.26676204 328.01508358 185.26676204 328.01508358 185 330 C184.34 330 183.68 330 183 330 C182.855625 330.61875 182.71125 331.2375 182.5625 331.875 C182 334 182 334 181 336 C180.34 336 179.68 336 179 336 C178.67 337.32 178.34 338.64 178 340 C177.34 340 176.68 340 176 340 C175.67 340.99 175.34 341.98 175 343 C174.34 343 173.68 343 173 343 C172.9175 343.5775 172.835 344.155 172.75 344.75 C171.78202213 347.6539336 170.31305716 349.03740604 168 351 C167.34 351 166.68 351 166 351 C165.67 352.65 165.34 354.3 165 356 C163.576875 356.3403125 163.576875 356.3403125 162.125 356.6875 C158.80354352 357.6554134 158.80354352 357.6554134 157.9375 360.5 C157.628125 361.325 157.31875 362.15 157 363 C155.34795544 363.70211894 153.68076231 364.36971413 152 365 C150.77472052 366.95021083 150.77472052 366.95021083 150 369 C149.34 369.66 148.68 370.32 148 371 C147.01 371 146.02 371 145 371 C144.67 371.99 144.34 372.98 144 374 C141.99878825 376.36506843 141.03200339 376.9893322 138 378 C137.01 379.0209375 137.01 379.0209375 136 380.0625 C134 382 134 382 131 382 C131 382.66 131 383.32 131 384 C130.01 384.33 129.02 384.66 128 385 C127.67 385.66 127.34 386.32 127 387 C124.37418862 388.57548683 123.12900213 389 120 389 C120 389.66 120 390.32 120 391 C119.01 391.33 118.02 391.66 117 392 C116.67 392.66 116.34 393.32 116 394 C112.9375 394.625 112.9375 394.625 110 395 C110 395.66 110 396.32 110 397 C107.36 397.66 104.72 398.32 102 399 C102 399.66 102 400.32 102 401 C100.02 401.33 98.04 401.66 96 402 C96 402.66 96 403.32 96 404 C92.12315913 405.19287411 89.08378077 406 85 406 C85 406.66 85 407.32 85 408 C82.69 408.33 80.38 408.66 78 409 C78 409.66 78 410.32 78 411 C76.43883181 411.33951619 74.87598662 411.67132544 73.3125 412 C72.44238281 412.185625 71.57226562 412.37125 70.67578125 412.5625 C68.06287036 412.98972047 65.64186962 413.07616201 63 413 C63 413.66 63 414.32 63 415 C58.32798795 416.20568053 53.78503708 416.09382426 49 416 C49 416.66 49 417.32 49 418 C41.98194143 419.10087193 35.09434233 419.09733092 28 419 C28 419.66 28 420.32 28 421 C17.44 421 6.88 421 -4 421 C-4 420.34 -4 419.68 -4 419 C-5.07378906 419.01160156 -6.14757813 419.02320313 -7.25390625 419.03515625 C-8.69010241 419.04454315 -10.12630048 419.05364238 -11.5625 419.0625 C-12.26697266 419.07087891 -12.97144531 419.07925781 -13.69726562 419.08789062 C-18.24024798 419.10882603 -22.51784892 418.74800682 -27 418 C-27 417.34 -27 416.68 -27 416 C-31.29 415.67 -35.58 415.34 -40 415 C-40 414.34 -40 413.68 -40 413 C-40.59167969 412.93941406 -41.18335938 412.87882812 -41.79296875 412.81640625 C-45.90978208 412.37987629 -49.95544533 411.91328654 -54 411 C-54 410.34 -54 409.68 -54 409 C-55.299375 408.9175 -56.59875 408.835 -57.9375 408.75 C-63.14094865 408.19661737 -67.37021568 406.35320007 -72 404 C-72 403.34 -72 402.68 -72 402 C-74.31 401.67 -76.62 401.34 -79 401 C-79 400.34 -79 399.68 -79 399 C-79.94875 398.855625 -80.8975 398.71125 -81.875 398.5625 C-85 398 -85 398 -87 397 C-87 396.34 -87 395.68 -87 395 C-88.65 394.67 -90.3 394.34 -92 394 C-92 393.34 -92 392.68 -92 392 C-93.65 391.67 -95.3 391.34 -97 391 C-97 390.34 -97 389.68 -97 389 C-97.78375 388.855625 -98.5675 388.71125 -99.375 388.5625 C-102 388 -102 388 -104 387 C-104 386.34 -104 385.68 -104 385 C-104.804375 384.87625 -105.60875 384.7525 -106.4375 384.625 C-107.7059375 384.315625 -107.7059375 384.315625 -109 384 C-109.33 383.34 -109.66 382.68 -110 382 C-112.01669827 380.86649466 -112.01669827 380.86649466 -114 380 C-114 379.34 -114 378.68 -114 378 C-115.0828125 377.6596875 -115.0828125 377.6596875 -116.1875 377.3125 C-119.53200556 375.75173074 -121.44073615 373.6266129 -124 371 C-124.99 370.67 -125.98 370.34 -127 370 C-128.33895632 368.33784732 -129.67130142 366.67036393 -131 365 C-131.969375 364.195625 -132.93875 363.39125 -133.9375 362.5625 C-137.06486774 359.94572291 -139.39530806 357.12563033 -142 354 C-143.08699799 353.08341025 -144.19127941 352.18689451 -145.3125 351.3125 C-146.199375 350.549375 -147.08625 349.78625 -148 349 C-148 348.01 -148 347.02 -148 346 C-148.66 346 -149.32 346 -150 346 C-151.2890625 344.5390625 -151.2890625 344.5390625 -152.625 342.625 C-153.07101562 341.99851562 -153.51703125 341.37203125 -153.9765625 340.7265625 C-155 339 -155 339 -155 337 C-155.99 336.67 -156.98 336.34 -158 336 C-158.495 334.515 -158.495 334.515 -159 333 C-159.7734375 332.2575 -159.7734375 332.2575 -160.5625 331.5 C-162 330 -162 330 -162 327 C-162.66 327 -163.32 327 -164 327 C-165.4606285 324.35261084 -166 323.10551666 -166 320 C-166.66 320 -167.32 320 -168 320 C-168.495 318.02 -168.495 318.02 -169 316 C-169.66 316 -170.32 316 -171 316 C-171.33 314.02 -171.66 312.04 -172 310 C-172.99 309.67 -173.98 309.34 -175 309 C-175.33 307.02 -175.66 305.04 -176 303 C-176.66 303 -177.32 303 -178 303 C-178.33 301.35 -178.66 299.7 -179 298 C-179.66 298 -180.32 298 -181 298 C-182.29243536 293.8803623 -183.26252625 290.33168317 -183 286 C-183.66 286 -184.32 286 -185 286 C-185.33 283.69 -185.66 281.38 -186 279 C-186.66 279 -187.32 279 -188 279 C-189.33583899 274.15758367 -190.25328119 270.06562383 -190 265 C-190.66 265 -191.32 265 -192 265 C-192.33 261.37 -192.66 257.74 -193 254 C-193.66 254 -194.32 254 -195 254 C-195.13277344 252.92878906 -195.26554687 251.85757813 -195.40234375 250.75390625 C-195.5805056 249.35674231 -195.75890319 247.95960841 -195.9375 246.5625 C-196.02451172 245.85544922 -196.11152344 245.14839844 -196.20117188 244.41992188 C-196.38216191 240.91182032 -196.38216191 240.91182032 -198 238 C-199.89974293 220.40978766 -199.1781511 202.60915126 -198 185 C-197.34 185 -196.68 185 -196 185 C-196.01160156 184.27554688 -196.02320313 183.55109375 -196.03515625 182.8046875 C-196.08231311 177.75216677 -196.07377564 172.96621233 -195 168 C-194.34 168 -193.68 168 -193 168 C-192.67 163.71 -192.34 159.42 -192 155 C-191.34 155 -190.68 155 -190 155 C-189.93941406 154.32453125 -189.87882812 153.6490625 -189.81640625 152.953125 C-189.73261719 152.06109375 -189.64882812 151.1690625 -189.5625 150.25 C-189.48128906 149.36828125 -189.40007812 148.4865625 -189.31640625 147.578125 C-189.03761535 145.30649548 -188.61209423 143.20148177 -188 141 C-187.34 141 -186.68 141 -186 141 C-185.67 138.69 -185.34 136.38 -185 134 C-184.34 134 -183.68 134 -183 134 C-182.855625 132.906875 -182.71125 131.81375 -182.5625 130.6875 C-182 127 -182 127 -181 124 C-180.34 124 -179.68 124 -179 124 C-178.67 121.69 -178.34 119.38 -178 117 C-177.34 117 -176.68 117 -176 117 C-175.855625 116.401875 -175.71125 115.80375 -175.5625 115.1875 C-175.1127561 113.43849596 -174.57107659 111.71322977 -174 110 C-173.34 110 -172.68 110 -172 110 C-171.67 108.35 -171.34 106.7 -171 105 C-170.34 105 -169.68 105 -169 105 C-168.67 103.35 -168.34 101.7 -168 100 C-167.34 100 -166.68 100 -166 100 C-165.896875 99.236875 -165.79375 98.47375 -165.6875 97.6875 C-164.93772808 94.75657342 -164.16526733 93.98482838 -162 92 C-161.505 90.515 -161.505 90.515 -161 89 C-160.34 88.67 -159.68 88.34 -159 88 C-158.67 87.175 -158.34 86.35 -158 85.5 C-157 83 -157 83 -155 82 C-154.505 80.515 -154.505 80.515 -154 79 C-152.0625 76.8125 -152.0625 76.8125 -150 75 C-149.34 75 -148.68 75 -148 75 C-147.505 73.02 -147.505 73.02 -147 71 C-146.34 71 -145.68 71 -145 71 C-144.505 69.515 -144.505 69.515 -144 68 C-143.34 68 -142.68 68 -142 68 C-141.34 66.68 -140.68 65.36 -140 64 C-139.34 64 -138.68 64 -138 64 C-137.67 63.01 -137.34 62.02 -137 61 C-136.34 61 -135.68 61 -135 61 C-134.34 59.68 -133.68 58.36 -133 57 C-132.34 57 -131.68 57 -131 57 C-130.67 56.01 -130.34 55.02 -130 54 C-129.34 54 -128.68 54 -128 54 C-127.67 53.01 -127.34 52.02 -127 51 C-126.01 50.67 -125.02 50.34 -124 50 C-123.34 49.175 -122.68 48.35 -122 47.5 C-120 45 -120 45 -117 44 C-116.505 43.505 -116.01 43.01 -115.5 42.5 C-114 41 -114 41 -111 40 C-110.505 39.01 -110.505 39.01 -110 38 C-109.01 37.67 -108.02 37.34 -107 37 C-106.505 36.01 -106.505 36.01 -106 35 C-104 34.33333333 -102 33.66666667 -100 33 C-99.505 32.01 -99.505 32.01 -99 31 C-96.8203125 29.7109375 -96.8203125 29.7109375 -94.125 28.375 C-93.24070312 27.92898438 -92.35640625 27.48296875 -91.4453125 27.0234375 C-89 26 -89 26 -86 26 C-86 25.34 -86 24.68 -86 24 C-85.01 23.67 -84.02 23.34 -83 23 C-82.67 22.34 -82.34 21.68 -82 21 C-78.9375 20.375 -78.9375 20.375 -76 20 C-76 19.34 -76 18.68 -76 18 C-72.12315913 16.80712589 -69.08378077 16 -65 16 C-65 15.34 -65 14.68 -65 14 C-61.535 13.505 -61.535 13.505 -58 13 C-58 12.34 -58 11.68 -58 11 C-48.58997722 8.70387244 -48.58997722 8.70387244 -44 9 C-44 8.34 -44 7.68 -44 7 C-41.00519083 6.1276588 -38.36424089 5.89170234 -35.25 5.9375 C-34.45078125 5.94652344 -33.6515625 5.95554687 -32.828125 5.96484375 C-32.22484375 5.97644531 -31.6215625 5.98804688 -31 6 C-31 5.34 -31 4.68 -31 4 C-20.56612375 2.32098543 -10.554717 1.75034835 0 2 C0 1.34 0 0.68 0 0 Z " fill="#000000" transform="translate(1298,577)"/>
</svg>
