<svg id="visual" viewBox="0 0 900 600" width="900" height="600" xmlns="http://www.w3.org/2000/svg" xmlns:xlink="http://www.w3.org/1999/xlink" version="1.1"><path d="M0 133L39 133L39 85L78 85L78 73L117 73L117 115L157 115L157 97L196 97L196 97L235 97L235 199L274 199L274 49L313 49L313 127L352 127L352 91L391 91L391 139L430 139L430 13L470 13L470 37L509 37L509 61L548 61L548 97L587 97L587 145L626 145L626 37L665 37L665 163L704 163L704 55L743 55L743 85L783 85L783 277L822 277L822 163L861 163L861 91L900 91L900 181L900 0L900 0L861 0L861 0L822 0L822 0L783 0L783 0L743 0L743 0L704 0L704 0L665 0L665 0L626 0L626 0L587 0L587 0L548 0L548 0L509 0L509 0L470 0L470 0L430 0L430 0L391 0L391 0L352 0L352 0L313 0L313 0L274 0L274 0L235 0L235 0L196 0L196 0L157 0L157 0L117 0L117 0L78 0L78 0L39 0L39 0L0 0Z" fill="#f2f2f2"></path><path d="M0 169L39 169L39 127L78 127L78 91L117 91L117 115L157 115L157 127L196 127L196 115L235 115L235 217L274 217L274 49L313 49L313 163L352 163L352 133L391 133L391 199L430 199L430 19L470 19L470 79L509 79L509 109L548 109L548 145L587 145L587 193L626 193L626 49L665 49L665 169L704 169L704 55L743 55L743 133L783 133L783 325L822 325L822 181L861 181L861 97L900 97L900 199L900 179L900 89L861 89L861 161L822 161L822 275L783 275L783 83L743 83L743 53L704 53L704 161L665 161L665 35L626 35L626 143L587 143L587 95L548 95L548 59L509 59L509 35L470 35L470 11L430 11L430 137L391 137L391 89L352 89L352 125L313 125L313 47L274 47L274 197L235 197L235 95L196 95L196 95L157 95L157 113L117 113L117 71L78 71L78 83L39 83L39 131L0 131Z" fill="#d9d9d9"></path><path d="M0 187L39 187L39 163L78 163L78 175L117 175L117 163L157 163L157 187L196 187L196 115L235 115L235 235L274 235L274 79L313 79L313 169L352 169L352 193L391 193L391 247L430 247L430 73L470 73L470 79L509 79L509 145L548 145L548 217L587 217L587 259L626 259L626 121L665 121L665 199L704 199L704 85L743 85L743 157L783 157L783 331L822 331L822 241L861 241L861 145L900 145L900 259L900 197L900 95L861 95L861 179L822 179L822 323L783 323L783 131L743 131L743 53L704 53L704 167L665 167L665 47L626 47L626 191L587 191L587 143L548 143L548 107L509 107L509 77L470 77L470 17L430 17L430 197L391 197L391 131L352 131L352 161L313 161L313 47L274 47L274 215L235 215L235 113L196 113L196 125L157 125L157 113L117 113L117 89L78 89L78 125L39 125L39 167L0 167Z" fill="#c1c1c1"></path><path d="M0 193L39 193L39 163L78 163L78 217L117 217L117 169L157 169L157 229L196 229L196 127L235 127L235 283L274 283L274 85L313 85L313 217L352 217L352 229L391 229L391 277L430 277L430 79L470 79L470 121L509 121L509 181L548 181L548 217L587 217L587 277L626 277L626 151L665 151L665 211L704 211L704 115L743 115L743 205L783 205L783 331L822 331L822 283L861 283L861 151L900 151L900 265L900 257L900 143L861 143L861 239L822 239L822 329L783 329L783 155L743 155L743 83L704 83L704 197L665 197L665 119L626 119L626 257L587 257L587 215L548 215L548 143L509 143L509 77L470 77L470 71L430 71L430 245L391 245L391 191L352 191L352 167L313 167L313 77L274 77L274 233L235 233L235 113L196 113L196 185L157 185L157 161L117 161L117 173L78 173L78 161L39 161L39 185L0 185Z" fill="#a9a9a9"></path><path d="M0 217L39 217L39 217L78 217L78 301L117 301L117 187L157 187L157 277L196 277L196 187L235 187L235 343L274 343L274 127L313 127L313 229L352 229L352 241L391 241L391 331L430 331L430 79L470 79L470 187L509 187L509 241L548 241L548 295L587 295L587 319L626 319L626 151L665 151L665 211L704 211L704 157L743 157L743 247L783 247L783 367L822 367L822 307L861 307L861 235L900 235L900 271L900 263L900 149L861 149L861 281L822 281L822 329L783 329L783 203L743 203L743 113L704 113L704 209L665 209L665 149L626 149L626 275L587 275L587 215L548 215L548 179L509 179L509 119L470 119L470 77L430 77L430 275L391 275L391 227L352 227L352 215L313 215L313 83L274 83L274 281L235 281L235 125L196 125L196 227L157 227L157 167L117 167L117 215L78 215L78 161L39 161L39 191L0 191Z" fill="#929292"></path><path d="M0 241L39 241L39 217L78 217L78 319L117 319L117 259L157 259L157 295L196 295L196 211L235 211L235 367L274 367L274 199L313 199L313 289L352 289L352 265L391 265L391 355L430 355L430 121L470 121L470 217L509 217L509 277L548 277L548 337L587 337L587 379L626 379L626 187L665 187L665 241L704 241L704 193L743 193L743 289L783 289L783 403L822 403L822 325L861 325L861 235L900 235L900 283L900 269L900 233L861 233L861 305L822 305L822 365L783 365L783 245L743 245L743 155L704 155L704 209L665 209L665 149L626 149L626 317L587 317L587 293L548 293L548 239L509 239L509 185L470 185L470 77L430 77L430 329L391 329L391 239L352 239L352 227L313 227L313 125L274 125L274 341L235 341L235 185L196 185L196 275L157 275L157 185L117 185L117 299L78 299L78 215L39 215L39 215L0 215Z" fill="#7c7c7c"></path><path d="M0 259L39 259L39 223L78 223L78 319L117 319L117 271L157 271L157 331L196 331L196 211L235 211L235 373L274 373L274 199L313 199L313 319L352 319L352 313L391 313L391 373L430 373L430 133L470 133L470 217L509 217L509 301L548 301L548 337L587 337L587 391L626 391L626 205L665 205L665 247L704 247L704 217L743 217L743 325L783 325L783 415L822 415L822 367L861 367L861 247L900 247L900 283L900 281L900 233L861 233L861 323L822 323L822 401L783 401L783 287L743 287L743 191L704 191L704 239L665 239L665 185L626 185L626 377L587 377L587 335L548 335L548 275L509 275L509 215L470 215L470 119L430 119L430 353L391 353L391 263L352 263L352 287L313 287L313 197L274 197L274 365L235 365L235 209L196 209L196 293L157 293L157 257L117 257L117 317L78 317L78 215L39 215L39 239L0 239Z" fill="#666666"></path><path d="M0 373L39 373L39 277L78 277L78 379L117 379L117 283L157 283L157 331L196 331L196 253L235 253L235 445L274 445L274 253L313 253L313 403L352 403L352 361L391 361L391 415L430 415L430 223L470 223L470 235L509 235L509 349L548 349L548 367L587 367L587 421L626 421L626 277L665 277L665 325L704 325L704 259L743 259L743 391L783 391L783 517L822 517L822 379L861 379L861 361L900 361L900 337L900 281L900 245L861 245L861 365L822 365L822 413L783 413L783 323L743 323L743 215L704 215L704 245L665 245L665 203L626 203L626 389L587 389L587 335L548 335L548 299L509 299L509 215L470 215L470 131L430 131L430 371L391 371L391 311L352 311L352 317L313 317L313 197L274 197L274 371L235 371L235 209L196 209L196 329L157 329L157 269L117 269L117 317L78 317L78 221L39 221L39 257L0 257Z" fill="#515151"></path><path d="M0 487L39 487L39 427L78 427L78 475L117 475L117 529L157 529L157 397L196 397L196 493L235 493L235 553L274 553L274 415L313 415L313 457L352 457L352 451L391 451L391 505L430 505L430 439L470 439L470 481L509 481L509 463L548 463L548 427L587 427L587 421L626 421L626 391L665 391L665 397L704 397L704 535L743 535L743 457L783 457L783 577L822 577L822 415L861 415L861 475L900 475L900 403L900 335L900 359L861 359L861 377L822 377L822 515L783 515L783 389L743 389L743 257L704 257L704 323L665 323L665 275L626 275L626 419L587 419L587 365L548 365L548 347L509 347L509 233L470 233L470 221L430 221L430 413L391 413L391 359L352 359L352 401L313 401L313 251L274 251L274 443L235 443L235 251L196 251L196 329L157 329L157 281L117 281L117 377L78 377L78 275L39 275L39 371L0 371Z" fill="#3e3e3e"></path><path d="M0 553L39 553L39 481L78 481L78 481L117 481L117 571L157 571L157 427L196 427L196 499L235 499L235 589L274 589L274 475L313 475L313 493L352 493L352 499L391 499L391 529L430 529L430 439L470 439L470 493L509 493L509 481L548 481L548 433L587 433L587 457L626 457L626 451L665 451L665 421L704 421L704 571L743 571L743 499L783 499L783 589L822 589L822 475L861 475L861 505L900 505L900 475L900 401L900 473L861 473L861 413L822 413L822 575L783 575L783 455L743 455L743 533L704 533L704 395L665 395L665 389L626 389L626 419L587 419L587 425L548 425L548 461L509 461L509 479L470 479L470 437L430 437L430 503L391 503L391 449L352 449L352 455L313 455L313 413L274 413L274 551L235 551L235 491L196 491L196 395L157 395L157 527L117 527L117 473L78 473L78 425L39 425L39 485L0 485Z" fill="#2b2b2b"></path><path d="M0 589L39 589L39 505L78 505L78 523L117 523L117 601L157 601L157 451L196 451L196 541L235 541L235 595L274 595L274 517L313 517L313 505L352 505L352 511L391 511L391 547L430 547L430 487L470 487L470 529L509 529L509 511L548 511L548 475L587 475L587 481L626 481L626 481L665 481L665 427L704 427L704 577L743 577L743 547L783 547L783 595L822 595L822 523L861 523L861 517L900 517L900 481L900 473L900 503L861 503L861 473L822 473L822 587L783 587L783 497L743 497L743 569L704 569L704 419L665 419L665 449L626 449L626 455L587 455L587 431L548 431L548 479L509 479L509 491L470 491L470 437L430 437L430 527L391 527L391 497L352 497L352 491L313 491L313 473L274 473L274 587L235 587L235 497L196 497L196 425L157 425L157 569L117 569L117 479L78 479L78 479L39 479L39 551L0 551Z" fill="#191919"></path><path d="M0 601L39 601L39 601L78 601L78 601L117 601L117 601L157 601L157 601L196 601L196 601L235 601L235 601L274 601L274 601L313 601L313 601L352 601L352 601L391 601L391 601L430 601L430 601L470 601L470 601L509 601L509 601L548 601L548 601L587 601L587 601L626 601L626 601L665 601L665 601L704 601L704 601L743 601L743 601L783 601L783 601L822 601L822 601L861 601L861 601L900 601L900 601L900 479L900 515L861 515L861 521L822 521L822 593L783 593L783 545L743 545L743 575L704 575L704 425L665 425L665 479L626 479L626 479L587 479L587 473L548 473L548 509L509 509L509 527L470 527L470 485L430 485L430 545L391 545L391 509L352 509L352 503L313 503L313 515L274 515L274 593L235 593L235 539L196 539L196 449L157 449L157 599L117 599L117 521L78 521L78 503L39 503L39 587L0 587Z" fill="#000000"></path></svg>