<svg xmlns="http://www.w3.org/2000/svg" xmlns:xlink="http://www.w3.org/1999/xlink" id="visual" version="1.1" viewBox="0 448.87 900 152.13"><path d="M0 509L30 502.2C60 495.3 120 481.7 180 468.3C240 455 300 442 360 453C420 464 480 499 540 505.2C600 511.3 660 488.7 720 484.2C780 479.7 840 493.3 870 500.2L900 507L900 601L870 601C840 601 780 601 720 601C660 601 600 601 540 601C480 601 420 601 360 601C300 601 240 601 180 601C120 601 60 601 30 601L0 601Z" fill="#454545"/><path d="M0 470L30 471C60 472 120 474 180 483.8C240 493.7 300 511.3 360 521.3C420 531.3 480 533.7 540 524.8C600 516 660 496 720 491.8C780 487.7 840 499.3 870 505.2L900 511L900 601L870 601C840 601 780 601 720 601C660 601 600 601 540 601C480 601 420 601 360 601C300 601 240 601 180 601C120 601 60 601 30 601L0 601Z" fill="#303030"/><path d="M0 517L30 518C60 519 120 521 180 529C240 537 300 551 360 548.8C420 546.7 480 528.3 540 525.7C600 523 660 536 720 539.2C780 542.3 840 535.7 870 532.3L900 529L900 601L870 601C840 601 780 601 720 601C660 601 600 601 540 601C480 601 420 601 360 601C300 601 240 601 180 601C120 601 60 601 30 601L0 601Z" fill="#1d1d1d"/></svg>